<?xml version="1.0" standalone="no"?>
<!DOCTYPE svg PUBLIC "-//W3C//DTD SVG 1.1//EN" "http://www.w3.org/Graphics/SVG/1.1/DTD/svg11.dtd" >
<svg xmlns="http://www.w3.org/2000/svg">
<metadata>
Created by FontForge 20120731 at Thu Jan 28 17:22:23 2016
 By Ads
</metadata>
<defs>
<font id="iconfont" horiz-adv-x="1024" >
  <font-face 
    font-family="iconfont"
    font-weight="500"
    font-stretch="normal"
    units-per-em="1024"
    panose-1="2 0 6 3 0 0 0 0 0 0"
    ascent="896"
    descent="-128"
    x-height="792"
    bbox="-0.0833333 -224 1205 896"
    underline-thickness="50"
    underline-position="-100"
    unicode-range="U+0078-E67D"
  />
<missing-glyph horiz-adv-x="374" 
d="M34 0v682h272v-682h-272zM68 34h204v614h-204v-614z" />
    <glyph glyph-name=".notdef" horiz-adv-x="374" 
d="M34 0v682h272v-682h-272zM68 34h204v614h-204v-614z" />
    <glyph glyph-name=".null" horiz-adv-x="0" 
 />
    <glyph glyph-name="nonmarkingreturn" horiz-adv-x="341" 
 />
    <glyph glyph-name="x" unicode="x" horiz-adv-x="1001" 
d="M281 543q-27 -1 -53 -1h-83q-18 0 -36.5 -6t-32.5 -18.5t-23 -32t-9 -45.5v-76h912v41q0 16 -0.5 30t-0.5 18q0 13 -5 29t-17 29.5t-31.5 22.5t-49.5 9h-133v-97h-438v97zM955 310v-52q0 -23 0.5 -52t0.5 -58t-10.5 -47.5t-26 -30t-33 -16t-31.5 -4.5q-14 -1 -29.5 -0.5
t-29.5 0.5h-32l-45 128h-439l-44 -128h-29h-34q-20 0 -45 1q-25 0 -41 9.5t-25.5 23t-13.5 29.5t-4 30v167h911zM163 247q-12 0 -21 -8.5t-9 -21.5t9 -21.5t21 -8.5q13 0 22 8.5t9 21.5t-9 21.5t-22 8.5zM316 123q-8 -26 -14 -48q-5 -19 -10.5 -37t-7.5 -25t-3 -15t1 -14.5
t9.5 -10.5t21.5 -4h37h67h81h80h64h36q23 0 34 12t2 38q-5 13 -9.5 30.5t-9.5 34.5q-5 19 -11 39h-368zM336 498v228q0 11 2.5 23t10 21.5t20.5 15.5t34 6h188q31 0 51.5 -14.5t20.5 -52.5v-227h-327z" />
    <glyph glyph-name="uniE600" unicode="&#xe600;" 
d="M920 170.5q3 -26.5 7 -59t7.5 -66.5t7.5 -67.5t7 -61.5q6 -47 -41 -44q-25 2 -57 5.5t-65 7.5t-65.5 8t-59.5 7q-29 3 -37.5 16.5t9.5 31.5q11 10 27 27.5t27 28.5q11 12 7 22t-16 23q-28 27 -51.5 49t-51.5 51l-12 14q-6 7 -9 15.5t-1 18t13 20.5q6 6 10 10.5t8 8t8.5 8
t11.5 12.5q21 20 38 17t37 -23t41 -40.5t47 -46.5q19 -19 32.5 -26t26.5 6q10 10 23.5 22.5t23.5 22.5q17 17 30.5 13t16.5 -30.5zM44 512q-3 26 -7 59t-7.5 67t-7.5 67.5t-7 60.5t6.5 37t33.5 8q25 -2 56.5 -5.5t65 -7.5t66 -8.5t59.5 -7.5q30 -3 37.5 -16.5t-9.5 -30.5
q-10 -10 -24.5 -26t-25.5 -27q-12 -12 -8 -22t17 -23q13 -14 24.5 -24.5t22.5 -21t23 -23.5l25 -25q6 -6 11.5 -14t8.5 -17t-0.5 -19t-13.5 -20l-11 -11q-4 -4 -7.5 -8t-8.5 -8l-11 -12q-20 -20 -34.5 -15t-34.5 25t-38 37.5t-44 43.5q-19 18 -33 25t-27 -6
q-9 -10 -25 -24.5t-26 -24.5q-17 -17 -30 -13t-16 30zM906 812q26 3 36 -6.5t8 -35t-5.5 -57t-7.5 -64.5l-8 -66q-4 -33 -7 -60q-3 -29 -16.5 -37t-30.5 10q-10 10 -26 24.5t-28 25.5t-22 7.5t-23 -16.5q-27 -27 -47.5 -49t-48.5 -50q-6 -6 -14 -11.5t-17 -8t-19 0.5t-21 14
q-6 6 -10.5 10t-8.5 8t-8.5 8t-11.5 12q-20 20 -16 35t25 35l38 41l46 46q19 18 26 32t-7 26q-9 9 -23 24.5t-24 25.5q-18 17 -13.5 30t30.5 16t58.5 7.5t67 8t68 7.5t60.5 7zM350 256q6 -6 10.5 -10t8.5 -8l8 -9l12 -11q21 -20 18 -36.5t-24 -38.5q-19 -19 -40 -40.5
t-47 -47.5q-18 -18 -22.5 -29.5t8.5 -24.5q10 -9 22.5 -22.5t22.5 -23.5q17 -18 12.5 -31t-30.5 -16t-58 -7t-67 -8t-68.5 -8t-60.5 -7q-25 -2 -35.5 7.5t-8.5 33.5q2 26 5.5 57.5t7.5 64.5t8 65.5t7 60.5q3 30 16.5 37.5t30.5 -9.5q10 -10 27.5 -26t28.5 -28
q12 -12 20 -10.5t20 14.5q14 14 26 26.5t24 24.5t24.5 25t26.5 27q6 6 13 12t15.5 9t18 0.5t20.5 -13.5z" />
    <glyph glyph-name="uniE601" unicode="&#xe601;" horiz-adv-x="1000" 
d="M734 156v-1q-1 -1 -3 -3.5t-4 -4.5l-5 -5l-6 -8q-3 -3 -7 -7.5t-8 -7.5l220 -216l36 34zM812 389q0 -78 -29 -148t-78.5 -119.5t-117.5 -78t-143 -28.5q-105 2 -189.5 52.5t-131.5 135.5t-47 186q0 97 49.5 180.5t134.5 132.5t184 49t184.5 -49.5t134.5 -133t49 -179.5z
M442 702q-86 0 -159 -42.5t-115.5 -116t-42.5 -160.5q0 -133 93 -226.5t224 -93.5q86 0 160 43t117.5 116.5t43.5 160.5q0 65 -25.5 124.5t-69 102t-102.5 67.5t-124 25z" />
    <glyph glyph-name="uniE602" unicode="&#xe602;" horiz-adv-x="1000" 
d="M875 675h-94v-31q0 -26 -18 -44.5t-44 -18.5t-44.5 18.5t-18.5 44.5v31h-312v-31q0 -13 -5 -24.5t-13.5 -20t-20 -13.5t-24.5 -5q-26 0 -44 18.5t-18 44.5v31h-94q-26 0 -44.5 -18.5t-18.5 -44.5v-687q0 -26 18.5 -44.5t44.5 -18.5h750q26 0 44.5 18.5t18.5 44.5v687
q0 26 -18.5 44.5t-44.5 18.5zM875 -75h-750v563h750v-563zM281 612q9 0 16 4.5t11 11.5t4 16v125q0 13 -9 22t-22 9t-22 -9t-9 -22v-125q0 -13 9 -22.5t22 -9.5zM719 612q13 0 22 9.5t9 22.5v125q0 13 -9 22t-22 9t-22 -9t-9 -22v-125q0 -13 9 -22.5t22 -9.5zM562 425h-312
v-63h250v-124h-250v-63h250v-125h-250v-62h312v437zM688 -12h62v437h-125v-63h63v-374zM852 -161h-704q-26 0 -44 15t-18 40v-32q0 -25 18.5 -43.5t43.5 -18.5h704q25 0 43.5 18.5t18.5 43.5v32q0 -25 -18 -40t-44 -15z" />
    <glyph glyph-name="uniE603" unicode="&#xe603;" 
d="M710 447h-17v-428h-56v428h-94v-428h-56v428h-94v-428h-56v428h-36h-77v-448q0 -30 22.5 -52t54.5 -22h409q16 0 30 6t24.5 16t16.5 23.5t6 28.5v448q0 1 -9 1t-30.5 -0.5t-37.5 -0.5zM824 581h-168v46q0 13 -13.5 24.5t-30.5 17.5t-31 6h-150q-24 0 -49.5 -14.5
t-25.5 -33.5v-46h-169q-15 0 -26.5 -11t-11.5 -26.5t11.5 -26.5t26.5 -11h637q10 0 19 5t14 14t5 19q0 4 -1 8.5t-3 8t-4.5 7t-6 6t-7 4t-8 2.5t-8.5 1zM581 581h-150v19h150v-19z" />
    <glyph glyph-name="uniE604" unicode="&#xe604;" 
d="M894 -7l-239 242q73 77 73 205t-86.5 217t-212.5 89t-215 -90t-89 -216q0 -127 88 -213.5t214 -86.5q115 0 188 57l241 -244q7 -6 16 -6t20 11q7 7 8 17.5t-6 17.5zM173 443q0 106 74 180.5t178.5 74.5t178.5 -74.5t74 -180t-74 -180t-178 -74.5q-111 0 -186 81
q-67 74 -67 173z" />
    <glyph glyph-name="uniE605" unicode="&#xe605;" 
d="M70 -99zM693 374h104v-104h-104v104zM693 218h104v-105h-104v105zM693 61h104v-104h-104v104zM683 643h63v-146h-63v146zM537 374h104v-104h-104v104zM537 218h104v-105h-104v105zM537 61h104v-104h-104v104zM381 374h104v-104h-104v104zM381 218h104v-105h-104v105z
M381 61h104v-104h-104v104zM270 643h62v-146h-62v146zM226 374h103v-104h-103v104zM226 218h103v-105h-103v105zM226 61h103v-104h-103v104zM123 -102q0 -18 13.5 -31t31.5 -13h687q12 0 22 6t16 16t6 22v621q0 6 -1.5 11.5t-4.5 10.5t-7 9t-8.5 7t-10.5 4.5t-12 1.5h-62v91
q0 8 -4.5 15t-11.5 11t-15 4h-93q-12 0 -20.5 -9t-8.5 -21v-91h-258v91q0 12 -9 21t-21 9h-99q-12 0 -20.5 -9t-8.5 -21v-91h-56q-18 0 -31.5 -13t-13.5 -31v-621zM952 -99z" />
    <glyph glyph-name="uniE606" unicode="&#xe606;" 
d="M29 287l483 482l483 -482h-966z" />
    <glyph glyph-name="uniE607" unicode="&#xe607;" 
d="M512 713q-89 0 -165 -44t-120 -120t-44 -165q0 -78 35 -148l41 42q-10 24 -15.5 51t-5.5 55q0 114 80 194t194 80t194 -80t80 -194t-80 -194t-194 -80q-70 0 -131 33l-40 -40q78 -48 171 -48q45 0 87.5 12t78.5 33t66.5 51.5t51.5 66.5t33 78.5t12 87.5q0 89 -44 165
t-120 120t-165 44zM475 548h55v-219h-55v219zM475 256h55v-55h-55v55z" />
    <glyph glyph-name="uniE608" unicode="&#xe608;" 
d="M917 550q-7 0 -12.5 -3t-8.5 -8.5t-3 -12.5v-643q0 -13 -6.5 -24t-17.5 -17t-24 -6h-666q-7 0 -13 1.5t-11.5 4.5t-10 7.5t-7.5 9.5t-4.5 11.5t-1.5 12.5v643q0 10 -7 17t-17 7q-8 0 -14.5 -5t-8.5 -13l-1 1v-650q0 -39 28 -67t68 -28h666q40 0 68 28t28 67v643
q0 10 -7 17t-17 7zM345 -21v523q0 10 -7 17t-16.5 7t-16.5 -7t-7 -17v-523q0 -7 3 -12.5t8.5 -8.5t11.5 -3q4 0 8 1t7 4l4 4q3 3 4 7t1 8zM726 -21v523q0 10 -7 17t-16.5 7t-16.5 -7t-7 -17v-523q0 -7 3 -12.5t8.5 -8.5t11.5 -3q10 0 17 7t7 17zM988 717h-274l-88 88
q-7 7 -18 7h-1h-190h-1q-11 0 -18 -7l-88 -88h-274q-10 0 -17 -7t-7 -17t7 -17t17 -7h285h2q10 0 18 7l88 88h166l88 -88q8 -7 18 -7h1h1h285q5 0 9.5 2t7.5 5t5 7.5t2 9.5q0 10 -7 17t-17 7zM536 -21v523q0 4 -1.5 8t-3.5 6.5t-5 5t-6.5 3.5t-7.5 1q-7 0 -12.5 -3
t-8.5 -8.5t-3 -12.5v-523q0 -10 7 -17t17 -7q5 0 9.5 1.5t7.5 5t5 8t2 9.5z" />
    <glyph glyph-name="uniE609" unicode="&#xe609;" 
d="M512 300zM286 584v-38q0 -23 15 -40.5t37 -19.5q24 -2 42.5 12t22.5 38q0 3 1 20v7v7v7v7h233v-8v-8v-7v-8q0 -4 1 -7q0 -41 37 -56q28 -11 54 6t26 47v13v16v13q59 -2 62 -3q16 -3 28.5 -12.5t19.5 -24.5t7 -32v-26v-27v-26v-27v-26v-332q0 -13 -3.5 -24t-10 -20
t-15.5 -15.5t-20.5 -10t-24.5 -3.5h-557q-20 0 -36.5 9t-26 25.5t-9.5 36.5v335v132q0 24 14.5 42.5t38.5 25.5q2 1 3 1t3 0.5t3 0.5h55zM216 397v-11v-313q0 -9 3 -15.5t9 -9.5t15 -3h357h200q7 0 12.5 2.5t8.5 7.5q1 2 1 4l2 4v4q1 2 1 4v4q1 64 1 280v42h-610zM380 584
v-33q-1 -16 -11 -26t-24.5 -10t-24.5 10.5t-10 25.5v13v15v13v14v14q0 7 3 13.5t8 11.5t11 7q22 9 38 -9q5 -5 7.5 -11t2.5 -13v-35zM731 584v-33q0 -16 -10 -26t-25 -10q-9 0 -17 4.5t-12.5 13t-4.5 18.5q0 4 -0.5 10t-0.5 10v9v10q0 5 0.5 10t0.5 10v10q0 7 2.5 13.5
t7.5 11.5t12 7q22 9 38 -9q9 -9 9 -24v-9v-9v-8v-9zM778 162v-69h-93v69h93zM545 162h92v-69h-92v69zM496 93h-92v69h92v-69zM263 93v69h93v-69h-93zM685 256h93v-69h-93v69zM637 256v-69h-92v69h92zM404 187v69h92v-69h-92zM356 187h-92v69h92v-69zM685 350h93v-69h-93v69z
M545 281v69h92v-69h-92zM496 350v-69h-92v69h92z" />
    <glyph glyph-name="uniE60A" unicode="&#xe60a;" 
d="M439 25q-74 0 -142 28q-65 28 -115.5 78.5t-78.5 115.5q-5 12 -9 23.5t-7 23t-5.5 23.5t-4 24t-2.5 24t-1 25q0 74 29 142q28 65 78.5 115.5t115.5 78.5q17 7 34.5 12.5t35 9t36 5.5t36.5 2q75 0 142 -29q33 -14 62 -33.5t54 -44.5q51 -51 79 -116q28 -68 28 -142
q0 -11 -0.5 -21.5t-1.5 -21t-3 -20.5l-4 -20q-2 -10 -5 -20t-6.5 -20t-7.5 -20q-28 -65 -79 -116q-25 -25 -54 -44.5t-62 -33.5q-22 -9 -45.5 -15.5t-47.5 -9.5t-49 -3zM439 701q-129 0 -220.5 -91t-91.5 -220t91.5 -220.5t220.5 -91.5t220.5 91.5t91.5 220.5t-91.5 220
t-220.5 91zM891 -145q-17 0 -32 6.5t-27 17.5l-157 153l37 38l158 -153q8 -9 21 -9q6 0 11.5 2.5t9.5 6.5q3 3 4.5 6.5t2.5 7t1 7.5q0 13 -8 21l-1 1l-152 157l38 37l153 -157q24 -24 24 -58.5t-25 -58.5q-5 -6 -12 -10.5t-14.5 -8t-15.5 -5t-16 -1.5zM281 231
q-32 32 -49 73t-17 86q0 92 66 158l38 -38q-50 -50 -50 -120.5t50 -120.5z" />
    <glyph glyph-name="uniE60B" unicode="&#xe60b;" 
d="M512 748q-91 0 -174 -35.5t-143 -95.5t-95.5 -143t-35.5 -174q0 -73 22.5 -141.5t64 -123.5t96.5 -96.5t123.5 -64t141.5 -22.5q91 0 174 35.5t143 95.5t95.5 143t35.5 174q0 73 -22.5 141.5t-64 123.5t-96.5 96.5t-123.5 64t-141.5 22.5zM581 86q0 -10 -7 -17
q-1 -2 -3 -3.5t-4 -1.5l-4 -2h-4h-75q-8 0 -14.5 7t-6.5 17v40q0 5 1.5 9t4.5 8q7 7 15 7h75q4 0 8 -2t7 -5.5t5 -7.5t2 -9v-40zM574 217q-6 -5 -15 -4h-74q-9 0 -15 4.5t-6 11.5l-1 113v178q1 7 6 11q7 5 15 5h75q3 0 5.5 -0.5t5 -1.5t4.5 -3q6 -5 6 -11v-177l1 -114
q0 -2 -0.5 -3.5t-1.5 -3.5l-2 -2q-1 -2 -3 -3z" />
    <glyph glyph-name="uniE60C" unicode="&#xe60c;" 
d="M698 534h-112v41h-150v-41h-113v-41h375v41zM699 461h-413v-61h38v-406h375v406h38v61h-38zM432 53h-51v348h51v-348zM537 53h-51v348h51v-348zM643 53h-50v348h50v-348z" />
    <glyph glyph-name="uniE60D" unicode="&#xe60d;" 
d="M520 -151l-438 411q-69 83 -69 193q0 123 86.5 210.5t208.5 87.5q57 0 109 -21t93 -59q85 80 202 80q27 0 53 -5t50 -14t46 -22t41 -29.5t35.5 -36t29.5 -41.5t22 -46t13.5 -50.5t4.5 -53.5q0 -110 -69 -193l-3 -4l-342 -313l-42 47l340 311q54 66 54 152q0 97 -68.5 166
t-164.5 69q-52 0 -98.5 -21.5t-79.5 -61.5l-24 -28l-24 28q-33 40 -79.5 61.5t-98.5 21.5q-63 0 -116.5 -31.5t-85 -85.5t-31.5 -118q0 -86 54 -152l433 -406zM485 53l-312 293q-36 48 -36 107q0 35 13.5 67t36.5 55t54.5 36.5t66.5 13.5v-62q-29 0 -54.5 -15t-40 -40.5
t-14.5 -54.5q0 -7 1 -14t3 -14t4.5 -13.5t6 -13t7.5 -12.5l307 -287zM617 500l-54 30q16 30 42.5 51.5t59.5 30.5q7 2 14.5 3.5t15 2.5t14.5 1t14.5 -0.5t15 -1.5t14.5 -3t14 -4.5t14 -5.5l14 -6l-30 -55q-19 10 -40.5 12.5t-42.5 -3.5q-14 -4 -26 -11.5t-22 -18t-17 -22.5z
" />
    <glyph glyph-name="uniE60E" unicode="&#xe60e;" 
d="M951 -212v73h73v-73h-73zM878 -66h73v-73h-73v73zM805 7h73v-73h-73v73zM731 -66h74v-73h-74v-73h-73v73h-73v73h73v73h-73v74h73v73h73v-73h74v-74h-74v-73zM878 -212h-73v73h73v-73zM512 -212v73h73v-73h-73zM512 -66v73h73v-73h-73zM585 227h73v-73h-73v73zM731 227
h74v-73h-74v73zM878 154v-73h-73v73h73zM951 81h73v-74h-73v74zM951 227h73v-73h-73v73zM585 812h439v-439h-439v439zM658 446h293v293h-293v-293zM731 666h147v-147h-147v147zM0 227h439v-439h-439v439zM73 -139h293v293h-293v-293zM146 81h147v-147h-147v147zM0 812h439
v-439h-439v439zM73 446h293v293h-293v-293zM146 666h147v-147h-147v147z" />
    <glyph glyph-name="uniE60F" unicode="&#xe60f;" 
d="M724 199q0 -41 -29 -70t-70 -29t-70 29t-29 70t29 70t70 29q20 0 38.5 -8t31.5 -21.5t21 -31.5t8 -38zM493 429q0 -27 -13 -49.5t-35.5 -36t-49.5 -13.5q-41 0 -70 29t-29 70t29 70t70 29t69.5 -29t28.5 -70zM263 133q0 -27 -13 -49.5t-36 -36t-50 -13.5t-49.5 13.5
t-36 36t-13.5 49.5q0 41 29 70t70 29t70 -29t29 -70zM955 561q0 -27 -13.5 -49.5t-36 -36t-49.5 -13.5q-41 0 -70 29t-29 70t29 70t70 29q27 0 49.5 -13.5t36 -36t13.5 -49.5zM152 169l191 251l39 -29l-191 -251zM400 453l227 -219l-34 -35l-227 219zM645 276l169 267
l42 -26l-169 -267z" />
    <glyph glyph-name="uniE610" unicode="&#xe610;" 
d="M642 428l205 204l-1 -115q0 -8 5 -13t12 -5h13q3 0 5.5 0.5t4.5 2t4 3.5t2.5 4.5t0.5 4.5l1 173v9v4q0 1 -0.5 3t-1.5 3l-2 2q-5 6 -12 5h-9l-171 1q-8 0 -13 -5.5t-5 -12.5v-12q0 -6 3 -10t7.5 -6t9.5 -2l113 -1l-205 -203q-7 -7 -7 -17t7 -17q5 -5 11 -6.5t12 0t11 6.5
zM383 235l-205 -204v116q1 7 -4.5 12.5t-12.5 4.5h-13q-17 0 -17 -15l-1 -173v-9q-1 -8 4 -12q2 -3 5 -4.5t7 -0.5h9l172 -1q7 0 12.5 5.5t5.5 12.5v12q-1 9 -7 13.5t-13 4.5l-113 1l205 203q7 7 7 17t-7 17q-5 5 -11 6.5t-12 0t-11 -6.5zM894 -24v173q-1 7 -6 11t-12 4h-12
q-8 1 -13 -4.5t-5 -12.5l1 -116l-205 204q-7 7 -17 7t-17 -7t-7 -17t7 -17l204 -203l-112 -1q-5 0 -9.5 -2t-7.5 -6t-3 -10v-12q0 -7 5 -12.5t12 -5.5l172 1h9q7 -1 12 5q4 4 4 12v9v0zM212 665l113 1q7 0 13 4.5t7 13.5v12q0 7 -5.5 12.5t-12.5 5.5l-172 -1h-9
q-4 1 -7 -0.5t-5 -4.5q-5 -4 -4 -12v-9v-173q0 -3 1.5 -6t4 -5t6 -3t6.5 -1h13q7 -1 12 4.5t5 12.5v116l205 -204q7 -7 17 -7t17 7t7 17t-7 17zM212 665z" />
    <glyph glyph-name="uniE611" unicode="&#xe611;" 
d="M952 -140q-6 -6 -14 -6t-14 6l-173 174q14 13 27 27l174 -173q4 -4 5.5 -9t0 -10t-5.5 -9zM459 -41q-106 0 -197 53t-143.5 143.5t-52.5 197.5q0 80 31 152.5t84 125.5t125.5 84t152.5 31q107 0 197.5 -52.5t143.5 -143.5t53 -197q0 -155 -106 -268q-103 -111 -252 -124z
M459 706q-96 0 -177.5 -47t-129 -128.5t-47.5 -177.5q0 -72 28.5 -137.5t75.5 -113t112.5 -75.5t137.5 -28q96 0 178 47t129 129t47 178t-47 177.5t-129 128.5t-178 47z" />
    <glyph glyph-name="uniE612" unicode="&#xe612;" 
d="M958 608h-893l447 -326zM582 189q-29 -27 -69 -27q-9 0 -18.5 2t-18 5t-16.5 8t-15 12l-381 291v-448q0 -26 18.5 -45t45.5 -19h767q27 0 46 17t19 43v449z" />
    <glyph glyph-name="uniE613" unicode="&#xe613;" 
d="M535 653l-46 -46l275 -275h-648v-64h648l-275 -275l46 -46l352 353z" />
    <glyph glyph-name="uniE614" unicode="&#xe614;" 
d="M914 342q12 0 22 -5.5t16 -15t6 -20.5q0 -16 -13 -28t-31 -12h-802q-19 0 -32 12t-13 28.5t13 28.5t32 12h802z" />
    <glyph glyph-name="uniE615" unicode="&#xe615;" 
d="M746 156v-1q-1 -1 -3 -3.5t-4 -4.5l-5 -5l-6 -8q-3 -3 -7 -7.5t-8 -7.5l220 -216l36 34zM824 389q0 -78 -29 -148t-78.5 -119.5t-117.5 -78t-143 -28.5q-105 2 -189.5 52.5t-131.5 135.5t-47 186q0 97 49.5 180.5t134.5 132.5t184 49t184.5 -49.5t134.5 -133t49 -179.5z
M454 702q-86 0 -159 -42.5t-115.5 -116t-42.5 -160.5q0 -133 93 -226.5t224 -93.5q86 0 160 43t117.5 116.5t43.5 160.5q0 65 -25.5 124.5t-69 102t-102.5 67.5t-124 25z" />
    <glyph glyph-name="uniE616" unicode="&#xe616;" 
d="M700 648q42 0 80 -16t65 -43.5t43.5 -65t16.5 -79.5q0 -28 -8 -55t-22 -50t-33 -42l-330 -331l-336 337q-57 59 -57 141q0 85 60 144.5t145 59.5q62 0 113.5 -34.5t74.5 -90.5q23 56 74.5 90.5t113.5 34.5zM700 683q-55 0 -104.5 -24.5t-83.5 -68.5q-34 44 -83.5 68.5
t-104.5 24.5q-105 0 -176 -78q-62 -69 -63 -161q0 -95 67 -165l336 -337l24 -25l24 25l330 331q73 70 73 171q0 99 -70 169t-169 70z" />
    <glyph glyph-name="uniE617" unicode="&#xe617;" 
d="M483 495q0 14 9 23t23 9q13 0 22.5 -9t9.5 -23v-485q0 -9 -4.5 -16t-12 -11.5t-15.5 -4.5q-14 0 -23 9.5t-9 22.5v485zM332 495q0 14 9.5 23t22.5 9t22.5 -9t9.5 -23v-485q0 -13 -9.5 -22.5t-22.5 -9.5t-22.5 9.5t-9.5 22.5v485zM633 495q0 5 1.5 9t3.5 7.5t5 6.5t6.5 5
t7.5 3t8 1q14 0 23 -9t9 -23v-485q0 -9 -4 -16t-11.5 -11.5t-16.5 -4.5q-13 0 -22.5 9.5t-9.5 22.5v485zM899 653h-126h-46v40q0 23 -18.5 39.5t-45.5 16.5h-296q-27 0 -45.5 -16.5t-18.5 -39.5v-40h-46h-132q-13 0 -22.5 -9.5t-9.5 -23t9.5 -22.5t22.5 -9h68v-675
q0 -26 18.5 -44.5t45.5 -18.5h516q17 0 32 8.5t23.5 23t8.5 31.5v675h62q13 0 22.5 9t9.5 22.5t-9.5 23t-22.5 9.5zM367 685h296v-32h-296v32zM739 -85q-414 -1 -449 -1q-16 0 -24 9t-9 18v9v608q0 16 7.5 24t15.5 7h8h79h296h72h5q2 0 8.5 -1.5t11.5 -4.5t9 -9.5t4 -15.5
v-313v-298q0 -14 -8.5 -22t-16.5 -9z" />
    <glyph glyph-name="uniE618" unicode="&#xe618;" 
d="M337 558q-70 0 -122.5 -59t-52.5 -148q0 -33 10.5 -62.5t23.5 -49.5t38.5 -42t42 -33t47.5 -30t43 -27q55 -37 96 -84t49 -74q4 16 24 42.5t52.5 59t68.5 57.5q14 11 42 29t47 30t42.5 33t38 41t24.5 49t10 62q0 87 -52.5 145.5t-121.5 58.5q-29 0 -50.5 -4t-45.5 -13.5
t-43.5 -30.5t-35.5 -53q-36 61 -77.5 82t-97.5 21z" />
    <glyph glyph-name="uniE619" unicode="&#xe619;" 
d="M904 322q-27 59 -63.5 106t-71 75.5t-74 49t-68.5 29.5t-58.5 13.5t-39 5t-15.5 -0.5q-44 0 -86 -9.5t-75.5 -25.5t-64 -37t-53.5 -44.5t-42.5 -46.5t-33 -44t-22.5 -37.5t-14 -25.5l-4 -10q-16 -32 -1 -65q29 -61 67 -109.5t75 -77t74.5 -49t69.5 -28.5t57 -12t39 -4
l14 1q61 3 115.5 20.5t92 41t70.5 55t52 57t34.5 53.5t19.5 37.5t6 14.5q9 21 8.5 35.5t-8.5 31.5zM855 260q-2 -5 -5 -13t-16 -31.5t-29 -45.5t-44.5 -49t-61.5 -47t-81.5 -35t-103.5 -18q-3 0 -7.5 -0.5t-20.5 1t-32.5 4.5t-40.5 10.5t-47 18t-50.5 29t-52 42.5t-49.5 58
t-46 76q-14 28 1 55q2 5 6 14t18.5 34t32 47.5t47 50t63 47.5t80.5 33.5t98 13.5h8q5 0 21.5 -1.5t33 -5t40.5 -11.5t47 -19t49.5 -29.5t50.5 -41.5t48 -56.5t43 -73.5q13 -29 0 -57zM511 478q-79 0 -134.5 -55.5t-55.5 -134.5t55.5 -135t134.5 -56t135 56t56 135t-56 134.5
t-135 55.5zM511 143q-60 0 -102.5 42.5t-42.5 102.5t42.5 102.5t102.5 42.5t102.5 -42.5t42.5 -102.5q0 -15 -3 -29.5t-8.5 -27.5t-13 -24.5t-17.5 -21.5t-21.5 -17.5t-24.5 -13t-27.5 -8.5t-29.5 -3zM511 353q-27 0 -46 -19t-19 -46t19 -46.5t46 -19.5t46.5 19.5t19.5 46.5
t-19.5 46t-46.5 19zM511.5 268q-8.5 0 -14.5 5.5t-6 14t6 14.5t14.5 6t14 -6t5.5 -14.5t-5.5 -14t-14 -5.5z" />
    <glyph glyph-name="uniE61A" unicode="&#xe61a;" 
d="M377 618h268v-54h-268v54zM179 242h643v-53h-643v53zM179 438h643v-53h-643v53zM179 45h643v-54h-643v54zM852 616h-65v-55h64q23 0 44 -9t37 -26q33 -34 33 -81l-1 -427q0 -47 -33.5 -81t-80.5 -34l-679 2q-48 0 -81 34.5t-33 81.5l1 426q0 48 33.5 82t80.5 34h61v55
h-60q-81 0 -132 -64q-36 -47 -37 -106l-1 -426q-1 -71 48.5 -121.5t118.5 -50.5l679 -2q70 0 119.5 49.5t49.5 120.5l2 426q0 71 -49.5 121.5t-118.5 50.5zM340 529q0 -4 -2 -7.5t-5 -6t-7 -4t-8 -1.5h-26q-2 0 -4.5 0.5t-4.5 1t-3.5 2t-3 2.5t-3 2.5t-2 3.5t-1 3.5
t-0.5 3.5v212q0 8 6.5 13.5t15.5 5.5h26q2 0 4.5 -0.5t5 -1.5t4.5 -2l2 -4q2 -1 3.5 -3t2 -4t0.5 -4v-212zM751 529q0 -2 -0.5 -3.5t-1 -3.5t-2 -3.5t-3 -2.5t-3 -2.5t-3.5 -2t-4.5 -1t-4.5 -0.5h-26q-3 0 -6 1t-5 2t-4 3t-3.5 4t-2.5 4.5t-1 4.5v212q0 8 6.5 13.5t15.5 5.5
h26q9 0 15.5 -5.5t6.5 -13.5v-212z" />
    <glyph glyph-name="uniE61B" unicode="&#xe61b;" 
d="M544 684h-64v-352h-352v-64h352v-352h64v352h352v64h-352v352z" />
    <glyph glyph-name="uniE61C" unicode="&#xe61c;" 
d="M128 332h768v-64h-768v64z" />
    <glyph glyph-name="uniE61D" unicode="&#xe61d;" 
d="M617 324l-1 -1q-9 -11 -21.5 -23t-42 -35t-71.5 -37.5t-87 -14.5q-115 0 -196.5 81.5t-81.5 196.5t81.5 196.5t196.5 81.5t196.5 -81.5t81.5 -196.5q0 -31 -6.5 -60t-18.5 -56l5 -5l4 -4q3 -3 16 -15.5t34 -33.5q45 81 45 174q0 72 -28 138.5t-76 114.5t-114 76t-139 28
q-97 0 -179.5 -47.5t-130.5 -130t-48 -179.5t48 -179.5t130.5 -130.5t179.5 -48q125 0 223 79l317 -317l56 56z" />
    <glyph glyph-name="uniE61E" unicode="&#xe61e;" 
d="M512 676q76 0 146 -29q68 -29 120 -81t80 -119q6 -14 11 -28.5t8.5 -29t5.5 -29t3.5 -30t1.5 -30.5q0 -76 -30 -146q-28 -68 -80 -120q-26 -26 -56 -46t-64 -34q-70 -30 -146.5 -30t-146.5 30q-67 28 -119 80t-81 120q-29 70 -29 146q0 38 7 75t22 72q29 67 81 119
t119 81q35 15 72 22t75 7zM512 748q-37 0 -73 -6t-69 -17t-64 -27t-58.5 -36.5t-52 -45t-45 -52t-36.5 -58.5t-27 -64t-17 -69t-6 -73q0 -91 35.5 -174t95.5 -143t143 -95t174 -35t174 35t143 95t95 143t35 174t-35 174t-95 143t-143 95.5t-174 35.5zM704 336h-298l131 131
q11 10 11 25t-10.5 25.5t-25.5 10.5t-26 -11l-191 -191l-2 -2v0l-1 -1v-1h-1q0 -1 -1 -1v-1l-1 -1v0v-1h-1v-1v-1l-1 -1v0v-1h-1v-2v-1l-1 -1v-1v-1v0v-1v0q-1 -1 -1 -2v0v-1v-1v-1v-2v0v-2v0v-1v-1v0v-1v-1l1 -1v-1v0v-2h1v-1v-1v-1q1 0 1 -1v0v-1q1 0 1 -1v-1v-1h1v-1
l1 -1v0l1 -1v-1h1q0 -1 1 -1v0v-1q1 0 2 -1l191 -192q11 -10 26 -10t25.5 10.5t10.5 25t-11 25.5l-131 130h298q5 0 10.5 2t10 5.5t8 7.5t5 9.5t1.5 11.5q0 8 -2.5 14.5t-7.5 11t-11.5 7.5t-13.5 3z" />
    <glyph glyph-name="uniE61F" unicode="&#xe61f;" 
d="M1021 66q0 -7 -2.5 -12.5t-6.5 -10.5q-10 -9 -23 -9t-22 9l-454 453l-453 -453q-10 -9 -23 -9t-22 9q-6 6 -8.5 14.5t0 16.5t8.5 14l476 475q9 9 22 9t23 -9l476 -475q9 -9 9 -22z" />
    <glyph glyph-name="uniE620" unicode="&#xe620;" 
d="M499 467q20 0 32 12t12 32q0 10 -3.5 18t-9 13.5t-13.5 9t-18 3.5q-21 0 -37 -12.5t-16 -31.5q0 -4 1 -7l2 -8q1 -3 3 -6t5 -6t6 -5l6 -4q3 -2 6.5 -3.5t7.5 -2.5t8 -1.5t8 -0.5zM253 555q-21 0 -37 -12.5t-16 -31.5t16 -31.5t37 -12.5q20 0 32 12t12 32q0 13 -5.5 23
t-15.5 15.5t-23 5.5zM1024 186q0 104 -84 182t-203 87v3v3q-24 111 -130 185t-240 74q-151 0 -259 -92q-103 -88 -108 -212v-11q0 -142 138 -243l-32 -94q-1 -3 -0.5 -6t1.5 -6t4 -5q2 -2 5 -3t5 -1q4 0 8 2l117 59l15 -3q18 -4 27.5 -6t24 -4t27.5 -3t27 -1h11q6 0 12 0.5
t11 0.5q3 0 5 1t3.5 2t2.5 3q33 -81 114.5 -132t183.5 -51q37 0 103 17l91 -50q2 -1 3.5 -1.5t3.5 -0.5l11 3q8 7 5 18l-23 77q120 95 120 208zM399 124q-16 -1 -32 -1q-13 0 -25 1t-25.5 3t-23 3.5t-26.5 5.5l-20 4q-5 1 -10 -1l-88 -45l23 69q0 2 0.5 4.5t0 4t-1.5 3.5
t-2.5 3.5t-2.5 3.5q-134 93 -134 223q0 77 45 142t122 103t168 38q60 0 117.5 -17.5t102 -48.5t76 -74t42.5 -92q-63 0 -120.5 -22t-99 -58t-66 -86t-24.5 -104q0 -11 1 -21.5t3 -20.5t5 -21q-4 1 -5 1zM875 -4q-8 -6 -5 -17l15 -50l-62 34q-2 1 -4 1.5t-4 0.5t-4 -1
q-67 -17 -101 -17q-117 0 -200 70t-83 169q0 39 14.5 75.5t40.5 65.5t61 51.5t78 34.5t89 12q56 0 108 -19.5t90 -51.5t61 -76t23 -92q0 -49 -30 -98t-87 -92zM613 300q-13 0 -24 -11t-11 -24t11 -24t24 -11q19 0 31.5 10.5t12.5 24.5t-12.5 24.5t-31.5 10.5zM806 300
q-13 0 -24 -11t-11 -24t11 -24t24 -11q19 0 31.5 10.5t12.5 24.5q0 23 -26 32q-9 3 -18 3z" />
    <glyph glyph-name="uniE621" unicode="&#xe621;" 
d="M486 -9h42v1h5v459h-5h-42h-7v-459h7v-1zM625 -9h43v1h6v459h-6h-43h-5v-459h5v-1zM830 595v0h-112v74l-67 79h-285l-73 -81v-72h-99l-61 -63h61h9v-614v-46v-19h607v19v46v614h20h61zM358 642l37 41h226l32 -38v-50h-295v47zM745 532v-614h-477v614h477zM346 -9h42v1h5
v459h-5h-42h-7v-459h7v-1z" />
    <glyph glyph-name="uniE622" unicode="&#xe622;" 
d="M857 19l-74 130v261q0 77 -52 148t-133 101q-2 19 -9.5 36t-19 29.5t-26.5 19t-32 6.5q-35 0 -59.5 -25.5t-28.5 -65.5q-81 -30 -133 -101t-52 -148v-261l-77 -136q-8 -15 0 -29.5t25 -14.5h184q7 -32 27 -58t50 -41t64 -15t63.5 15t49.5 41t27 58h184h1q13 0 21 8.5
t8 20.5q0 13 -8 21zM510.5 692q15.5 0 24.5 -19q-1 0 -10 1t-14 1t-14 -1t-11 -1q9 19 24.5 19zM511 -87q-28 0 -49.5 15.5t-30.5 40.5h159q-4 -12 -12 -22.5t-18 -18t-23 -11.5t-26 -4zM236 27l56 100q4 6 4 14v269q0 77 63 142t151.5 65t151.5 -65t63 -142v-269
q0 -8 4 -14l56 -100h-549z" />
    <glyph glyph-name="uniE623" unicode="&#xe623;" 
d="M358 -121l346 404l2 2q1 1 1 3l1 1v0v1l1 1v1v0q0 1 1 1v1v1v1v1v1v1h1v1v0v1h-1v1v1v1v1v1v1l-1 1v1q0 1 -1 1v1v0q0 1 -1 1q-1 3 -3 5l-346 404q-4 5 -10.5 7t-13 1t-12.5 -6q-9 -7 -9 -19q0 -10 7 -17l331 -387l-331 -387q-7 -7 -7 -17q0 -3 1 -6.5t3.5 -7t4.5 -5.5
q8 -7 19 -6.5t17 8.5z" />
    <glyph glyph-name="uniE624" unicode="&#xe624;" 
d="M512 -210q104 0 198 40.5t162.5 109t109 162.5t40.5 198t-40.5 198t-109 162.5t-162.5 109t-198 40.5t-198 -40.5t-162.5 -109t-109 -162.5t-40.5 -198t40.5 -198t109 -162.5t162.5 -109t198 -40.5zM512 738q89 0 170 -34.5t140 -93.5t93.5 -140t34.5 -170t-34.5 -170
t-93.5 -140t-140 -93.5t-170 -34.5t-170 34.5t-140 93.5t-93.5 140t-34.5 170t34.5 170t93.5 140t140 93.5t170 34.5zM624 522l191 -222l-191 -222q-12 -14 -31 -15.5t-34 10.5q-15 14 -15 35q0 17 11 30l100 116h-388q-19 0 -32 13.5t-13 32.5t13 32.5t32 13.5h388
l-100 116q-11 13 -11 30q0 21 15 35q15 12 34 11q6 -1 11.5 -3t10.5 -5t9 -8z" />
    <glyph glyph-name="uniE625" unicode="&#xe625;" 
d="M948 103l-408 447q-12 12 -29 11q-17 1 -28 -11l-408 -447q-11 -11 -11 -26.5t11 -26.5q7 -7 16.5 -9.5t19.5 0t17 9.5l383 420l384 -420q11 -11 26.5 -11t26.5 11t11 26.5t-11 26.5z" />
    <glyph glyph-name="uniE626" unicode="&#xe626;" 
d="M761 280l1 1t1 2q2 4 3 9t1.5 10t-0.5 10t-2.5 9.5t-4.5 9t-7 7.5l-353 334q-10 9 -22 12t-24.5 -0.5t-21.5 -13.5q-5 -5 -8.5 -12t-4.5 -14.5t0.5 -15t5 -14t9.5 -12.5l317 -299l-316 -305q-14 -13 -14.5 -33t13.5 -35q7 -7 16 -10.5t19 -3.5q19 0 33 13l350 338l1 1v1
q1 0 1 1h1q2 2 5 7q1 2 1 3z" />
    <glyph glyph-name="uniE627" unicode="&#xe627;" 
d="M928 320h-384v384q0 13 -9.5 22.5t-22.5 9.5t-22.5 -9.5t-9.5 -22.5v-384h-384q-13 0 -22.5 -9.5t-9.5 -22.5t9.5 -22.5t22.5 -9.5h384v-384q0 -13 9.5 -22.5t22.5 -9.5t22.5 9.5t9.5 22.5v384h384q13 0 22.5 9.5t9.5 22.5t-9.5 22.5t-22.5 9.5z" />
    <glyph glyph-name="uniE628" unicode="&#xe628;" 
d="M896 280h-768q-8 0 -14 6t-6 14.5t6 14.5t14 6h768q4 0 7.5 -2t6.5 -4.5t4.5 -6.5t1.5 -8q0 -8 -6 -14t-14 -6z" />
    <glyph glyph-name="uniE629" unicode="&#xe629;" 
d="M95 336h833v-72h-833v72z" />
    <glyph glyph-name="uniE62A" unicode="&#xe62a;" 
d="M797 187l-10 9q-40 30 -33 82q7 50 -8 98t-45 83t-70.5 58t-82.5 27q-108 12 -187.5 -48.5t-92.5 -163.5q-8 -61 13 -116.5t60.5 -93.5t96.5 -55.5t117 -6.5q26 5 43 -14q1 -1 32 -28q-25 -13 -31.5 -32.5t-4.5 -49.5q4 -57 -34 -73q-60 -24 -104 4q-6 4 -12 14t-8 17
l-7 20q-2 7 -2.5 14.5t0.5 17t1 14.5q-1 38 -35 52q-17 8 -32.5 5t-28.5 -16q-33 -32 -33 -33q-17 -15 -37.5 -18t-37.5 9q-30 22 -52 51q-8 11 -9 24.5t4 27t15 24.5q5 6 16.5 16.5t15.5 15.5q25 25 15 57q-11 34 -47 39q-1 0 -53 2q-12 1 -21.5 4t-17 8.5t-13 13t-8.5 17
t-3 21.5v18v17q1 30 19 47.5t48 18.5h11h10h11h11q9 1 17 3.5t14.5 6.5t12 10.5t8.5 15.5q13 34 -14 61q-18 18 -28 29l-4 5q-2 1 -4 3.5t-4 4.5q-31 52 39 109q21 17 44.5 16t43.5 -19l16 -16q11 -11 17 -16q28 -26 62 -11q33 14 33 50q-1 32 1 49q1 24 15.5 40.5
t37.5 19.5q30 4 61 0q21 -3 35.5 -19.5t15.5 -39.5q1 -8 0.5 -26t0.5 -25q3 -38 36 -51.5t61 13.5q4 4 11 11.5t10 10.5l3 3l3 3q1 1 3 2.5t3 3.5l3 2q52 40 114 -33q19 -22 17.5 -46.5t-21.5 -44.5q-26 -26 -32 -33q-25 -31 -9 -63q16 -31 52 -31h44q26 -1 43 -16t20 -39
q2 -14 2 -28.5t-2 -27.5q-1 -10 -5 -18.5t-9.5 -15t-13 -11.5t-17 -7.5t-18.5 -3.5h-31q-21 2 -37.5 -5t-28.5 -24zM338 345q6 -6 15.5 -16t16.5 -17t15.5 -16t16.5 -17q30 -31 67 -32t67 28q20 20 26.5 43.5t-1 47t-28.5 45.5q-6 6 -16 15.5t-17 16.5l-16 16q-9 9 -17 18
q82 24 151 -24q53 -37 71.5 -95.5t-3.5 -119.5q-3 -7 -2 -13.5t3.5 -10.5t7.5 -9q99 -97 159 -157q22 -23 21 -48t-24 -45q-13 -11 -27 -14.5t-28.5 1t-27.5 17.5q-85 82 -158 157q-17 17 -39 9q-106 -35 -187 42q-73 69 -53 174q1 1 2 1.5t2.5 1.5t2.5 1zM811 33
q-29 -3 -31 -30q-1 -12 8.5 -22t23 -10t23 9.5t8.5 23.5q-2 27 -32 29z" />
    <glyph glyph-name="uniE62B" unicode="&#xe62b;" 
d="M623 63q-4 0 -8.5 1t-7.5 3t-6 5t-5 6.5t-3.5 8t-1.5 8.5v350q0 13 9.5 22.5t22.5 9.5t22.5 -9.5t9.5 -22.5v-350q0 -9 -4.5 -16t-11.5 -11.5t-16 -4.5zM432 63q-9 0 -16 4.5t-11.5 11.5t-4.5 16v350q0 13 9.5 22.5t22.5 9.5t22.5 -9.5t9.5 -22.5v-350q0 -9 -4.5 -16
t-11.5 -11.5t-16 -4.5zM941 604h-159v64q0 39 -27.5 67t-67.5 28h-319q-19 0 -36.5 -7.5t-30.5 -20.5t-20.5 -30.5t-7.5 -36.5v-64h-159q-13 0 -22.5 -9.5t-9.5 -22.5q0 -8 4.5 -15.5t11.5 -12t16 -4.5h827q14 0 23 9.5t9 22.5q0 24 -22 31zM337 668q0 13 9 22.5t22 9.5h319
q14 0 23 -9.5t9 -22.5v-64h-382v64zM751 -128h-446q-40 0 -68 28t-28 68v477q0 9 4.5 16.5t12 11.5t16 4t16 -4t11.5 -11.5t4 -16.5v-477q0 -14 9.5 -23t22.5 -9h446q8 0 15.5 4t11.5 11.5t4 16.5v476q0 5 2 10t4.5 9t6.5 7t9 4.5t10 1.5q13 0 22.5 -9.5t9.5 -22.5v-476
q0 -40 -28 -68t-67 -28z" />
    <glyph glyph-name="uniE62C" unicode="&#xe62c;" 
d="M705 748q-57 0 -108 -27.5t-87 -75.5q-35 48 -86.5 75.5t-108.5 27.5q-30 0 -58 -7.5t-52.5 -21t-46.5 -32.5t-39 -42.5t-29.5 -50.5t-19.5 -58t-7 -63q0 -42 13 -84t25.5 -64t34.5 -57q20 -30 49 -65t58.5 -65.5t64 -63t61 -55.5t54 -46t38 -31t17.5 -14q14 -11 32 -11
t32 11q12 10 31 25t66 55t87.5 79t85.5 89.5t72 91.5q22 35 34.5 57t25.5 64t13 84q0 113 -74 194t-178 81zM838 303q-25 -39 -68 -87t-86.5 -88.5t-83.5 -75t-65 -54.5l-25 -20q-10 8 -26.5 21t-62.5 52.5t-85.5 77t-84 86.5t-69.5 88q-21 33 -32 53.5t-21 52.5t-10 64
q0 88 57.5 150.5t138.5 62.5q59 0 107 -35t71 -92v1q4 -14 17 -14q4 0 7.5 2t6 5t3.5 7q23 56 71.5 91t106.5 35q53 0 98 -28.5t71.5 -77.5t26.5 -107q0 -46 -16 -83.5t-47 -86.5zM838 303z" />
    <glyph glyph-name="uniE62D" unicode="&#xe62d;" 
d="M904 10l-75 132v277q0 28 -6.5 57.5t-20 58t-32.5 55.5q-60 83 -153 118h-1q-6 2 -14 4v10q0 37 -26.5 63.5t-63.5 26.5t-63.5 -26.5t-26.5 -63.5v-9q-8 -2 -12 -4h-1q-46 -16 -86 -46.5t-70 -71.5q-60 -82 -60 -172v-277l-80 -141q-16 -27 0 -55q7 -13 20 -20t28 -7h198
q9 -56 52.5 -93.5t100.5 -37.5t100.5 37.5t52.5 93.5h198q23 0 39 16t16 39q0 21 -14 36zM512 765q17 0 29.5 -12t13.5 -29q-8 1 -14 2q-4 1 -7 0h-1l-1 1q-4 0 -6.5 0.5t-6.5 1t-8 0.5q-7 0 -20 -2q-2 0 -2 -1h-7q-6 -1 -13 -2q1 17 13.5 29t29.5 12zM512 -165
q-19 0 -36.5 6.5t-31 17.5t-23.5 26.5t-14 33.5h210q-9 -36 -38 -60t-67 -24zM863 -34h-702q-5 0 -7 4q-1 2 -1 4t1 4l84 147l3 11v283q0 50 24 100t66 88.5t94 57.5q29 9 57 14h3h2h4q2 0 3.5 0.5t3.5 0.5q9 1 13 1t14 -1q6 -1 10 -1q2 -1 5 0q12 -2 27.5 -6t22 -6t11.5 -4
q78 -29 129.5 -99t51.5 -145v-283v-4l2 -4q0 -2 1 -3l80 -141q1 -3 4 -5q2 -2 2 -5.5t-2 -5.5t-6 -2z" />
    <glyph glyph-name="uniE62E" unicode="&#xe62e;" 
d="M512 -202q-186 0 -327 121q-135 116 -167 290q-8 46 -8 91q0 103 39.5 196t107 160t160.5 107t195 40q59 0 115.5 -13.5t106 -38t93 -59t77.5 -78t59 -93t38 -106t13 -115.5q0 -51 -10 -101t-29 -94.5t-46.5 -85t-61 -74.5t-74.5 -61.5t-85.5 -46.5t-94.5 -29t-101 -10v0
zM512 757q-93 0 -177.5 -36t-145.5 -97t-97.5 -146t-36.5 -178t36.5 -177.5t97.5 -145.5t145.5 -97t177.5 -36t177.5 36t145.5 97t97.5 145.5t36.5 177.5q0 63 -16.5 122t-46 109t-71.5 92t-92 71.5t-109.5 46t-121.5 16.5v0zM421 49h45v343h-45v23h137v-366h45v-23h-182v23
zM512 483q-28 0 -48 17t-20 40q0 16 9 29t24.5 20.5t34.5 7.5q7 0 14 -1t13 -3t11.5 -5.5t10 -7t8.5 -8t6.5 -10t4 -11t1.5 -11.5q0 -15 -9.5 -28.5t-25 -21t-34.5 -7.5v0zM512 483z" />
    <glyph glyph-name="uniE62F" unicode="&#xe62f;" 
d="M221.5 590.5q-53.5 -53.5 -75 -124.5t-7.5 -143q28 128 125 225t225 125q-72 14 -143 -7.5t-124.5 -75zM970 2l-116 117q-37 37 -90 33q55 79 68.5 173t-16.5 185.5t-99 161.5q-59 59 -135 89.5t-153.5 30.5t-153.5 -30.5t-135 -89.5q-112 -112 -119 -271
q-7 -157 93 -278q13 -15 26 -28q69 -70 161 -99.5t186 -16t173 68.5q-4 -53 33 -90l117 -116q33 -33 80 -33t80 33t33.5 80t-33.5 80zM669 143q-49 -50 -112.5 -75.5t-128 -25.5t-128 25.5t-113 75t-75 113t-25.5 128t25.5 128t74.5 113.5q66 65 153.5 88.5t175.5 0
t153.5 -89t89 -153t0 -175.5t-89.5 -153z" />
    <glyph glyph-name="uniE630" unicode="&#xe630;" 
d="M913 701h-89v-112q0 -27 -19.5 -46.5t-47.5 -19.5q-18 0 -33.5 8.5t-24.5 24t-9 33.5v112h-356v-112q0 -27 -19.5 -46.5t-47.5 -19.5t-47.5 19.5t-19.5 46.5v112h-89q-18 0 -31 -13t-13 -32v-255v-12v-545q0 -15 7 -27.5t20 -20t27 -7.5h782q34 0 49 31q5 12 5 24v545v12
v255q0 12 -6 22.5t-16 16.5t-22 6zM935 -156q0 -14 -9.5 -23.5t-22.5 -9.5h-782q-13 0 -22.5 9.5t-9.5 23.5v545h846v-545zM267.5 545q18.5 0 31.5 13t13 31v178q0 19 -13 32t-32 13q-12 0 -22 -6t-16 -16t-6 -23v-178q0 -18 13 -31t31.5 -13zM756.5 545q18.5 0 31.5 13
t13 31v178q0 19 -13 32t-31.5 13t-31.5 -13t-13 -32v-178q0 -18 13 -31t31.5 -13zM156 322h89v-67h-89v67zM156 211h89v-67h-89v67zM156 100h89v-67h-89v67zM156 -12h89v-66h-89v66zM312 322h89v-67h-89v67zM312 211h89v-67h-89v67zM312 100h89v-67h-89v67zM312 -12h89v-66
h-89v66zM467 322h90v-67h-90v67zM467 211h90v-67h-90v67zM467 100h90v-67h-90v67zM467 -12h90v-66h-90v66zM623 322h89v-67h-89v67zM623 211h89v-67h-89v67zM623 100h89v-67h-89v67zM623 -12h89v-66h-89v66zM779 322h89v-67h-89v67zM779 211h89v-67h-89v67zM779 100h89v-67
h-89v67zM779 -12h89v-66h-89v66z" />
    <glyph glyph-name="uniE631" unicode="&#xe631;" 
d="M839 633h-654q-33 0 -61 -16t-44 -44t-16 -60v-425q0 -50 35.5 -85.5t85.5 -35.5h654q32 0 60 16.5t44 44t16 60.5v425q0 32 -16 60t-44 44t-60 16zM185 571h654q24 0 41 -17q6 -7 10 -14q-2 -1 -4 -3l-367 -256l-7 -6l-8 6l-367 256q-1 2 -4 3q2 2 3.5 4.5t3.5 4.5t4 5
q4 4 8.5 7t10 5t11 3.5t11.5 1.5zM880 47q-17 -17 -41 -17h-654q-24 0 -41 17q-9 8 -13 18.5t-4 22.5v386l367 -257h1v-1h1q3 -2 7 -3.5t8 -1.5h1h1q8 0 15 5h1v1v0l368 257v-386q0 -8 -2 -15t-6 -14t-9 -12z" />
    <glyph glyph-name="uniE632" unicode="&#xe632;" 
d="M319 -160q-17 0 -28.5 11.5t-11.5 28.5t12 29l371 371l2 4q1 2 1 4t-1 4l-2 4l-371 371q-12 12 -12 29t11.5 28.5t28.5 11.5t29 -12l371 -371q27 -27 27 -65t-27 -65l-371 -371q-12 -12 -29 -12z" />
    <glyph glyph-name="uniE633" unicode="&#xe633;" 
d="M16 812v-1024v1024zM32 812v-1024v1024zM48 812v-1024v1024zM64 812v-1024v1024zM80 812v-1024v1024zM96 812v-1024v1024zM112 812v-1024v1024zM128 812v-1024v1024zM144 812v-1024v1024zM160 812v-1024v1024zM176 812v-1024v1024zM192 812v-1024v1024zM208 812v-1024
v1024zM224 812v-1024v1024zM240 812v-1024v1024zM256 812v-1024v1024zM272 812v-1024v1024zM288 812v-1024v1024zM304 812v-1024v1024zM320 812v-1024v1024zM336 812v-1024v1024zM352 812v-1024v1024zM368 812v-1024v1024zM384 812v-1024v1024zM400 812v-1024v1024zM416 812
v-1024v1024zM432 812v-1024v1024zM448 812v-1024v1024zM464 812v-1024v1024zM480 812v-1024v1024zM496 812v-1024v1024zM512 812v-1024v1024zM528 812v-1024v1024zM544 812v-1024v1024zM560 812v-1024v1024zM576 812v-1024v1024zM592 812v-1024v1024zM608 812v-1024v1024z
M624 812v-1024v1024zM640 812v-1024v1024zM656 812v-1024v1024zM672 812v-1024v1024zM688 812v-1024v1024zM704 812v-1024v1024zM720 812v-1024v1024zM736 812v-1024v1024zM752 812v-1024v1024zM768 812v-1024v1024zM784 812v-1024v1024zM800 812v-1024v1024zM816 812v-1024
v1024zM832 812v-1024v1024zM848 812v-1024v1024zM864 812v-1024v1024zM880 812v-1024v1024zM896 812v-1024v1024zM912 812v-1024v1024zM928 812v-1024v1024zM944 812v-1024v1024zM960 812v-1024v1024zM976 812v-1024v1024zM992 812v-1024v1024zM1008 812v-1024v1024zM0 796
h1024h-1024zM0 780h1024h-1024zM0 764h1024h-1024zM0 748h1024h-1024zM0 732h1024h-1024zM0 716h1024h-1024zM0 700h1024h-1024zM0 684h1024h-1024zM0 668h1024h-1024zM0 652h1024h-1024zM0 636h1024h-1024zM0 620h1024h-1024zM0 604h1024h-1024zM0 588h1024h-1024zM0 572
h1024h-1024zM0 556h1024h-1024zM0 540h1024h-1024zM0 524h1024h-1024zM0 508h1024h-1024zM0 492h1024h-1024zM0 476h1024h-1024zM0 460h1024h-1024zM0 444h1024h-1024zM0 428h1024h-1024zM0 412h1024h-1024zM0 396h1024h-1024zM0 380h1024h-1024zM0 364h1024h-1024zM0 348
h1024h-1024zM0 332h1024h-1024zM0 316h1024h-1024zM0 300h1024h-1024zM0 284h1024h-1024zM0 268h1024h-1024zM0 252h1024h-1024zM0 236h1024h-1024zM0 220h1024h-1024zM0 204h1024h-1024zM0 188h1024h-1024zM0 172h1024h-1024zM0 156h1024h-1024zM0 140h1024h-1024zM0 124
h1024h-1024zM0 108h1024h-1024zM0 92h1024h-1024zM0 76h1024h-1024zM0 60h1024h-1024zM0 44h1024h-1024zM0 28h1024h-1024zM0 12h1024h-1024zM0 -4h1024h-1024zM0 -20h1024h-1024zM0 -36h1024h-1024zM0 -52h1024h-1024zM0 -68h1024h-1024zM0 -84h1024h-1024zM0 -100h1024
h-1024zM0 -116h1024h-1024zM0 -132h1024h-1024zM0 -148h1024h-1024zM0 -164h1024h-1024zM0 -180h1024h-1024zM0 -196h1024h-1024zM512 684q78 0 148.5 -29.5t123.5 -82.5q35 -35 60 -77.5t38.5 -92.5t13.5 -102q0 -78 -29.5 -148.5t-82.5 -123.5t-123.5 -82.5t-148.5 -29.5
t-148.5 29.5t-123.5 82.5t-82.5 123.5t-29.5 148.5t29.5 148.5t82.5 123.5q18 17 37.5 32t40.5 27.5t44.5 22.5t47.5 16.5t50 10t52 3.5v0zM154 300q0 -73 27.5 -138.5t77 -115t115 -77t138.5 -27.5t138.5 27.5t114.5 77.5q33 32 56.5 72t36 86t12.5 95q0 73 -27.5 138.5
t-77 115t-115 77t-138.5 27.5t-138.5 -27.5t-115 -77t-77 -115t-27.5 -138.5zM520 477q10 9 0 18q-3 4 -8.5 4t-9.5 -4l-183 -184q-1 -1 -2 -3t-1 -4v-4q0 -2 1 -4t3 -3q4 -4 9 -4l365 5q2 0 4.5 1t4.5 2.5t3 4t1 5.5q0 5 -4 9t-9 4l-334 -5zM338 312q-3 2 -6.5 3t-6.5 0
t-5.5 -4t-3.5 -6t0 -6.5t4 -5.5l186 -176q2 -2 5.5 -3t7 0t5.5 4q9 9 -1 18z" />
    <glyph glyph-name="uniE634" unicode="&#xe634;" 
d="M16 812v-1024v1024zM32 812v-1024v1024zM48 812v-1024v1024zM64 812v-1024v1024zM80 812v-1024v1024zM96 812v-1024v1024zM112 812v-1024v1024zM128 812v-1024v1024zM144 812v-1024v1024zM160 812v-1024v1024zM176 812v-1024v1024zM192 812v-1024v1024zM208 812v-1024
v1024zM224 812v-1024v1024zM240 812v-1024v1024zM256 812v-1024v1024zM272 812v-1024v1024zM288 812v-1024v1024zM304 812v-1024v1024zM320 812v-1024v1024zM336 812v-1024v1024zM352 812v-1024v1024zM368 812v-1024v1024zM384 812v-1024v1024zM400 812v-1024v1024zM416 812
v-1024v1024zM432 812v-1024v1024zM448 812v-1024v1024zM464 812v-1024v1024zM480 812v-1024v1024zM496 812v-1024v1024zM512 812v-1024v1024zM528 812v-1024v1024zM544 812v-1024v1024zM560 812v-1024v1024zM576 812v-1024v1024zM592 812v-1024v1024zM608 812v-1024v1024z
M624 812v-1024v1024zM640 812v-1024v1024zM656 812v-1024v1024zM672 812v-1024v1024zM688 812v-1024v1024zM704 812v-1024v1024zM720 812v-1024v1024zM736 812v-1024v1024zM752 812v-1024v1024zM768 812v-1024v1024zM784 812v-1024v1024zM800 812v-1024v1024zM816 812v-1024
v1024zM832 812v-1024v1024zM848 812v-1024v1024zM864 812v-1024v1024zM880 812v-1024v1024zM896 812v-1024v1024zM912 812v-1024v1024zM928 812v-1024v1024zM944 812v-1024v1024zM960 812v-1024v1024zM976 812v-1024v1024zM992 812v-1024v1024zM1008 812v-1024v1024zM0 796
h1024h-1024zM0 780h1024h-1024zM0 764h1024h-1024zM0 748h1024h-1024zM0 732h1024h-1024zM0 716h1024h-1024zM0 700h1024h-1024zM0 684h1024h-1024zM0 668h1024h-1024zM0 652h1024h-1024zM0 636h1024h-1024zM0 620h1024h-1024zM0 604h1024h-1024zM0 588h1024h-1024zM0 572
h1024h-1024zM0 556h1024h-1024zM0 540h1024h-1024zM0 524h1024h-1024zM0 508h1024h-1024zM0 492h1024h-1024zM0 476h1024h-1024zM0 460h1024h-1024zM0 444h1024h-1024zM0 428h1024h-1024zM0 412h1024h-1024zM0 396h1024h-1024zM0 380h1024h-1024zM0 364h1024h-1024zM0 348
h1024h-1024zM0 332h1024h-1024zM0 316h1024h-1024zM0 300h1024h-1024zM0 284h1024h-1024zM0 268h1024h-1024zM0 252h1024h-1024zM0 236h1024h-1024zM0 220h1024h-1024zM0 204h1024h-1024zM0 188h1024h-1024zM0 172h1024h-1024zM0 156h1024h-1024zM0 140h1024h-1024zM0 124
h1024h-1024zM0 108h1024h-1024zM0 92h1024h-1024zM0 76h1024h-1024zM0 60h1024h-1024zM0 44h1024h-1024zM0 28h1024h-1024zM0 12h1024h-1024zM0 -4h1024h-1024zM0 -20h1024h-1024zM0 -36h1024h-1024zM0 -52h1024h-1024zM0 -68h1024h-1024zM0 -84h1024h-1024zM0 -100h1024
h-1024zM0 -116h1024h-1024zM0 -132h1024h-1024zM0 -148h1024h-1024zM0 -164h1024h-1024zM0 -180h1024h-1024zM0 -196h1024h-1024zM512 684q78 0 148.5 -29.5t123.5 -82.5t82.5 -123.5t29.5 -148.5t-29.5 -148.5t-82.5 -123.5t-123.5 -82.5t-148.5 -29.5t-148.5 29.5
t-123.5 82.5t-82.5 123.5t-29.5 148.5t29.5 148.5t82.5 123.5t123.5 82.5t148.5 29.5v0zM765.5 553.5q-49.5 49.5 -115 77t-138.5 27.5t-138.5 -27.5t-114.5 -77.5q-25 -24 -44.5 -52.5t-33 -60.5t-20.5 -67.5t-7 -72.5q0 -73 27.5 -138.5t77 -115t115 -77t138.5 -27.5
q25 0 49 3t46.5 9.5t44 15.5t41.5 20.5t38 25.5t34 31q50 49 77.5 114.5t27.5 138.5t-27.5 138.5t-77 115zM504 477q-2 2 -3 4.5t-1 4.5t1 4.5t3 4.5q9 9 18 0l183 -184q2 -2 3 -5.5t0 -7t-4 -5.5q-4 -4 -9 -4l-365 5q-5 0 -9 4t-4 9t4 9t9 4l334 -4zM686 312q4 3 9.5 3
t9 -4t3.5 -9.5t-4 -8.5l-186 -176q-2 -2 -5.5 -3t-7 0t-5.5 4q-9 9 1 18z" />
    <glyph glyph-name="uniE635" unicode="&#xe635;" 
d="M512 709q-95 0 -181.5 -37t-149 -99.5t-99 -149t-36.5 -181t36.5 -181t99 -149t149 -99.5t181.5 -37q54 0 106.5 12t98.5 35.5t86.5 55t72.5 72t55 86.5t35 98.5t12 106.5q0 48 -9.5 94.5t-27 87.5t-43 79t-56.5 69.5t-69 57t-79.5 43t-87.5 27t-94 9.5zM512 -193
q-89 0 -169.5 34.5t-138.5 93t-92.5 139t-34.5 169t34.5 169t92.5 139t138.5 93t169.5 34.5t169.5 -34.5t138.5 -93t92.5 -139t34.5 -169t-34.5 -169t-92.5 -139t-138.5 -93t-169.5 -34.5zM462 370l-28 27l-136 -135v-37l136 -138l28 27l-109 109h373v39h-372z" />
    <glyph glyph-name="uniE636" unicode="&#xe636;" 
d="M918 -200h-809q-42 0 -72 29.5t-30 70.5v462h63l-2 -401q0 -40 39 -70.5t82 -30.5h648q44 0 83 30.5t39 70.5q0 4 -0.5 13t-0.5 36v56v66q0 40 -0.5 76.5t-0.5 77.5v76h62v-462q0 -27 -13.5 -50t-36.5 -36.5t-51 -13.5zM311 364h121h21h121h20h122h20h121h21v-444h-21
h-121h-20h-122h-20h-121h-21h-121h-20h-122h-20v444h20h122h20zM736 -59h121v120h-121v-120zM736 81h121v121h-121v-121zM736 222h121v121h-121v-121zM594 -59h122v120h-122v-120zM594 81h122v121h-122v-121zM594 222h122v121h-122v-121zM453 -59h121v120h-121v-120zM453 81
h121v121h-121v-121zM453 222h121v121h-121v-121zM311 -59h121v120h-121v-120zM311 81h121v121h-121v-121zM311 222h121v121h-121v-121zM169 -59h122v120h-122v-120zM169 81h122v121h-122v-121zM169 222h122v121h-122v-121zM7 623q0 42 30 71.5t72 29.5h40v-201h162v201h405
v-201h162v201h40q42 0 71.5 -29.5t29.5 -71.5v-221h-1012v221zM736 744q0 16 8 30t22 22t31 8q25 0 42.5 -17.5t17.5 -42.5v-201h-121v201zM169 744q0 25 18 42.5t43 17.5t43 -17.5t18 -42.5v-201h-122v0v0v0v0v0v0v1v0v1v0v1v1v1v1v1v1v1v1v1v1v1v1v1v1v1v1v1v1v1v1v1v1v1
v1v1v1v1v1v1v1v1v1v1v1v1v2v1v1v1v1v1v1v1v1v2v1v1v1v1v2v1v1v1v2v1v1v1v2v1v1v2v1v1v2v1v1v2v1v1v2v1v2v1v2v1v1v2v1v2v1v2v1v2v1v2v1v2v1v2v1v2v1v2v2v1v2v1v2v1v2v2v1v2v2v1v2v2v1v2v2v1v2v2v1v2v2v1v2v2v2v1v2v2v2v1v2v2v2v2v1v2v2v2v2v1v2v2v2v9z" />
    <glyph glyph-name="uniE637" unicode="&#xe637;" 
d="M388 68q-96 0 -178.5 47.5t-130 129.5t-47.5 178.5t47.5 179t130 130t178.5 47.5q72 0 138 -28t114 -76t76 -114t28 -138q0 -143 -99 -246q-98 -102 -238 -110h-19zM388 744q-87 0 -160.5 -43t-116.5 -116.5t-43 -160.5t43 -160.5t116.5 -116.5t160.5 -43t160.5 43
t116.5 116.5t43 160.5q0 37 -8.5 73t-24.5 67.5t-37.5 59t-49.5 49.5t-59.5 38t-67.5 24.5t-73 8.5zM145 406q-4 0 -7.5 1t-6 3.5t-4 6t-1.5 7.5q0 108 77 185t185 77q8 0 13 -5.5t5 -13t-5 -13t-13 -5.5q-93 0 -159 -66t-66 -159q-3 -16 -18 -18zM974 -180q-4 0 -7.5 1.5
t-5.5 3.5l-348 348q-3 3 -4.5 8t0 9.5t4.5 8.5q6 5 13.5 5t12.5 -5l348 -348q2 -2 3 -4.5t1.5 -5.5t0 -5.5t-1.5 -5.5t-3 -5q-6 -5 -13 -5z" />
    <glyph glyph-name="uniE638" unicode="&#xe638;" 
d="M548 393l128 127l-100 100h256v-256l-100 100l-127 -128zM548 207l128 -127l-100 -100h256v256l-100 -100l-127 128zM476 207l-128 -127l100 -100h-256v256l100 -100l127 128zM476 393l-128 127l100 100h-256v-256l100 100l127 -128z" />
    <glyph glyph-name="uniE639" unicode="&#xe639;" 
d="M919 -135q-3 -2 -6.5 -4t-6.5 -2.5t-6.5 0t-7 2.5t-5.5 4l-234 255q-91 -78 -210 -78q-87 0 -161 43t-117 117t-43 161.5t43 161.5t117 117t161 43q53 0 102 -16t88.5 -46t69 -69.5t46 -88.5t16.5 -101q0 -62 -25 -122l-2 -5q0 -1 -1 -2.5t-1 -2.5l-2 -4q0 -1 -1 -2l-3 3
q-6 -3 -11 -3q-10 0 -16.5 6.5t-6.5 15.5v2q0 3 1 6t3 6l-1 1q19 49 19 101q0 75 -36.5 138.5t-100 100.5t-138.5 37t-138.5 -37t-100.5 -100.5t-37 -138.5q0 -45 14 -87t39.5 -76t59.5 -59.5t76 -39.5t87 -14q52 0 99.5 19t84.5 53l49 12l13 -16q-1 0 -2 -2l-2 -2l75 -82
l28 -33l1 1l130 -141q6 -6 6 -15.5t-6 -16.5z" />
    <glyph glyph-name="uniE63A" unicode="&#xe63a;" 
d="M519 734q-89 0 -169.5 -34.5t-139 -93t-93 -139t-34.5 -169t34.5 -169.5t93 -139t139 -92.5t169 -34.5t169.5 34.5t139 92.5t92.5 139t34.5 169q0 51 -11.5 100t-33 92t-51 80.5t-67.5 67.5t-80.5 51.5t-91.5 33t-100 11.5zM519 -50q-95 0 -175 46.5t-126.5 127
t-46.5 175t46.5 174.5t126.5 127t175 47q71 0 135.5 -28t111 -74.5t74 -111t27.5 -135.5q0 -141 -98 -242q-97 -100 -236 -106h-14zM701 347l-123 123q-4 4 -10 5.5t-11.5 0t-9.5 -5.5l-31 -31q-6 -6 -6 -15t6 -16l63 -62q-2 0 -7.5 -0.5t-9.5 -0.5q-15 0 -49 -3h-168
q-7 0 -14 -2.5t-12 -6.5t-9 -9t-6.5 -12t-2.5 -14q0 -12 6 -22t16 -15.5t22 -5.5h232l-61 -61q-6 -7 -6 -15.5t6 -15.5l31 -30q6 -7 15 -7t16 7l123 122l31 31q4 4 5.5 9.5t0 11t-5.5 9.5z" />
    <glyph glyph-name="uniE63B" unicode="&#xe63b;" 
d="M826 -147h-134q-56 0 -95 39t-39 94v134q0 56 39 95t95 39h134q55 0 94 -39t39 -95v-134q0 -55 -39 -94t-94 -39zM919 107q0 22 -8.5 41.5t-22.5 34t-34 23t-42 8.5h-107q-12 0 -24 -3t-22.5 -8t-20 -12.5t-17 -17t-12.5 -20t-8 -22.5t-3 -24v-107q0 -45 31.5 -76
t75.5 -31h107q29 0 54 14t39 39t14 54v107zM826 346h-134q-56 0 -95 39t-39 95v134q0 36 18 67t49 48.5t67 17.5h134q36 0 67 -17.5t48.5 -48.5t17.5 -67v-134q0 -56 -39 -95t-94 -39zM919 601q0 44 -31 75.5t-76 31.5h-107q-44 0 -75.5 -31.5t-31.5 -75.5v-107
q0 -29 14.5 -54t39 -39t53.5 -14h107q45 0 76 31t31 76v107zM332 -147h-134q-36 0 -67 17.5t-48.5 48.5t-17.5 67v134q0 56 39 95t94 39h134q56 0 95 -39t39 -95v-134q0 -27 -10.5 -51.5t-28.5 -42.5t-43 -28.5t-52 -10.5zM421 107q0 44 -31.5 75.5t-75.5 31.5h-107
q-45 0 -76 -31.5t-31 -75.5v-107q0 -45 31 -76t76 -31h107q29 0 53.5 14t39 39t14.5 54v107zM332 346h-134q-55 0 -94 39t-39 95v134q0 55 39 94t94 39h134q22 0 42.5 -6.5t37 -19t28.5 -29t19 -37t7 -41.5v-134q0 -56 -39 -95t-95 -39zM421 601q0 44 -31.5 75.5t-75.5 31.5
h-107q-45 0 -76 -31.5t-31 -75.5v-107q0 -45 31 -76t76 -31h107q21 0 41 8.5t34.5 22.5t23 34t8.5 42v107z" />
    <glyph glyph-name="uniE63C" unicode="&#xe63c;" 
d="M512 698q111 0 205.5 -55t149.5 -149.5t55 -205.5t-55 -205.5t-149.5 -149.5t-205.5 -55t-205.5 55t-149.5 149.5t-55 205.5q0 83 32.5 159t87.5 131t131 87.5t159 32.5zM512 738q-186 0 -318 -132t-132 -318t132 -318t318 -132t318 132t132 318t-132 318t-318 132z
M285 194q-11 1 -17 10q-1 2 -2 4.5t-1 5t0.5 5t1.5 5t3 4.5t4 3l227 147q11 7 22 0l227 -147q5 -3 7 -7.5t2 -10t-3 -9.5q-5 -7 -13 -9t-15 3l-216 140l-216 -140q-5 -4 -11 -4z" />
    <glyph glyph-name="uniE63D" unicode="&#xe63d;" 
d="M723 -159l-460 447l460 448l36 -35l-425 -413l425 -413zM723 -159z" />
    <glyph glyph-name="uniE63E" unicode="&#xe63e;" 
d="M411 230l-354 -354l19 184q0 16 -19 25q-16 0 -25 -19l-26 -240q0 -13 7 -19q6 -6 12 -6l247 31q19 0 19 26q0 18 -26 18l-183 -18l354 354h2q11 1 7 10q-4 5 -9 8q-5 5 -12.5 5t-12.5 -5zM88 761l184 -19q16 0 25 19q0 10 -4.5 15.5t-14.5 10.5l-246 25
q-13 0 -19.5 -6.5t-6.5 -18.5l32 -247q0 -8 6.5 -13.5t12.5 -5.5q9 0 14 7.5t5 18.5l-19 189l354 -354q6 -6 13 -6q12 0 12 6q10 5 10 13.5t-10 18.5zM967 91q-19 0 -19 -25l19 -183l-354 347q-10 11 -31 0q-17 -8 6 -31l354 -354l-183 19q-16 0 -26 -19q0 -16 19 -25
l247 -32q12 0 12 6q5 5 6 9t1 10l-32 247q0 17 -6 24t-13 7zM600 376q13 0 13 6l354 354l-19 -183q0 -9 4.5 -14.5t14.5 -10.5q19 0 19 19l32 240q0 3 -0.5 4.5t-1 4.5t-1.5 5t-4 5q-4 4 -8 5t-11 1l-246 -32q-19 0 -19 -25q0 -19 25 -19l184 19l-348 -341q-6 -6 -8.5 -12.5
t0 -11.5t8.5 -8q0 -4 3 -5t9 -1zM600 376z" />
    <glyph glyph-name="uniE63F" unicode="&#xe63f;" 
d="M1022.5 788.5q-1.5 1.5 -3.5 1.5h-275q-3 -1 -5 -4q-1 -3 1 -6l115 -112l-310 -266l-211 178l-334 -274v-119l334 275l211 -179l375 322l95 -93q2 -3 5.5 -1.5t3.5 5.5v268q0 3 -1.5 4.5zM0 -190h156v391l-156 -128v-263zM267 293v-483h156v462l-89 76zM534 178v-368h156
v483l-145 -124zM801 389v-579h156v644l-37 36z" />
    <glyph glyph-name="uniE640" unicode="&#xe640;" 
d="M730 300q0 13 -13 26l-403 409q-10 10 -26 10t-25.5 -9.5t-9.5 -25.5t9 -26l384 -390l-384 -391q-9 -9 -9 -25t9.5 -26t25.5 -10t26 10l403 410q13 19 13 38z" />
    <glyph glyph-name="uniE641" unicode="&#xe641;" 
d="M540 272h392q6 0 11 2t9 6t6 9t2 11q0 12 -8 20t-20 8h-392h-56h-392q-12 0 -20 -8t-8 -20t8 -20t20 -8h392h56z" />
    <glyph glyph-name="uniE642" unicode="&#xe642;" 
d="M512 544l-448 -512h896z" />
    <glyph glyph-name="uniE643" unicode="&#xe643;" 
d="M955 500q-1 58 -28 107t-73.5 79.5t-104.5 37.5q-68 7 -132 -23t-103 -87q-32 52 -91 80.5t-126 30.5q-47 1 -88.5 -16.5t-71.5 -47.5t-48 -71t-21 -88q-4 -48 12 -99.5t49 -102.5t60.5 -86t67.5 -81q73 -82 154 -147q1 -1 13 -10t15 -11.5t13.5 -10t16.5 -10.5t15 -7
t17 -6q5 -2 11 -2t12 2q6 1 13 3.5t14 6.5t12 7t13 8.5t11.5 8t12 9t10.5 8.5q74 56 149 137q199 214 196 381zM901 471q-4 -44 -21.5 -89t-46.5 -87.5t-55.5 -75t-62.5 -70.5q-57 -62 -124 -116q-16 -13 -26.5 -21t-27.5 -19t-25 -11q1 0 -3 2t-10.5 5t-8.5 5
q-19 12 -47 34q-60 48 -128 119q-75 80 -125.5 157t-66.5 159q-14 69 26 130t109 76q45 10 92.5 -1.5t85.5 -43.5t50 -77q5 -20 24.5 -19t25.5 19q2 5 7 13.5t11.5 18t14 19t13.5 15.5q34 36 82.5 50t100.5 6q45 -7 78 -38t47.5 -73t10.5 -87z" />
    <glyph glyph-name="uniE644" unicode="&#xe644;" 
d="M371 693q-92 0 -170.5 -38.5t-124.5 -105.5t-46 -147q0 -135 137 -230l-35 -102l120 59q86 -17 119 -17q8 0 16 0.5t16 1.5q-10 36 -10 71q0 112 84 191t206 79q14 0 32 -2q-14 68 -64 123t-123.5 86t-156.5 31zM260 462q-20 0 -35.5 12t-15.5 30.5t15.5 30.5t35.5 12
t31.5 -11.5t11.5 -30.5t-11.5 -31t-31.5 -12zM499 462q-20 0 -35.5 12t-15.5 30.5t15.5 30.5t35.5 12q19 0 31 -11.5t12 -30.5q0 -8 -2 -14.5t-6 -11.5t-9 -9t-11.5 -6t-14.5 -2zM994 189q0 67 -40.5 124t-107 90.5t-142.5 33.5q-121 0 -205.5 -72.5t-84.5 -175.5
q0 -67 38.5 -124t105 -90t146.5 -33q34 0 103 17l93 -52l-26 86q120 89 120 196zM610 232q-13 0 -23.5 10.5t-10.5 23.5q0 6 3 12.5t7.5 11t11 7.5t12.5 3q19 0 31 -10.5t12 -23.5q0 -7 -3 -13t-8.5 -10.5t-14 -7.5t-17.5 -3zM798 232q-13 0 -23.5 10.5t-10.5 23.5q0 8 5 16
t13 13t16 5q6 0 12 -1.5t10.5 -3.5t8.5 -5.5t6.5 -7t3.5 -8t1 -8.5q0 -22 -24 -31q-9 -3 -18 -3z" />
    <glyph glyph-name="uniE645" unicode="&#xe645;" 
d="M904 10l-75 132v277q0 28 -6.5 57.5t-20 58t-32.5 55.5q-60 83 -153 118h-1q-6 2 -14 4v10q0 37 -26.5 63.5t-63.5 26.5t-63.5 -26.5t-26.5 -63.5v-9q-8 -2 -12 -4h-1q-46 -16 -86 -46.5t-70 -71.5q-60 -82 -60 -172v-277l-80 -141q-16 -27 0 -55q7 -13 20 -20t28 -7h198
q9 -56 52.5 -93.5t100.5 -37.5t100.5 37.5t52.5 93.5h198q23 0 39 16t16 39q0 21 -14 36zM512 765q17 0 29.5 -12t13.5 -29q-8 1 -14 2q-4 1 -7 0h-1l-1 1q-4 0 -6.5 0.5t-6.5 1t-8 0.5q-7 0 -20 -2q-2 0 -2 -1h-7q-6 -1 -13 -2q1 17 13.5 29t29.5 12zM512 -165
q-19 0 -36.5 6.5t-31 17.5t-23.5 26.5t-14 33.5h210q-9 -36 -38 -60t-67 -24zM863 -34h-702q-5 0 -7 4q-1 2 -1 4t1 4l84 147l3 11v283q0 50 24 100t66 88.5t94 57.5q29 9 57 14h3h2h4q2 0 3.5 0.5t3.5 0.5q9 1 13 1t14 -1q6 -1 10 -1q2 -1 5 0q12 -2 27.5 -6t22 -6t11.5 -4
q78 -29 129.5 -99t51.5 -145v-283v-4l2 -4q0 -2 1 -3l80 -141q1 -3 4 -5q2 -2 2 -5q-2 -7 -8 -8z" />
    <glyph glyph-name="uniE646" unicode="&#xe646;" 
d="M181 -71l182 65q38 -12 67 17l485 511q8 7 12.5 16.5t6 19.5t0 20t-6 19.5t-12.5 17.5l-130 130q-19 19 -46 19.5t-47 -18.5l-515 -482l-1 -1q-28 -28 -16 -66l-64 -184q-8 -25 10 -43l31 -31q19 -19 44 -10zM738 674l106 -106l-462 -485l-134 133zM223 123l67 -66
l-102 -36zM107 -90h826v-71h-826v71z" />
    <glyph glyph-name="uniE647" unicode="&#xe647;" 
d="M332 311q-6 -6 -6 -14.5t6 -14.5l345 -345q2 -3 5 -4.5t6 -2t6 0t6 2t6 4.5q6 5 6 13.5t-6 14.5l-331 331l331 332q6 6 6 14.5t-6 14.5q-3 2 -7 3.5t-8 1.5t-7.5 -1.5t-6.5 -3.5z" />
    <glyph glyph-name="uniE648" unicode="&#xe648;" 
d="M800 -148h-576q-40 0 -68 28t-28 68v640q0 40 28 68t68 28h448q13 0 22.5 -9.5t9.5 -22.5t-9.5 -22.5t-22.5 -9.5h-448q-13 0 -22.5 -9.5t-9.5 -22.5v-640q0 -13 9.5 -22.5t22.5 -9.5h576q13 0 22.5 9.5t9.5 22.5v512q0 13 9.5 22.5t22.5 9.5t22.5 -9.5t9.5 -22.5v-512
q0 -40 -28 -68t-68 -28zM512 269q-14 1 -23 10t-9 22.5t9 22.5l418 414q10 9 23 9t22.5 -9.5t9.5 -22.5t-10 -23l-418 -413q-4 -5 -10 -7.5t-12 -2.5z" />
    <glyph glyph-name="uniE649" unicode="&#xe649;" 
d="M511 -19l-8 4q-9 5 -21.5 12.5t-43.5 27t-61 43t-67.5 54.5t-68.5 67t-57.5 75.5t-41.5 85.5t-15 91q0 87 57.5 144.5t143.5 57.5q60 0 109.5 -32.5t73.5 -85.5q25 53 74.5 85.5t109.5 32.5q42 0 79.5 -15.5t64 -42t42 -64t15.5 -80.5q0 -51 -20.5 -104t-51 -95
t-72.5 -83.5t-77 -69.5t-74 -54t-55 -35t-26 -15zM328 606q-72 0 -118.5 -46.5t-46.5 -118.5q0 -43 17 -87.5t42.5 -81.5t61 -74t67.5 -63.5t68 -52t55.5 -38t36.5 -21.5q17 9 37 21.5t56 38t68 52t67.5 63.5t61 74t42 81.5t16.5 87.5q0 48 -21 85.5t-58.5 58.5t-84.5 21
q-69 0 -117 -48t-48 -117h-37q0 69 -48.5 117t-116.5 48z" />
    <glyph glyph-name="uniE64A" unicode="&#xe64a;" 
d="M779 300l-510 508l-27 -27l483 -481l-483 -482l27 -26z" />
    <glyph glyph-name="uniE64B" unicode="&#xe64b;" 
d="M517 -108l16 15q24 23 84 81t149.5 147t115.5 119q25 29 44 71.5t28.5 92.5t-5.5 102.5t-57 91.5q-74 68 -160 65q-30 -1 -60.5 -11t-51 -21.5t-40.5 -27t-26.5 -21.5t-10.5 -11l-230 -229l32 -32l230 230q7 8 19 19t44 30t64.5 26.5t76.5 -3t83 -47.5q34 -31 45.5 -74.5
t3 -85t-25 -77t-37.5 -59.5q-52 -61 -331 -329q-279 276 -332 332q-15 15 -28.5 33t-29 51t-20.5 65t6.5 73.5t44.5 78.5q18 22 40 36.5t46 22t51 8.5q47 1 91 -18.5t70 -47.5l33 30q-32 34 -83.5 58t-111.5 22q-101 -2 -170 -82q-40 -45 -54.5 -96t-5 -98.5t31.5 -89
t57 -77.5q31 -32 348 -348l16 -15v0zM517 -108z" />
    <glyph glyph-name="uniE64C" unicode="&#xe64c;" 
d="M382 806h-289q-37 0 -62.5 -26t-25.5 -62v-288q0 -36 25.5 -62t62.5 -26l289 -1q36 0 62 26t26 63v288q0 18 -7 34t-19 28t-28 19t-34 7zM381 386h-287q-9 0 -17.5 3.5t-14.5 9.5t-9.5 14t-3.5 17v288q0 12 6 22t16.5 16t22.5 6h287q19 0 32 -13t13 -31v-288
q0 -29 -27 -41q-9 -3 -18 -3zM935 806h-289q-36 0 -61.5 -26t-25.5 -62v-288q0 -36 25.5 -62t61.5 -26l289 -1q37 0 62.5 26t25.5 63v288q0 36 -25.5 62t-62.5 26zM935 386h-288q-18 0 -31 13t-13 31v288q0 18 13 31t31 13h288q18 0 31 -13t13 -31v-288q0 -12 -6 -22
t-16 -16t-22 -6zM382 253h-289q-37 -1 -62.5 -26.5t-25.5 -62.5v-288q0 -36 25.5 -61.5t62.5 -26.5h289q36 0 62 26t26 63v287q0 24 -12 44.5t-32 32.5t-44 12zM381 -168h-287q-19 0 -32 13t-13 32v287q0 19 13 32t32 13h287q19 0 32 -13t13 -32v-287q0 -30 -27 -41
q-9 -4 -18 -4zM935 253h-289q-36 -1 -61.5 -26.5t-25.5 -62.5v-288q0 -36 25.5 -61.5t61.5 -26.5h289q24 0 44.5 12t32 32.5t11.5 44.5v287q0 24 -11.5 44.5t-32 32.5t-44.5 12zM935 -168h-288q-12 0 -22 6t-16 16.5t-6 22.5v287q0 19 13 32t31 13h288q12 0 22 -6t16 -16.5
t6 -22.5v-287q0 -12 -6 -22.5t-16 -16.5t-22 -6z" />
    <glyph glyph-name="uniE64D" unicode="&#xe64d;" 
d="M1019 329q-96 120 -229 185t-278.5 65t-278 -65t-228.5 -184q-1 -2 -2 -3.5t-1.5 -3.5t-1 -3.5t-0.5 -3.5v-29q0 -4 1.5 -7.5t3.5 -6.5q96 -119 228.5 -184t278.5 -65q96 0 188.5 29t173.5 85.5t145 135.5q5 6 5 14v27q0 4 -1.5 7.5t-3.5 6.5zM979 296
q-22 -27 -46.5 -51.5t-51.5 -45.5t-55.5 -39t-58 -32.5t-61 -25.5t-63.5 -18.5t-65 -11.5t-66 -4q-134 0 -256 59.5t-211 167.5v13q89 108 211 167.5t255.5 59.5t256 -59.5t211.5 -168.5v-11zM512 473q-35 0 -66.5 -13.5t-54.5 -36.5t-36.5 -55t-13.5 -66q0 -47 23 -86.5
t62.5 -62.5t85.5 -23q39 0 74 17q8 4 11.5 12.5t-0.5 17t-13 11.5t-17 -1q-26 -12 -55 -12q-52 0 -89.5 37t-37.5 89.5t37.5 89.5t89.5 37q26 0 49.5 -10t40.5 -27t27 -40.5t10 -48.5q0 -9 -1.5 -18t-3.5 -17q-3 -9 1.5 -17t13.5 -10.5t17 1.5t11 13q2 8 3.5 16t2 15.5
t0.5 16.5q0 70 -50 120.5t-121 50.5zM431 333q0 -3 -1 -5t-1.5 -4t-1 -4.5t-1 -4.5t-0.5 -5v-4v-4q0 -3 1.5 -6t4 -4.5t5.5 -1.5q4 0 7.5 3.5t3.5 8.5q0 12 4 23q7 18 23.5 29.5t36.5 11.5q5 0 8 3t3 8q-1 9 -11 11q-27 0 -49 -15.5t-32 -39.5z" />
    <glyph glyph-name="uniE64E" unicode="&#xe64e;" 
d="M948.5 -136.5q-10.5 -10.5 -26 -10.5t-26.5 10l-233 234q-114 -96 -258 -96q-110 0 -203.5 54.5t-147.5 148t-54 203.5q0 82 32 157t86.5 129.5t129.5 86.5t157 32q110 0 203.5 -54t148 -147.5t54.5 -203.5q0 -144 -96 -258l234 -233q10 -11 10 -26.5t-10.5 -26zM737 407
q0 30 -5.5 59.5t-15.5 56t-24.5 51.5t-33 46.5t-39.5 40t-46 32.5t-52 24.5t-56.5 15.5t-59.5 5q-54 0 -104.5 -16.5t-91 -47.5t-71.5 -71.5t-47.5 -91t-16.5 -104.5q0 -90 44 -166.5t120.5 -121t166.5 -44.5q147 0 245 109q83 102 87 223zM553 370h-111v-111
q0 -15 -10.5 -26t-26 -11t-26.5 11t-11 26v111h-110q-6 0 -11.5 2t-10 5t-8 7.5t-5.5 10.5t-2 12q0 15 11 26t26 11h110v110q0 8 3 14.5t8 11.5t12 8t14 3q4 0 7 -0.5t6 -2.5l6 -2q3 -2 5 -4l5 -4q2 -3 3.5 -5.5t2.5 -5.5t1.5 -6.5t0.5 -6.5v-110h111q7 0 14 -3t12 -8t8 -12
t3 -14q0 -10 -5 -18.5t-13.5 -13.5t-18.5 -5z" />
    <glyph glyph-name="uniE64F" unicode="&#xe64f;" 
d="M887 790l53 -51q14 -13 22.5 -34t4.5 -49t-27 -51q-49 -48 -635 -635l-283 -118q-11 -4 -18 4t-2 18q2 7 31.5 74.5t58.5 132.5l28 65l636 639q30 27 68.5 27t62.5 -22zM43 -106l223 94l-128 125zM154 140l141 -137l469 469l-140 136zM645 630l140 -137l62 62l-140 137z
M728 714l142 -136l3 3l9 9l12 12l14 14l13 13q17 17 17.5 42t-20.5 47q-14 14 -48 47q-11 10 -28 14t-33.5 0.5t-27.5 -13.5zM728 714zM1001 -206h-978q-10 0 -16.5 7t-6.5 16t6.5 16t16.5 7h978q5 0 9 -2t7 -5t5 -7t2 -9q0 -4 -1 -7.5t-3 -5.5l-6 -6q-2 -2 -5.5 -3t-7.5 -1
z" />
    <glyph glyph-name="uniE650" unicode="&#xe650;" 
d="M880 641h-736q-33 0 -56 -23.5t-23 -55.5v-526q0 -33 23 -56t56 -23h736q33 0 56 23t23 56v526q0 32 -23 55.5t-56 23.5zM144 588h736q11 0 19 -7.5t8 -18.5v-144l-369 -171l-420 173v142q0 11 7.5 18.5t18.5 7.5zM880 10h-736q-11 0 -18.5 7.5t-7.5 18.5v330l394 -172
q36 1 53 0q15 0 342 170v-328q0 -11 -8 -18.5t-19 -7.5z" />
    <glyph glyph-name="uniE651" unicode="&#xe651;" 
d="M1014 -202q-8 -10 -22 -10h-288q-5 0 -10 1.5t-9 4.5t-7 7t-4.5 9t-1.5 10q0 9 4.5 16t11.5 11.5t16 4.5l210 -1l-345 345l45 45l346 -345v212q0 13 9.5 22.5t22.5 9.5t22.5 -9.5t9.5 -22.5v-287q0 -13 -10 -23zM992 460q-5 0 -10 1.5t-9 4.5t-7 7t-4.5 9t-1.5 10l1 210
l-345 -345l-45 45l345 346h-212q-5 0 -10 1.5t-9 4.5t-7 7t-4.5 9t-1.5 10q0 13 9.5 22.5t22.5 9.5h287q13 0 23 -10q10 -8 10 -22v-288q0 -13 -9.5 -22.5t-22.5 -9.5zM410 359l-346 345v-212q0 -13 -9.5 -22.5t-22.5 -9.5q-5 0 -10 1.5t-9 4.5t-7 7t-4.5 9t-1.5 10v287
q0 13 10 23q8 10 22 10h288q13 0 22.5 -9.5t9.5 -22.5q0 -9 -4.5 -16t-11.5 -11.5t-16 -4.5l-210 1l345 -345zM32 140q9 0 16 -4.5t11.5 -11.5t4.5 -16l-1 -210l345 345l45 -45l-345 -346h212q9 0 16 -4.5t11.5 -11.5t4.5 -16t-4.5 -16t-11.5 -11.5t-16 -4.5h-287
q-13 0 -23 10q-10 8 -10 22v288q0 9 4.5 16t11.5 11.5t16 4.5z" />
    <glyph glyph-name="uniE652" unicode="&#xe652;" horiz-adv-x="1036" 
d="M1031 317q-96 120 -229 185t-278.5 65t-278 -65t-228.5 -184q-2 -2 -3 -4.5t-1.5 -5t-0.5 -4.5v-29q0 -4 1 -7.5t4 -6.5q96 -119 228.5 -184t278 -65t278.5 65.5t229 184.5q5 6 5 14v27q0 8 -5 14zM991 284q-59 -72 -134 -123t-160 -78t-173 -27q-134 0 -256 59.5
t-212 167.5v13q90 108 212 167.5t255.5 59.5t256 -59.5t211.5 -167.5v-12zM524 461q-35 0 -66.5 -13.5t-54.5 -36.5t-37 -55t-14 -66q0 -47 23 -86.5t62.5 -62.5t86.5 -23q39 0 74 17q8 4 11 12.5t-1 17t-12.5 11.5t-16.5 -1q-26 -12 -55 -12q-53 0 -90 37t-37 89.5t37 89.5
t90 37q26 0 49 -10t40 -27t27.5 -40.5t10.5 -48.5q0 -18 -5 -35q-3 -9 1.5 -17t13.5 -10.5t17 1.5t10 13q2 5 3 9.5t1.5 9.5t1.5 9.5t1 9.5v10q0 70 -50 120.5t-121 50.5zM443 321q-3 -8 -4.5 -15.5t-1.5 -15.5q0 -3 1.5 -6t4.5 -4.5t6 -1.5q4 0 7.5 3.5t3.5 8.5q0 12 4 23
q7 18 23.5 29.5t36.5 11.5q4 0 7.5 3t3.5 8q-2 10 -11 11q-27 0 -49 -15.5t-32 -39.5z" />
    <glyph glyph-name="uniE653" unicode="&#xe653;" 
d="M775 686h-526q-50 0 -93 -24.5t-67.5 -67.5t-24.5 -93v-402q0 -77 54 -131t131 -54h526q77 0 131 54t54 131v402q0 87 -67 143q-52 42 -118 42zM775 640q35 0 65 -16l-331 -332l-329 329q32 19 69 19h526zM914 99q0 -38 -18.5 -70t-50.5 -50.5t-70 -18.5h-526
q-57 0 -98 40.5t-41 98.5v402q0 51 34 91l340 -341q11 -10 23 -11h1h1h1q6 0 12 3t11 8l344 344q37 -40 37 -94v-402z" />
    <glyph glyph-name="uniE654" unicode="&#xe654;" 
d="M629 612q3 -4 5 -9t2 -10t-2 -10q0 -1 -1 -3l-2 -2q-1 -2 -2 -3l-185 -203l185 -203q4 -4 5 -8q1 -1 1.5 -3t0.5 -4v-3q0 -5 -2 -9.5t-5 -8.5q-9 -7 -19 -8q-1 0 -3 0.5t-3.5 1t-2.5 0.5q-3 1 -5 2.5t-4 3.5l-201 221q-2 2 -5 8q-2 6 -2 10q0 6 2 10t5 9l201 221q3 2 9 5
l9 2q11 0 19 -7v0z" />
    <glyph glyph-name="uniE655" unicode="&#xe655;" horiz-adv-x="1027" 
d="M515 235l-515 577h1027zM515 235z" />
    <glyph glyph-name="uniE656" unicode="&#xe656;" 
d="M512 50q-19 0 -38 20l-448 448q-8 5 -12.5 13t-6 16.5t0 17t6 16.5t12.5 13q19 15 40.5 15t35.5 -15l410 -409l410 409q4 5 10.5 8.5t13.5 5t14 1.5t14 -1.5t13.5 -5t10.5 -8.5q6 -5 9.5 -13t4.5 -16.5t0 -17t-4.5 -16.5t-9.5 -13l-448 -448q-19 -20 -38 -20z" />
    <glyph glyph-name="uniE657" unicode="&#xe657;" 
d="M830 627q-15 14 -46 42.5t-46 42.5q-1 1 -9 9.5t-11.5 10.5t-12 5.5t-17.5 3.5q-2 -1 -6.5 -1.5t-6.5 -1.5l-4 -2q-2 -1 -4 -2.5t-4 -2.5q-61 -57 -79 -74q28 -26 60 -56t58 -54t61 -56q7 6 15.5 14t15 14.5t15.5 14.5t16 14q1 2 5.5 6t7 6t5.5 5.5t5 7.5t3 9v4v5
q0 17 -19 34q-1 2 -2 2zM810 590q-8 -7 -24 -21.5t-23 -22.5q-21 20 -61 57t-59 54q8 8 24 22.5t23 21.5q46 -42 120 -111zM693 491q-17 16 -59 55q-7 6 -28 26t-32 30l-6 6l-6 6q-3 3 -8 5t-10 2q-2 -1 -5 -1.5t-5 -1.5t-3.5 -2t-3.5 -3.5t-2.5 -3t-2.5 -3.5l-1 -1l-1 -1
l-1 -1l-1 -1l-1 -1l-1 -1l-1 -1l-1 -1l-1 -1l-1 -1l-1 -1l-1 -1l-1 -1l-1 -1l-1 -1l-1 -1q-14 -13 -42 -41q-33 -33 -137.5 -137t-137.5 -137v-109v-8v-9v-7q0 -5 1 -8t2.5 -6t4 -5t6 -3t7 -1.5t8.5 -1t8.5 0t9.5 0.5h9h113q30 28 88.5 83t116.5 110.5t88 83.5
q9 8 25.5 23.5t25.5 22.5l3 3q3 2 4.5 3.5t3.5 4.5t2.5 6t0.5 6q-1 4 -2.5 7t-4.5 6l-5 5q-2 2 -5.5 5t-5.5 4zM337 157h-105v99q233 236 311 315l2 2q46 -43 119 -111q-41 -38 -163 -152.5t-164 -152.5zM208 79h503h81q31 0 35.5 -3t7.5 -8t2 -11q0 -4 -1 -6.5t-3 -4
t-3.5 -3t-4.5 -2.5t-5 -1t-6 -0.5t-6 -0.5h-7h-8h-244h-212h-90h-29h-4h-5q-2 0 -4 1q-9 2 -13.5 10.5t0.5 18.5q3 5 16 10z" />
    <glyph glyph-name="uniE658" unicode="&#xe658;" 
d="M512 769q-78 0 -149 -30.5t-122.5 -82t-82 -123t-30.5 -149.5q0 -104 51.5 -192.5t140 -140t193 -51.5t193 51.5t140 140t51.5 193t-51.5 193t-140 140t-193.5 51.5zM688 276q11 -11 0 -21l-46 -47q-5 -4 -11 -4t-10 4l-109 108l-108 -108q-2 -2 -5 -3t-6 -1t-5.5 1
t-4.5 3l-47 47q-11 10 0 21l108 108l-108 109q-11 10 0 21l47 46q10 11 21 0l108 -108l109 108q4 5 10 5t11 -5l46 -46q11 -11 0 -21l-108 -109zM688 276z" />
    <glyph glyph-name="uniE659" unicode="&#xe659;" 
d="M6 152l506 507l506 -507l-28 -28l-478 477l-478 -477z" />
    <glyph glyph-name="uniE65A" unicode="&#xe65a;" 
d="M931 -128h-290q-37 0 -65 38t-28 79v265q0 39 27 66.5t66 27.5h290q38 0 65.5 -27.5t27.5 -66.5v-288q0 -26 -12.5 -47.5t-34 -34t-46.5 -12.5zM976 251q0 13 -6.5 24t-17.5 17.5t-24 6.5h-285q-20 0 -34 -14t-14 -34v-286q0 -7 2.5 -14.5t7 -13.5t10.5 -10t13 -6.5
t15 -2.5h285q13 0 24 6t17.5 17t6.5 24v286zM931 420h-290q-37 0 -65 38t-28 79v265q0 19 7 36t19.5 29.5t30 20t36.5 7.5h290q25 0 46.5 -12.5t34 -34t12.5 -46.5v-289q0 -8 -1.5 -16.5t-4.5 -16t-7 -14.5t-9 -13t-11 -11t-13 -9.5t-14.5 -7t-16 -4t-16.5 -1.5zM976 799
q0 19 -14 33t-34 14h-285q-13 0 -24 -6.5t-17.5 -17.5t-6.5 -23v-286q0 -6 1.5 -11t3.5 -10t5.5 -9t7.5 -7.5t9 -5.5t10 -3.5t11 -1.5h285q20 0 34 14t14 34v286zM383 -128h-290q-37 0 -65 38t-28 79v265q0 39 27.5 66.5t65.5 27.5h290q13 0 25 -3.5t22 -9.5t19 -14.5
t15 -19t9 -22.5t3 -25v-288q0 -39 -27 -66.5t-66 -27.5zM429 251q0 4 -1 8.5t-2.5 8t-3.5 7.5t-4.5 7t-6 5.5t-7 4.5t-7 3.5t-8 2.5t-8.5 1h-286q-13 0 -24 -6.5t-17 -17.5t-6 -24v-286q0 -6 1.5 -12t4.5 -11.5t7.5 -10t9.5 -7.5t11.5 -4.5t12.5 -1.5h286q20 0 34 14t14 33
v286zM383 420h-290q-37 0 -65 38t-28 79v265q0 39 27.5 66t65.5 27h290q25 0 46.5 -12.5t34 -34t12.5 -46.5v-289q0 -8 -1.5 -16.5t-4 -16t-6.5 -14.5t-9.5 -13t-11.5 -11t-13 -9.5t-14.5 -7t-15.5 -4t-17 -1.5zM429 799q0 19 -14 33t-34 14h-286q-8 0 -15 -2.5t-13 -6.5
t-10.5 -10t-6.5 -13.5t-2 -14.5v-286q0 -20 14 -34t33 -14h286q13 0 24 6.5t17.5 17.5t6.5 24v286z" />
    <glyph glyph-name="uniE65B" unicode="&#xe65b;" horiz-adv-x="1025" 
d="M1000 -79h-951v934q0 10 -7.5 17.5t-17.5 7.5t-17 -7.5t-7 -17.5v-958q0 -11 7 -18t17 -7h976q6 0 11.5 3.5t9 9t3.5 12t-3.5 12.5t-9 9t-11.5 3zM1011 746q-14 7 -26 -2l-307 -231l-282 75q-4 1 -7.5 1t-7 -1.5t-6.5 -4.5l-244 -200q-4 -4 -6.5 -9t-2.5 -11v-245
q0 -34 16.5 -62t44.5 -44.5t61 -16.5h658q51 0 86.5 36t35.5 87v606q0 7 -3.5 13t-9.5 9zM390 44h-146q-20 0 -37 10t-26.5 27t-9.5 37v234l219 181v-489zM683 44h-244v482l237 -63q1 -1 7 -1v-418zM975 118q0 -20 -9.5 -37t-26.5 -27t-37 -10h-171v448l244 183v-557z
M122 486q9 0 15 6l235 193l280 -75q5 -1 10.5 0t10.5 4l317 238q8 6 9.5 16t-4.5 18t-16 9.5t-18 -4.5l-308 -230l-281 74q-6 2 -11.5 0.5t-10.5 -4.5l-244 -201q-7 -6 -8 -16.5t5 -18.5q7 -9 19 -9z" />
    <glyph glyph-name="uniE65C" unicode="&#xe65c;" 
d="M390 426h-239q-34 0 -58 24t-24 58v239q0 22 11 41t29.5 30t41.5 11h239q34 0 58 -24t24 -58v-239q0 -34 -24 -58t-58 -24zM151 788q-5 0 -9 -1t-7.5 -2.5t-7 -4t-6 -5t-5 -6t-4 -7t-2 -7.5t-0.5 -8v-239q0 -17 12 -29t29 -12h239q17 0 29 12t12 29v239q0 17 -12 29
t-29 12h-239zM875 426h-239q-14 0 -26.5 4t-22.5 11.5t-17.5 17.5t-11.5 22.5t-4 26.5v239q0 34 24 58t58 24h239q16 0 31.5 -6.5t26.5 -17.5t17.5 -26.5t6.5 -31.5v-239q0 -34 -24 -58t-58 -24zM636 788q-17 0 -29 -12t-12 -29v-239q0 -17 12 -29t29 -12h239q17 0 29 12
t12 29v239q0 17 -12 29t-29 12h-239zM390 -58h-239q-23 0 -41.5 11t-29.5 29.5t-11 41.5v239q0 34 24 58t58 24h239q34 0 58 -24t24 -58v-239q0 -34 -24 -58t-58 -24zM151 304q-17 0 -29 -12t-12 -29v-239q0 -17 12 -29t29 -12h239q8 0 15.5 3t13 8.5t9 13t3.5 16.5v239
q0 8 -3.5 15.5t-9 13t-13 9t-15.5 3.5h-239zM875 -58h-239q-23 0 -41.5 11t-29.5 29.5t-11 41.5v239q0 22 11 41t29.5 30t41.5 11h239q34 0 58 -24t24 -58v-239q0 -34 -24 -58t-58 -24zM636 304q-17 0 -29 -12t-12 -29v-239q0 -17 12 -29t29 -12h239q17 0 29 12t12 29v239
q0 17 -12 29t-29 12h-239z" />
    <glyph glyph-name="uniE65D" unicode="&#xe65d;" 
d="M1014 -73l-304 304q-10 10 -23 10t-23 -10q-103 -103 -248 -103q-96 0 -177 47.5t-128 128.5t-47 176q0 72 28 137t75 112t112 75t137 28q41 0 80.5 -9t74 -26.5t65 -41.5t54.5 -55t41.5 -65.5t27 -74t9.5 -80.5q0 -61 -20 -117q-3 -6 -2.5 -12.5t3 -12t7.5 -10t11 -6.5
q13 -4 24.5 1.5t16.5 17.5q24 68 24 139q0 42 -8.5 83t-24.5 79q-32 75 -89 132q-29 29 -62 51.5t-70 37.5q-78 33 -162.5 33t-161.5 -33q-75 -31 -132 -89q-29 -28 -51.5 -61.5t-37.5 -70.5q-33 -77 -33 -161.5t33 -162.5q31 -74 88.5 -131.5t132.5 -89.5q77 -33 161.5 -33
t162.5 33q59 25 108 67l283 -282q9 -9 22.5 -9t22.5 9t9 22.5t-9 22.5zM416 256q13 0 22.5 9.5t9.5 22.5v160h160q13 0 22.5 9.5t9.5 22.5t-9.5 22.5t-22.5 9.5h-160v160q0 13 -9.5 22.5t-22.5 9.5t-22.5 -9.5t-9.5 -22.5v-160h-160q-13 0 -22.5 -9.5t-9.5 -22.5t9.5 -22.5
t22.5 -9.5h160v-160q0 -13 9.5 -22.5t22.5 -9.5z" />
    <glyph glyph-name="uniE65E" unicode="&#xe65e;" 
d="M1014 -73l-304 304q-10 10 -23 10t-23 -10q-103 -103 -248 -103q-96 0 -177 47.5t-128 128.5t-47 176q0 72 28 137t75 112t112 75t137 28q41 0 80.5 -9t74 -26.5t65 -41.5t54.5 -55t41.5 -65.5t27 -74t9.5 -80.5q0 -61 -20 -117q-3 -6 -2.5 -12.5t3 -12t7.5 -10t11 -6.5
q13 -4 24.5 1.5t16.5 17.5q24 68 24 139q0 42 -8.5 83t-24.5 79q-32 75 -89 132q-29 29 -62 51.5t-70 37.5q-78 33 -162.5 33t-161.5 -33q-75 -31 -132 -89q-29 -28 -51.5 -61.5t-37.5 -70.5q-33 -77 -33 -161.5t33 -162.5q31 -74 88.5 -131.5t132.5 -89.5q77 -33 161.5 -33
t162.5 33q59 25 108 67l283 -282q9 -9 22.5 -9t22.5 9t9 22.5t-9 22.5zM608 448q13 0 22.5 9.5t9.5 22.5t-9.5 22.5t-22.5 9.5h-384q-13 0 -22.5 -9.5t-9.5 -22.5t9.5 -22.5t22.5 -9.5h384z" />
    <glyph glyph-name="uniE65F" unicode="&#xe65f;" horiz-adv-x="1027" 
d="M712 708l-306 181q-12 7 -25.5 7t-25.5 -6.5t-19 -18.5l-336 -568l393 -233l26 44l-76 45l-273 162l297 502q5 9 15.5 12t19.5 -3l262 -155q9 -5 11.5 -15.5t-2.5 -19.5l-246 -415l44 -26l259 437q5 9 6.5 19t-1 19.5t-8.5 18t-15 13.5zM197 187l153 -91l-270 -106
l-36 287l-44 26l41 -378l352 145zM67 -77h946q3 0 6 -2t5 -4.5t2 -6.5v-25q0 -6 -4 -9.5t-9 -3.5h-946q-5 0 -9 3.5t-4 9.5v25q0 5 4 9t9 4z" />
    <glyph glyph-name="uniE660" unicode="&#xe660;" 
d="M512 -8q-7 0 -14.5 1.5t-13.5 4.5q-1 1 -3 2q-123 58 -221 141q-86 73 -134 153q-21 34 -34.5 68.5t-20.5 70t-7 70.5q0 74 36.5 137t99.5 99.5t137 36.5q99 0 175 -63q24 20 52.5 34t59.5 21.5t63 7.5q113 0 193 -80t80 -193q0 -53 -15.5 -105.5t-46.5 -103.5
q-48 -80 -134 -153q-98 -83 -221 -141q-2 -1 -3 -2q-13 -6 -28 -6zM340 697q-79 0 -135 -56.5t-56 -135.5q0 -33 7.5 -66t21.5 -62t32 -56t40.5 -51t45.5 -45.5t49 -40t48 -33.5t45 -28t39 -21.5t31 -15.5q35 16 71.5 37t91.5 62t95.5 85t71 107t30.5 128q0 79 -56.5 135.5
t-135.5 56.5q-85 0 -142 -63l-26 -29l-26 29q-57 63 -142 63zM337 703z" />
    <glyph glyph-name="uniE661" unicode="&#xe661;" 
d="M512 654l511 -511l-30 -29l-481 481l-481 -481l-30 29z" />
    <glyph glyph-name="uniE662" unicode="&#xe662;" 
d="M884 479q0 87 -62.5 148.5t-150.5 61.5q-95 0 -158 -69q-64 69 -158 69q-89 0 -151.5 -61.5t-62.5 -148.5q0 -93 70 -156l232 -229q15 -15 23.5 -22.5t22 -15t24.5 -7.5q8 0 16.5 3.5t18.5 11t16.5 13.5t17.5 17l233 229h-1q70 63 70 156z" />
    <glyph glyph-name="uniE663" unicode="&#xe663;" 
d="M513 767q-104 0 -192.5 -51t-140 -139t-51.5 -192t51.5 -192.5t140 -140t192.5 -51.5q103 0 191.5 51.5t139.5 140t51 192.5t-51 192t-139.5 139t-191.5 51zM437 170l-42 41l172 174l-172 172l42 41l213 -213zM437 170z" />
    <glyph glyph-name="uniE664" unicode="&#xe664;" 
d="M674 543l-275 -274q-1 -2 -3 -2.5t-4 -0.5l-7 3q-5 6 0 13l275 275l-37 37l-276 -275l-6 -3q-4 0 -7 3t-3 7q0 2 0.5 3.5t2.5 3.5l275 275q-13 14 -30 30l-308 -308v-1q-1 0 -1.5 -1t-0.5 -2l-62 -169q-1 -2 -1 -4.5t1 -4.5t3 -4t5.5 -3t7.5 0l169 62l2 1q0 1 1 1
l309 308l-6 6q-3 3 -5.5 6t-5.5 5.5t-5 5.5l-4 4l-3 2zM296 201l-29 29l25 71l75 -74zM765 574l-48 -47q-5 6 -52 52.5t-72 72.5l47 47q9 8 20 11t22.5 0t19.5 -11l63 -63q13 -12 13 -30.5t-13 -31.5v0zM800 97h-576q-8 0 -14 -6t-6 -14.5t6 -14.5t14 -6h576q8 0 14 6t6 15
q0 2 -0.5 4t-1.5 4t-2.5 4t-3 3.5t-3.5 2.5t-4.5 1.5t-4.5 0.5z" />
    <glyph glyph-name="uniE665" unicode="&#xe665;" 
d="M842 -20h-636q-53 0 -95 39q-44 40 -44 94v545q0 17 5 33.5t15 31.5t24 27q42 36 95 36h636q52 0 85 -38q31 -36 31 -90v-545q0 -54 -30 -92q-33 -41 -86 -41zM206 743q-36 0 -66 -25t-30 -60v-545q0 -34 30 -62.5t66 -28.5h636q34 0 53.5 27.5t19.5 63.5v545
q0 22 -7.5 40.5t-24.5 31.5t-41 13h-636zM524 415l-434 224l20 37l414 -214l414 214l19 -37z" />
    <glyph glyph-name="uniE666" unicode="&#xe666;" horiz-adv-x="1240" 
d="M181 97q-3 0 -15 5q-10 11 -6 24l35 108q-74 50 -115.5 123t-41.5 154q-2 96 54.5 178t153.5 130t212 48q104 0 194.5 -39t150 -108.5t75.5 -156.5q2 -8 -3.5 -15.5t-13.5 -7.5q-6 -1 -11.5 1t-9 6.5t-3.5 10.5q-14 75 -68 136t-135 96.5t-173 35.5q-105 0 -193 -42.5
t-138.5 -116t-50.5 -159.5q0 -74 39 -139.5t110 -111.5l2 -3q14 -9 9 -23l-23 -76l102 52q7 4 15 0l5 -2q76 -19 149 -15q4 0 7 -1t5.5 -3t4.5 -4.5t3 -5.5t1 -6q0 -9 -6 -15t-15 -6q-26 -1 -53 0.5t-54 5.5t-53 12l-137 -70h-9zM598 549q-32 0 -54 22.5t-22 53.5
q0 43 39 65q18 10 37 11q31 0 53.5 -23t22.5 -53q0 -31 -22 -53.5t-54 -22.5zM598.5 660q-7.5 0 -14.5 -3t-11.5 -7.5t-7 -11t-2.5 -13.5q0 -13 11 -24t24 -11q14 0 24.5 10t10.5 25q1 7 -1.5 13.5t-7.5 11t-11.5 7.5t-14 3zM318 549q-32 0 -54 22.5t-22 53.5
q0 20 10.5 37.5t28 28t37.5 10.5q32 0 54 -22.5t22 -53.5t-22 -53.5t-54 -22.5zM318 660q-15 0 -25 -10t-10 -25q0 -13 11 -24t24 -11q15 0 25 9.5t10 25.5q2 15 -8.5 25t-26.5 10zM1079 -99q-5 0 -8 3l-117 58q-18 -4 -36 -7t-37 -5t-38 -2q-97 0 -180.5 41t-132.5 111
t-49 151q0 84 48.5 153.5t131.5 110t182 40.5q98 0 181 -41t132 -111t49 -152q0 -27 -6 -54.5t-17 -52t-27 -48t-36.5 -44t-44.5 -37.5l26 -85q3 -3 3 -11q-6 -18 -24 -18v0zM957 3q6 0 9 -3l78 -40l-17 55q-5 14 9 23l3 3q39 25 67 57.5t43 71t15 78.5q0 72 -42.5 132.5
t-116 95.5t-159.5 35t-159.5 -35.5t-116 -96t-42.5 -131.5q0 -53 25.5 -102t68 -84t101 -55.5t123.5 -20.5q49 0 102 14l6 3h-1h4zM960 283q-29 0 -48 19.5t-19 47.5q0 19 9.5 34.5t24.5 24.5t33 9q28 0 47.5 -19.5t19.5 -48.5q2 -28 -18 -47.5t-49 -19.5zM960 374
q-6 0 -10.5 -2t-8 -5.5t-5.5 -8.5t-2 -10q0 -8 3.5 -14t9.5 -9.5t13 -3.5t13 3.5t9.5 9.5t3.5 14q2 12 -5.5 19t-20.5 7zM724 283q-29 0 -48.5 19.5t-19.5 47.5q0 19 9.5 34.5t25 24.5t33.5 9q28 0 47.5 -19.5t19.5 -48.5q1 -18 -8 -33.5t-25 -24.5t-34 -9zM724 374
q-6 0 -11 -2t-8.5 -5.5t-5.5 -8.5t-2 -10q0 -8 3.5 -14t9.5 -9.5t13.5 -3.5t13.5 3.5t9.5 9.5t3.5 14q2 12 -6 19t-20 7z" />
    <glyph glyph-name="uniE667" unicode="&#xe667;" 
d="M511 750q-99 0 -183.5 -49t-133.5 -133.5t-49 -183.5t49 -183.5t133.5 -133.5t183.5 -49q74 0 142 29t117 78t78 117t29 142q0 146 -101 252q-99 104 -243 113zM480 567q0 12 9 21t22 9t21.5 -9t8.5 -21v-217q0 -6 -2 -11.5t-6.5 -10t-10 -6.5t-11.5 -2q-13 0 -22 9
t-9 21v217zM511 201q-18 0 -30.5 12.5t-12.5 30.5q0 9 3.5 17t9 13.5t13.5 9t17 3.5q12 0 21.5 -6t15.5 -15.5t6 -21.5q0 -5 -1 -10t-3.5 -9t-5.5 -8t-6.5 -6.5t-7.5 -5t-9 -3.5t-10 -1zM511 201z" />
    <glyph glyph-name="uniE668" unicode="&#xe668;" 
d="M317 577q-16 0 -28 -9.5t-12 -24t12 -24t28 -9.5q15 0 24 9.5t9 24.5q0 7 -2 13.5t-6.5 10.5t-10.5 6.5t-14 2.5zM590 384q-10 0 -18.5 -8.5t-8.5 -18.5t8.5 -18t18.5 -8t17.5 3.5t11.5 9.5t4 13q0 11 -9 19t-24 8zM959 695q0 22 -7 43t-19.5 38t-29 29.5t-37.5 19.5
t-43 7h-623q-57 0 -97 -40t-40 -97v-623q0 -56 40 -96t97 -40h623q56 0 96 40t40 96v623zM404 237q-26 0 -94 14l-93 -47l27 80q-107 74 -107 180q0 94 78 160t189 66q98 0 174.5 -53t93.5 -134q-14 2 -25 2q-95 0 -161 -62t-66 -149q0 -14 2 -28t6 -28q-13 -1 -24 -1v0z
M796 144l20 -67l-73 40q-53 -13 -80 -13q-62 0 -114 26t-82 70.5t-30 96.5q0 80 66 136.5t160 56.5q91 0 159 -57t68 -136q0 -43 -25.5 -82t-68.5 -71v0zM737 384q-7 0 -13 -4t-10 -10t-4 -13q0 -10 8.5 -18t18.5 -8q9 0 17 3.5t12 9.5t4 13q0 11 -9.5 19t-23.5 8zM503 510
q10 0 18 4.5t12 12t4 17.5q0 7 -2.5 13.5t-7 10.5t-10.5 6.5t-14 2.5q-15 0 -27.5 -9.5t-12.5 -24t12.5 -24t27.5 -9.5zM503 510z" />
    <glyph glyph-name="uniE669" unicode="&#xe669;" 
d="M512 -128q104 0 199 40.5t163.5 109t109 163.5t40.5 199t-40.5 199t-109 163.5t-163.5 109t-199 40.5t-199 -40.5t-163.5 -109t-109 -163.5t-40.5 -199q0 -70 18.5 -136t51.5 -122t80.5 -103.5t103.5 -80.5t122 -51.5t136 -18.5zM512 853q64 0 124.5 -17t112 -47
t95 -73.5t73.5 -95t47 -112t17 -124.5q0 -95 -37 -182t-100 -150t-150 -100t-182 -37t-182 37t-150 100t-100 150t-37 182t37 182t100 150t150 100t182 37zM512 853zM438 161l227 227q9 9 8 22q1 13 -8 22l-227 227q-9 9 -20.5 9t-20.5 -9l-1 -1q-6 -6 -8 -13t0 -14.5
t8 -13.5l207 -207l-207 -208q-6 -5 -8 -12.5t0 -14.5t8 -13l1 -1q9 -9 20.5 -9t20.5 9zM438 161z" />
    <glyph glyph-name="uniE66A" unicode="&#xe66a;" 
d="M97 555q33 80 94 141q31 30 66 54t75 41q82 34 172 34q45 0 89 -9t86 -27q26 -11 50.5 -25.5t47 -32t42.5 -38.5l134 134l4 -346l-345 5l136 136q-100 103 -244 103q-69 0 -132.5 -27t-109 -73t-73 -109.5t-27.5 -132.5t27.5 -132.5t73 -109t109 -73t133 -27.5t132.5 27
t111 76q15 15 36 15.5t35.5 -14t15 -35.5t-14.5 -36q-61 -63 -141 -97q-42 -18 -86 -27t-89 -9q-90 0 -172 35q-80 33 -141 94.5t-94 140.5q-18 41 -26.5 84t-8.5 88q0 90 35 172z" />
    <glyph glyph-name="uniE66B" unicode="&#xe66b;" 
d="M923 555q-34 80 -95 141q-20 20 -42.5 37.5t-47 31.5t-51.5 26q-82 34 -172 34q-30 0 -60 -4t-58.5 -12t-56.5 -20q-26 -11 -50.5 -25.5t-47 -32t-42.5 -38.5l-134 134l-4 -346l345 5l-136 136q100 103 244 103q69 0 132.5 -27t109.5 -73t73 -109.5t27 -132.5
q0 -93 -46 -171.5t-124.5 -124.5t-171.5 -46q-144 0 -244 103q-15 15 -35.5 15.5t-35.5 -14t-15.5 -35.5t14.5 -36q61 -63 142 -97q83 -36 174 -36q45 0 88 8.5t84 26.5q80 33 141 94.5t95 140.5q34 82 34 172t-34 172z" />
    <glyph glyph-name="uniE66C" unicode="&#xe66c;" 
d="M487 773v-365h-362v-50h362v-361h50v361h363v50h-363v365h-50z" />
    <glyph glyph-name="uniE66D" unicode="&#xe66d;" 
d="M394 722v-762l-191 353l-45 -24l236 -436v-1h51v870h-51zM628 -148v762l191 -353l45 24l-236 436v1h-51v-870h51z" />
    <glyph glyph-name="uniE66E" unicode="&#xe66e;" 
d="M791 465q-46 10 -80.5 41.5t-49.5 75.5t-5 91q15 71 76 110.5t132 24.5q26 -5 50 -19q7 -4 9.5 -12.5t-2 -16t-13 -10t-15.5 1.5q-6 4 -12 6.5t-12.5 4.5t-13.5 4q-35 7 -69 -4t-57.5 -37.5t-30.5 -61.5q-12 -54 18 -100t84 -57.5t100 19t57 83.5q3 12 3 25q1 8 7 14.5
t15 6t15 -7t6 -14.5q-1 -16 -4 -32q-15 -71 -76 -111t-132 -25zM196 125q-83 0 -135 64q-40 49 -40 111q0 72 51.5 123.5t123.5 51.5q29 0 55.5 -8.5t48.5 -25t38 -38t25 -48t9 -55.5q0 -36 -14 -68.5t-37.5 -55.5t-56 -37t-68.5 -14zM196 433q-26 0 -51 -10.5t-42.5 -28.5
t-28 -42.5t-10.5 -51.5q0 -18 4.5 -35t13 -32t21 -27t27 -20.5t31.5 -13.5t35 -5q55 0 94 39t39 94t-39 94t-94 39zM828 -212q-73 0 -124.5 51.5t-51.5 124t51.5 124t124 51.5t124 -51.5t51.5 -124.5q0 -47 -23.5 -87.5t-64 -64t-87.5 -23.5zM828 96q-19 0 -36 -4.5
t-31.5 -13.5t-27 -21t-21 -26.5t-13 -32t-4.5 -35.5q0 -36 17.5 -66.5t48 -48.5t67.5 -18q54 0 93 39t39 94q0 68 -54 108q-36 25 -78 25zM742 565l-409 -194zM342 352l-18 39l366 193l19 -38zM326 211l366 -199zM683 -7l-367 199l20 37l366 -199z" />
    <glyph glyph-name="uniE66F" unicode="&#xe66f;" 
d="M884 346h-45q-6 42 -22.5 80.5t-41.5 71.5l32 33q6 7 3.5 15t-9.5 14l-29 30q-4 4 -9.5 6.5t-11 2.5t-9.5 -3l-33 -34q-68 51 -152 61v50q0 8 -7.5 12.5t-17.5 4.5h-41q-10 0 -17.5 -4.5t-7.5 -12.5v-51q-83 -12 -149 -63l-37 37q-3 3 -9 3t-11 -2.5t-9 -6.5l-30 -30
q-6 -6 -8.5 -14t3.5 -15l37 -38q-49 -66 -60 -147h-54q-4 0 -7.5 -2.5t-5.5 -6t-3 -8t-1 -8.5v-42q0 -9 4.5 -17t12.5 -8h54q11 -81 60 -148l-37 -37q-6 -7 -3.5 -15t8.5 -15l30 -29q6 -7 14 -9t15 3l37 37q33 -25 70.5 -41t78.5 -22v-51q0 -8 7.5 -12t17.5 -4h41
q10 0 17.5 4t7.5 12v50q42 5 80 20q10 4 14 14t0 19.5t-13.5 13.5t-18.5 0q-50 -20 -103 -20q-75 0 -138.5 37t-100.5 100.5t-37 138.5q0 114 81 194.5t195 80.5t194.5 -80.5t80.5 -194.5q0 -55 -21 -106q-4 -10 0 -19.5t13.5 -13.5t19.5 0t14 13q16 39 22 80h45q6 0 10 4
t6 9.5t2 11.5v42q0 3 -1 6.5t-2.5 7t-3.5 6t-4.5 4t-6.5 1.5zM801 75l-45 45l-110 110l-1 1q19 35 19 75q0 31 -12 60t-32.5 50t-48 34t-57.5 13h-29q-11 0 -18 -7.5t-7 -18t7 -18t18 -7.5h29q26 0 49 -14.5t37 -39t14 -52.5q0 -27 -14 -51t-37 -38t-49 -14q-43 0 -78 32.5
t-35 72.5q0 10 -7 17.5t-17.5 7.5t-18 -7.5t-7.5 -17.5q0 -61 49.5 -108t113.5 -47q17 0 33.5 4t31.5 11l1 -2q1 0 1 -1l110 -109l45 -46q3 -3 6.5 -5.5t7.5 -4.5q30 -13 52 9t9 52q-4 8 -10 14z" />
    <glyph glyph-name="uniE670" unicode="&#xe670;" 
d="M733 -120h-39q-6 0 -11 2.5t-9 6t-6 9t-2 10.5v980h56v-940l230 231l40 -40zM302 820l-230 -231l-40 40l259 259h39q4 0 7.5 -1t6.5 -3t6 -4.5t4.5 -5.5t2.5 -7t1 -7v-980h-56v940z" />
    <glyph glyph-name="uniE671" unicode="&#xe671;" 
d="M406 887q-9 9 -22.5 9t-22.5 -9l-256 -257q-10 -9 -10 -22t9.5 -22.5t22.5 -9.5t23 9l201 202v-883q0 -13 9.5 -22.5t22.5 -9.5q9 0 16.5 4.5t11.5 11.5t4 16v959v1q0 6 -2 12t-7 11zM919 183q-9 9 -22.5 9t-22.5 -9l-202 -202v883q0 5 -1.5 10t-4.5 9t-7 7t-9 4.5
t-10 1.5q-13 0 -22.5 -9.5t-9.5 -22.5v-959v-1q0 -6 2.5 -12t7.5 -11l2 -2l4 -2l2 -2q2 -1 3.5 -1.5t3.5 -1t3 -0.5h4q13 0 23 9l256 257q6 6 8 14t0 16.5t-8 14.5z" />
    <glyph glyph-name="uniE672" unicode="&#xe672;" 
d="M1015 -83l-243 243q-3 4 -8 6q112 125 112 292q0 89 -34.5 170t-93.5 140t-140 93.5t-170 34.5q-181 0 -309.5 -128.5t-128.5 -309.5q0 -89 34.5 -170t93.5 -140t140 -93.5t170 -34.5q167 0 292 112q2 -5 6 -8l243 -243q15 -16 24 -6l18 18q4 4 2.5 11t-8.5 13zM438 72
q-105 0 -194 51.5t-140.5 140.5t-51.5 194t51.5 194t140.5 140.5t194 51.5q79 0 150.5 -30.5t123 -82t82 -123t30.5 -150.5q0 -152 -103 -264q-102 -109 -250 -121q-17 -1 -33 -1zM438 793q-91 0 -168 -45t-122 -122t-45 -168q0 -11 7.5 -18.5t18 -7.5t18.5 7.5t8 18.5
q0 46 14 89.5t40.5 78t61 61t78 40.5t89.5 14q7 0 13 3.5t9.5 9.5t3.5 13q0 11 -7.5 18.5t-18.5 7.5z" />
    <glyph glyph-name="uniE673" unicode="&#xe673;" 
d="M325 -50zM882 -50zM236 -65zM960 -65zM64 23zM958 23zM81 -66zM1023 -66zM37 -38zM481 512q0 29 21 50t51 21t51 -21t21 -50t-21 -50.5t-51 -21.5q-20 0 -36.5 10t-26 26.5t-9.5 35.5zM446 31q-58 8 -51 77q4 45 37 111q10 19 17 40t9 40.5t-5 32.5t-24 13q-8 0 -7 4
q0 4 13 11q62 33 102 28q30 -3 46 -24.5t15.5 -50.5t-15.5 -57q-24 -47 -38 -90t-7 -60q10 -21 66 -21q15 0 12 -6l-3 -3q-9 -9 -22 -17t-35.5 -17.5t-48 -11.5t-61.5 1zM67 301q0 -186 130 -317q131 -130 317 -130t316 130q131 131 131 317t-131 316q-130 131 -316 131
t-317 -131q-66 -66 -98 -144t-32 -172zM990 -38z" />
    <glyph glyph-name="uniE674" unicode="&#xe674;" 
d="M511 619q-132 0 -225 -93t-93 -225t93 -225.5t225 -93.5t225.5 93.5t93.5 225.5q0 86 -42.5 159.5t-116 116t-160.5 42.5zM447 101q-21 0 -32.5 9.5t-11.5 27.5q0 15 7 38.5t12 35.5l10 24l51 118q1 4 1.5 7t-0.5 5t-2 3.5t-3 2t-3 0.5q-12 0 -27.5 -14.5t-29 -29
t-18.5 -14.5q-3 0 -6 3t-3 6q0 11 41 49q23 20 51 32.5t57 12.5q18 0 30 -7t17.5 -25.5t-8.5 -50.5l-52 -130q0 -1 -2.5 -6t-3 -6.5t-2.5 -6t-2.5 -7t-1.5 -6t-1 -6.5q0 -4 2.5 -6.5t6.5 -2.5q5 0 12 4t14 10.5t14 14t13 13.5t11 10.5t8 4.5t5.5 -3t2.5 -7q0 -11 -23.5 -35
t-62 -46t-71.5 -22zM571 441q-15 0 -26 5.5t-17 16t-6 23.5q0 22 17.5 38t41.5 16q22 0 36 -12.5t14 -33.5q0 -23 -17.5 -38t-42.5 -15z" />
    <glyph glyph-name="uniE675" unicode="&#xe675;" 
d="M511 747q-91 0 -173.5 -35t-142.5 -95t-95.5 -143t-35.5 -174t35.5 -173.5t95.5 -142.5t142.5 -95.5t173.5 -35.5t174 35.5t143 95.5t95 142.5t35 173.5t-35 174t-95 143t-143 95t-174 35zM466 508q5 12 22 32t38 19q11 -1 19 -7.5t17 -29.5q4 -12 6 -21t1.5 -14.5
t-7.5 -13t-20 -16.5q-6 -5 -12 -8.5t-11 -5.5t-9.5 -3t-7.5 -1q-13 1 -21 8t-14 21q-2 5 -3.5 9t-2 7.5t0.5 6.5q0 6 4 17zM619 127q-2 -8 -8 -15t-15 -13q-6 -5 -13 -10l-14 -10q-14 -10 -30.5 -17.5t-40.5 -14.5q-19 -5 -33 -5h-5h-5q-17 3 -30 14q-4 4 -7 8t-6 9t-5 11
q-3 8 -4.5 16.5t-2.5 17.5q-1 10 0.5 20.5t4.5 22.5l17 48l22 69q3 7 5 13.5t3 11t1.5 7.5t0.5 6q2 18 5.5 24.5t20.5 20.5t21 16t16 7l8 2q4 1 7.5 1.5t6.5 0.5q9 -1 15.5 -4.5t10.5 -10.5q3 -4 3 -9.5t-1.5 -9.5t-4.5 -8.5t-5 -7t-5 -5.5q-5 -5 -9 -10.5t-6 -9.5
q-3 -5 -7 -13.5t-9 -20.5q-5 -11 -9.5 -22.5t-7.5 -21.5q-8 -22 -15 -51q-2 -6 -3.5 -11t-2.5 -10t-1.5 -9t-1.5 -8t-1 -7q-1 -12 2 -17q3 -4 9 -5h2q6 0 16 2q14 2 27 7q5 2 11 4.5t11 5.5l24 16q17 9 24 9h4l8 -4l3 -3q3 -9 2.5 -13.5t-3.5 -13.5z" />
    <glyph glyph-name="uniE676" unicode="&#xe676;" 
d="M512 812q-139 0 -257 -68.5t-186.5 -186.5t-68.5 -257t68.5 -257t186.5 -186.5t257 -68.5t257 68.5t186.5 186.5t68.5 257t-68.5 257t-186.5 186.5t-257 68.5zM592 112q-33 -51 -65.5 -77t-78.5 -26q-33 5 -47 26t-7 47l85 281q4 13 -7 17q-10 3 -30 -18l-51 -62v35
q14 21 33 40.5t38 33t38.5 22t35.5 8.5q20 -2 33.5 -13t18.5 -26.5t1 -33.5l-85 -283q-2 -12 8 -15q10 -4 30 17l51 62q1 -6 0 -21zM581 480q-25 0 -42 16t-17 42t17 42.5t42 16.5q12 0 23 -4.5t18.5 -12t12.5 -18.5t5 -24q0 -8 -2 -16t-6 -14.5t-9.5 -11.5t-12 -9t-14 -5.5
t-15.5 -1.5z" />
    <glyph glyph-name="uniE677" unicode="&#xe677;" 
d="M513 784q-99 0 -188.5 -38t-155 -103.5t-103.5 -155t-38 -188.5t38 -189t103.5 -155t155 -103.5t188.5 -38.5t189 38.5t155 103.5t103.5 155t38.5 189q0 66 -17.5 129t-49 116t-76 98t-98 76.5t-116.5 48.5t-129 17zM513 -122q-114 0 -211 56.5t-153.5 153t-56.5 211.5
q0 85 33.5 163t90 134.5t134 90t163.5 33.5q114 0 211 -56.5t153.5 -153.5t56.5 -211q0 -163 -109 -283q-106 -117 -261 -135q-26 -3 -51 -3zM613 171q-4 0 -36 -34t-47 -34q-10 0 -10 11q0 3 1 7t2 7.5t3 9t2.5 7t3 8t3.5 6.5l60 156q16 39 10 61t-20 30t-35 8
q-34 0 -66 -14.5t-60 -39.5q-9 -9 -23.5 -32t-14.5 -34q0 -4 3.5 -7.5t8.5 -3.5t18 19.5t29 39t29 19.5q6 0 9 -5.5t-1 -15.5l-58 -142q-1 -2 -8 -15.5t-12 -25t-10 -28t-5 -30.5q0 -9 2.5 -18t7 -17t10.5 -14.5t14.5 -10t16.5 -3.5q39 0 84 26t72.5 55t27.5 42
q0 5 -3.5 8.5t-7.5 3.5zM597 562q-14 0 -26.5 -5t-22 -14t-15 -20.5t-5.5 -24.5q0 -25 15.5 -40t41.5 -15q29 0 49.5 18.5t20.5 45.5q0 25 -16.5 40t-41.5 15zM597 562z" />
    <glyph glyph-name="uniE678" unicode="&#xe678;" 
d="M512 812q-104 0 -199 -40.5t-163.5 -109t-109 -163.5t-40.5 -199t40.5 -199t109 -163.5t163.5 -109t199 -40.5t199 40.5t163.5 109t109 163.5t40.5 199q0 83 -26 161.5t-73 141.5t-110 110t-141.5 73t-161.5 26zM592 112q-33 -51 -65.5 -77t-78.5 -26q-33 5 -47 26t-7 47
l85 281q4 13 -7 17q-10 3 -30 -18l-51 -62q0 3 -0.5 7t0 8t0.5 7v8v5q29 43 71 73.5t74 30.5q30 -3 44.5 -24t8.5 -49l-85 -283q-2 -12 8 -15q10 -4 30 17l51 62q1 -6 0 -21zM581 480q-16 0 -29.5 7t-21.5 20.5t-8 30.5q0 26 17 42.5t42 16.5t42 -16.5t17 -42.5t-17 -42
t-42 -16zM581 480z" />
    <glyph glyph-name="uniE679" unicode="&#xe679;" 
d="M512 891q-103 0 -197 -40.5t-161.5 -108t-108 -161.5t-40.5 -197t40.5 -197t108 -161.5t161.5 -108t197 -40.5t197 40.5t161.5 108t108 161.5t40.5 197t-40.5 197t-108 161.5t-161.5 108t-197 40.5zM540 68h-79v76h79v-76zM688 454q-17 -22 -62 -53q-19 -14 -30 -22
t-19.5 -15.5t-13.5 -13t-9 -11.5q-21 -29 -21 -75q0 -9 0.5 -19t1.5 -25h-70q4 19 4 52q0 57 30 99q8 11 15.5 18t19.5 16.5t36 25.5q21 14 33.5 24t22.5 20q28 30 28 68q0 45 -37 74t-94 29q-80 0 -121 -52q-18 -23 -29 -67l-68 11q8 29 17 49t20.5 35.5t28.5 29.5
q28 23 67.5 35.5t86.5 12.5q57 0 101 -19.5t68.5 -55t24.5 -80.5q0 -7 -0.5 -14t-2.5 -14l-2 -14q-2 -7 -4.5 -13t-6 -12.5t-7 -12t-8.5 -11.5z" />
    <glyph glyph-name="uniE67A" unicode="&#xe67a;" 
d="M672 652v-70q87 -45 139.5 -129t52.5 -185q0 -29 -4.5 -57t-13 -54t-21.5 -50.5t-29 -46.5t-35 -41t-41 -35t-46.5 -29t-50.5 -21.5t-54 -13.5t-57 -5q-96 0 -177 47.5t-128 128.5t-47 177q0 101 52.5 185t139.5 129v70q-115 -47 -186 -151.5t-71 -232.5q0 -113 56 -209
t152 -152t209 -56q85 0 162 33t133 89t89 133t33 162q0 128 -71 232.5t-186 151.5zM512 300q-9 0 -16 4.5t-11.5 11.5t-4.5 16v385q0 13 9.5 22.5t22.5 9.5q9 0 16 -4.5t11.5 -12t4.5 -15.5v-385q0 -13 -9.5 -22.5t-22.5 -9.5zM512 300z" />
    <glyph glyph-name="uniE67B" unicode="&#xe67b;" 
d="M238 662q-48 -34 -85 -78q-9 -10 -18 -21.5t-17 -23t-15 -23.5t-14 -25q-27 -50 -40 -106q-7 -28 -10.5 -56.5t-3.5 -57.5q0 -99 37.5 -186t102 -151.5t151.5 -102t186 -37.5t185.5 37.5t152 102t102.5 151.5t37 186q0 19 -1.5 37.5t-4.5 37t-7 36.5q-3 14 -8 27l-8 26
q-5 13 -10.5 26t-11.5 25q-25 49 -61 91.5t-81 76.5q-23 17 -50.5 13t-44.5 -26.5t-12.5 -50t26.5 -44.5q67 -50 103 -121q18 -36 27 -74t9 -80q0 -70 -27 -132.5t-73 -108.5t-108.5 -73.5t-133 -27.5t-133 27.5t-108.5 73.5t-73.5 108.5t-27.5 132.5q0 84 38.5 158
t107.5 122q8 5 14 11.5t9.5 14.5t5.5 18q4 27 -12 51q-16 22 -43.5 27t-51.5 -11v0zM512 268q28 0 48 20q7 7 11 14t6.5 15.5t2.5 17.5v406q0 27 -20 48q-4 4 -8.5 7t-9 5.5t-9.5 4t-10 2.5t-11 1q-28 0 -48 -20.5t-20 -47.5v-406q0 -27 20 -47t48 -20v0zM512 268z" />
    <glyph glyph-name="uniE67C" unicode="&#xe67c;" 
d="M511 -206q-95 0 -182 37q-84 35 -149 100q-32 32 -57 69.5t-43 79.5q-37 87 -37 182q0 116 54 217q51 99 142 164q6 4 13.5 5.5t14 0.5t13 -5t10.5 -10q9 -12 6.5 -27t-14.5 -24q-38 -27 -68.5 -62t-52.5 -76q-45 -85 -45 -183q0 -79 30 -151t86 -128q22 -23 47.5 -41
t53 -32t56.5 -23.5t60 -14.5t62 -5q79 0 151.5 30t128.5 86t85.5 128t29.5 151q0 98 -45 183q-10 21 -23.5 40t-28.5 36t-32 33t-36 29q-8 6 -12 15t-3 18.5t6 17.5q9 12 24 14.5t28 -5.5q90 -65 142 -164q54 -101 54 -217q0 -95 -37 -182q-18 -42 -43 -79.5t-57.5 -70
t-69.5 -57.5t-79 -43q-44 -18 -89.5 -27t-93.5 -9v0zM522 302q-15 0 -25.5 10.5t-10.5 26.5v433q0 5 1 9t2.5 7.5t4 6.5t6 5.5t7 4.5t7.5 3t8 1q10 0 18.5 -5t13.5 -13.5t5 -18.5v-433q0 -16 -10.5 -26.5t-26.5 -10.5v0zM522 302z" />
    <glyph glyph-name="uniE67D" unicode="&#xe67d;" 
d="M512 812q-33 0 -56 -23t-23 -56v-397q0 -33 23 -56t56 -23q22 0 40 10.5t28.5 28.5t10.5 40v397q0 21 -10.5 39.5t-28.5 29t-40 10.5zM512 -212q-187 0 -330 122q-136 116 -169 290q-9 48 -9 96q0 118 50.5 222.5t142.5 177.5q20 15 44.5 12t39.5 -22q10 -13 12 -28.5
t-3.5 -30.5t-18.5 -25q-71 -56 -109.5 -136t-38.5 -170q0 -105 52 -195t141.5 -142t195.5 -52t195.5 52t141.5 142t52 195q0 45 -10 88t-28.5 82t-46.5 73.5t-63 62.5q-20 15 -22.5 39.5t12.5 44t39.5 22.5t43.5 -12q62 -49 105.5 -112t66 -136.5t22.5 -151.5
q0 -103 -40 -197t-108.5 -162t-162.5 -108.5t-197 -40.5z" />
  </font>
</defs>
</svg>
