<?xml version="1.0" standalone="no"?>
<!DOCTYPE svg PUBLIC "-//W3C//DTD SVG 1.1//EN" "http://www.w3.org/Graphics/SVG/1.1/DTD/svg11.dtd" >
<svg xmlns="http://www.w3.org/2000/svg">
<metadata>
Created by FontForge 20120731 at Mon Aug  1 18:39:56 2016
 By admin
</metadata>
<defs>
<font id="iconfont" horiz-adv-x="1024" >
  <font-face 
    font-family="iconfont"
    font-weight="500"
    font-stretch="normal"
    units-per-em="1024"
    panose-1="2 0 6 3 0 0 0 0 0 0"
    ascent="896"
    descent="-128"
    x-height="792"
    bbox="0 -220 1375 896.164"
    underline-thickness="50"
    underline-position="-100"
    unicode-range="U+0078-E646"
  />
<missing-glyph horiz-adv-x="374" 
d="M34 0v682h272v-682h-272zM68 34h204v614h-204v-614z" />
    <glyph glyph-name=".notdef" horiz-adv-x="374" 
d="M34 0v682h272v-682h-272zM68 34h204v614h-204v-614z" />
    <glyph glyph-name=".null" horiz-adv-x="0" 
 />
    <glyph glyph-name="nonmarkingreturn" horiz-adv-x="341" 
 />
    <glyph glyph-name="x" unicode="x" horiz-adv-x="1001" 
d="M281 543q-27 -1 -53 -1h-83q-18 0 -36.5 -6t-32.5 -18.5t-23 -32t-9 -45.5v-76h912v41q0 16 -0.5 30t-0.5 18q0 13 -5 29t-17 29.5t-31.5 22.5t-49.5 9h-133v-97h-438v97zM955 310v-52q0 -23 0.5 -52t0.5 -58t-10.5 -47.5t-26 -30t-33 -16t-31.5 -4.5q-14 -1 -29.5 -0.5
t-29.5 0.5h-32l-45 128h-439l-44 -128h-29h-34q-20 0 -45 1q-25 0 -41 9.5t-25.5 23t-13.5 29.5t-4 30v167h911zM163 247q-12 0 -21 -8.5t-9 -21.5t9 -21.5t21 -8.5q13 0 22 8.5t9 21.5t-9 21.5t-22 8.5zM316 123q-8 -26 -14 -48q-5 -19 -10.5 -37t-7.5 -25t-3 -15t1 -14.5
t9.5 -10.5t21.5 -4h37h67h81h80h64h36q23 0 34 12t2 38q-5 13 -9.5 30.5t-9.5 34.5q-5 19 -11 39h-368zM336 498v228q0 11 2.5 23t10 21.5t20.5 15.5t34 6h188q31 0 51.5 -14.5t20.5 -52.5v-227h-327z" />
    <glyph glyph-name="uniE600" unicode="&#xe600;" 
d="M512 713q-89 0 -165 -44t-120 -120t-44 -165q0 -78 35 -148l41 42q-21 50 -21 106q0 114 80 194t194 80t194 -80t80 -194t-80 -194t-194 -80q-70 0 -131 33l-40 -40q78 -48 171 -48q89 0 165 44t120 120t44 165t-44 165t-120 120t-165 44zM475 548h55v-219h-55v219z
M475 256h55v-55h-55v55z" />
    <glyph glyph-name="uniE601" unicode="&#xe601;" 
d="M232 -125l99 316l-254 217h320l115 294l129 -294h306l-240 -217l103 -317l-296 199z" />
    <glyph glyph-name="uniE602" unicode="&#xe602;" horiz-adv-x="1366" 
d="M1237 812h-1109q-53 0 -90.5 -40t-37.5 -97v-750q0 -57 37.5 -97t90.5 -40h1109q53 0 90.5 40t37.5 97v750q0 57 -37.5 97t-90.5 40zM1307 -75q0 -26 -17.5 -51t-40.5 -25h-1132q-23 0 -41 25t-18 51v750q0 26 17.5 49.5t41.5 23.5h1132q23 0 40.5 -23.5t17.5 -49.5v-750
zM1108 525h-231q-10 0 -17 -6.5t-7 -14.5v-18q0 -9 7 -15.5t17 -6.5h231q9 0 16 6.5t7 15.5v18q0 8 -7 14.5t-16 6.5zM1108 329h-231q-10 0 -17 -6t-7 -15v-16q0 -9 7 -15t17 -6h231q9 0 16 6t7 15v16q0 9 -7 15t-16 6zM1108 136h-231q-10 0 -17 -6t-7 -15v-14q0 -9 7 -15.5
t17 -6.5h231q9 0 16 6.5t7 15.5v14q0 9 -7 15t-16 6zM447 493q43 0 74 -31t31 -74q0 -45 -38 -79q-16 -14 -21.5 -34t0.5 -39.5t21.5 -33t35.5 -16.5q30 -5 57 -19q18 -9 27 -19q6 -8 6 -16v-28h-387v28q0 19 33 36q27 13 56 18q21 3 36.5 16t22 33t0.5 40t-21 34
q-39 34 -39 79q0 43 31 74t75 31zM444 548q-68 0 -116.5 -48.5t-48.5 -117.5q0 -71 58 -123q-6 -1 -15.5 -3t-33.5 -10.5t-43 -20.5t-34 -34t-15 -49v-62q0 -11 7.5 -18.5t18.5 -7.5h445q11 0 18.5 7.5t7.5 18.5v62q0 73 -102 107l-39 10q58 52 58 123q0 69 -48.5 117.5
t-117.5 48.5v0zM469 556z" />
    <glyph glyph-name="uniE603" unicode="&#xe603;" 
d="M753 -212q-80 0 -211 81q-125 77 -244 193l-24 24q-116 119 -193 244q-81 131 -81 211q0 78 72 175q14 18 30 36t45 39t52 21q30 0 72 -44q31 -32 67 -83q34 -49 57 -92q27 -51 27 -76q0 -33 -34 -56q-15 -10 -49 -25q-30 -13 -37 -19q6 -24 42 -77q43 -63 93 -115
q52 -50 115 -93q53 -36 77 -42q6 7 19 37q15 34 25 49q23 34 56 34q25 0 76 -27q43 -23 92 -57q51 -36 83 -67q44 -42 44 -72q0 -23 -21 -52t-39 -45t-36 -30q-97 -72 -175 -72zM341 105q114 -111 232 -185q117 -72 180 -72q57 0 135 59q34 24 56 50q16 18 19 29
q-5 11 -32 36t-74 58q-43 30 -81 50q-33 17 -47 19q-4 -2 -9.5 -11.5t-16.5 -34.5q-13 -31 -21 -43q-20 -31 -49 -31h-1q-38 1 -114 53q-68 46 -123 100l-1 1q-54 55 -100 123q-52 76 -53 114q-1 29 30 50q13 8 44 21q25 11 34.5 16.5t11.5 9.5q-2 14 -19 47q-20 38 -50 81
q-33 47 -58 74t-36 32q-11 -3 -29 -19q-26 -22 -50 -56q-59 -78 -59 -135q0 -63 72 -180q74 -118 185 -232zM341 105z" />
    <glyph glyph-name="uniE604" unicode="&#xe604;" 
d="M705 748q-57 0 -108 -27.5t-87 -75.5q-35 48 -86.5 75.5t-108.5 27.5q-104 0 -178 -81t-74 -194q0 -42 13 -84t25.5 -64t34.5 -57q27 -41 72 -91.5t85.5 -89t87.5 -79t66 -55.5t31 -25q14 -11 32 -11t32 11q12 10 31 25t66 55t87.5 79t85.5 89.5t72 91.5q22 35 34.5 57
t25.5 64t13 84q0 113 -74 194t-178 81zM838 303q-25 -39 -68 -87t-86.5 -88.5t-83.5 -75t-65 -54.5l-25 -20q-10 8 -26.5 21t-62.5 52.5t-85.5 77t-84 86.5t-69.5 88q-21 33 -32 53.5t-21 52.5t-10 64q0 88 57.5 150.5t138.5 62.5q59 0 107 -35t71 -92v1q4 -14 17 -14t17 14
q23 56 71.5 91t106.5 35q81 0 138.5 -62.5t57.5 -150.5q0 -46 -16 -83.5t-47 -86.5zM838 303z" />
    <glyph glyph-name="uniE605" unicode="&#xe605;" 
d="M512 -212q-139 0 -257 68.5t-186.5 186.5t-68.5 257t68.5 257t186.5 186.5t257 68.5t257 -68.5t186.5 -186.5t68.5 -257t-68.5 -257t-186.5 -186.5t-257 -68.5zM512 761q-94 0 -179 -36.5t-147 -98.5t-98.5 -147t-36.5 -179t36.5 -179t98.5 -147t147 -98.5t179 -36.5
t179 36.5t147 98.5t98.5 147t36.5 179t-36.5 179t-98.5 147t-147 98.5t-179 36.5zM706 377l-92 102v-435h-51v512h51l128 -143zM280 189l36 36l94 -104v435h51v-512h-51z" />
    <glyph glyph-name="uniE606" unicode="&#xe606;" 
d="M32 448q14 0 22 8t9 16l1 8v192q0 26 19 45t45 19h192q4 0 9 1t14 9t9 22t-8 22t-16 9l-8 1h-192q-53 0 -90.5 -37.5t-37.5 -90.5v-192q0 -4 1 -9t9 -14t22 -9zM192 320q0 -13 9.5 -22.5t22.5 -9.5h512q13 0 22.5 9.5t9.5 22.5t-9.5 22.5t-22.5 9.5h-512
q-13 0 -22.5 -9.5t-9.5 -22.5zM832 800h-192q-4 0 -9 -1t-14 -9t-9 -22t8 -22t16 -9l8 -1h192q26 0 45 -19t19 -45v-192q0 -4 1 -9t9 -14t22 -9t22 8t9 16l1 8v192q0 53 -37.5 90.5t-90.5 37.5zM320 -96h-192q-26 0 -45 19t-19 45v192q0 4 -1 9t-9 14t-22 9t-22 -8t-9 -16
l-1 -8v-192q0 -53 37.5 -90.5t90.5 -37.5h192q4 0 9 1t14 9t9 22t-8 22t-16 9zM928 192q-14 0 -22 -8t-9 -16l-1 -8v-192q0 -26 -19 -45t-45 -19h-192q-4 0 -9 -1t-14 -9t-9 -22t8 -22t16 -9l8 -1h192q53 0 90.5 37.5t37.5 90.5v192q0 4 -1 9t-9 14t-22 9z" />
    <glyph glyph-name="uniE607" unicode="&#xe607;" 
d="M354 300l384 385q10 9 10 22.5t-9.5 22.5t-23 9t-22.5 -9l-407 -407q-10 -10 -10 -23t10 -23l407 -407q9 -9 22.5 -9t23 9t9.5 22.5t-10 22.5z" />
    <glyph glyph-name="uniE608" unicode="&#xe608;" 
d="M459 -202q-6 0 -11 4q-5 5 -5.5 12t3.5 12q10 12 19.5 24t18 24.5t17 25.5t16 26t15 26.5t14 27.5t12.5 28.5t11.5 29t10 29t8.5 30t7.5 30.5t6.5 30.5t5 31.5t3.5 32t2.5 32.5t1 32.5v1q0 5 -0.5 10t-1.5 10t-2.5 9.5t-3.5 9.5t-4 9l-6 8q-2 4 -5.5 8t-7 7.5t-7 6.5
t-7.5 6t-9 5l-8 4q-5 2 -10 3.5t-10 2.5l-10 2q-10 1 -20 0l-10 -2q-5 -1 -10 -2.5t-10 -3.5l-8 -4q-5 -2 -9 -5t-7.5 -6t-7 -6.5t-7 -7.5t-5.5 -8l-6 -8q-2 -4 -4 -9t-3.5 -9.5t-2.5 -9.5t-1.5 -10t-0.5 -10v-1q0 -14 -0.5 -28.5t-2 -28.5t-4 -28t-5.5 -27.5t-7 -27
t-8.5 -26.5t-9.5 -25.5t-11 -25t-12.5 -24.5t-13.5 -23.5t-15 -22.5t-16 -21.5t-17 -20.5l-18 -20q-9 -10 -19 -19l-20 -18q-5 -5 -12 -4t-11.5 6t-4 12t5.5 12q10 8 19 16.5t17.5 17.5t17 18.5t16 19.5t14.5 20l14 22q7 10 13 21.5t11.5 23t10 23t9 23.5t8 24.5t6.5 25.5
t5 25.5t3.5 26t2.5 27t1 26.5v1q0 6 0.5 13t2 13.5t3.5 13t4.5 12.5t5.5 12t6.5 11.5t8 10.5t9 9.5t9.5 8.5t10.5 8t11 7t11.5 5.5t12.5 4.5t13 3.5t13.5 1.5q14 2 28 0q7 0 13.5 -1.5t13 -3.5t12.5 -4.5t11.5 -5.5t11 -7t10.5 -8t9.5 -8.5t9 -9.5t8 -10.5t6.5 -11.5
t5.5 -12t4.5 -12.5t3.5 -13t2 -13.5t0.5 -13v-1q0 -17 -0.5 -34t-2 -34t-4.5 -34l-4 -32q-3 -17 -7 -33t-8 -31.5t-9 -31.5t-11 -31l-12 -30q-6 -15 -13 -29.5t-14.5 -28.5t-15.5 -28t-17 -27.5t-18 -26.5t-18.5 -25.5t-20.5 -25.5q-5 -6 -13 -6zM613 -194q-5 0 -9 3
q-6 4 -7.5 10.5t2.5 12.5q8 13 15.5 25.5t14.5 25t13.5 26t12.5 26.5t12 26.5t11 27.5l10 28q5 14 9 29l8 28q4 15 7.5 29.5t5.5 29.5q2 7 7.5 11t12.5 2.5t11 -7t3 -12.5q-3 -16 -6.5 -31t-7.5 -30t-8.5 -30t-9.5 -29.5t-10.5 -29t-11.5 -28.5l-12 -28q-6 -14 -13 -27.5
t-14.5 -27t-15 -26.5t-16.5 -26q-5 -8 -14 -8zM328 -168q-7 0 -12 5t-5 12.5t5 11.5q11 10 20 21l20 22q9 11 17.5 22.5t17 23.5t16 24t14.5 25t13.5 26t12.5 26.5t11 27.5t9.5 28t8.5 28.5t7 29t5 29.5t3.5 30.5t2.5 30.5t1 31q0 7 5 12t12 5t12 -5t5 -12q0 -16 -1 -32.5
t-2.5 -32.5t-4 -32t-5.5 -31.5t-7 -30.5t-9 -30t-10.5 -29.5t-11.5 -29t-13 -28.5t-14.5 -27.5t-15.5 -26.5t-16.5 -25.5t-18.5 -24.5l-18 -24q-10 -12 -20.5 -23t-21.5 -22q-5 -5 -12 -5zM789 -115q-3 0 -7 1q-6 3 -8.5 9.5t0.5 12.5q4 11 8.5 22t8.5 22t8 22.5t7 23.5
l8 22q3 12 6 23.5t5.5 23.5t5 23.5t5 23.5t4.5 24l2 24q2 12 3.5 24.5t2.5 25t1.5 25t1 24.5t0.5 25v1q0 17 -2 34t-5 34q-4 16 -8.5 32t-11 31.5t-14.5 29.5t-17 27.5t-19.5 26.5t-22 24.5t-24 21.5t-26 19.5t-28 17t-29.5 14t-31 11.5t-33 8q-16 4 -33 5q-18 2 -35 2
q-7 0 -12 5t-5 12t5 12t12 5q19 0 38 -2t37 -5q18 -4 35.5 -9.5t34.5 -12.5t32.5 -15.5t30.5 -19t29 -21.5t26.5 -24t24 -26.5t21.5 -28.5t18.5 -31t15.5 -32.5t13 -34.5q5 -17 9 -35q4 -19 6 -37q2 -19 2 -38v-1q0 -13 -1 -26v-26q-1 -13 -2 -25.5t-2.5 -25t-3 -25.5
t-3.5 -25.5t-4.5 -24.5t-5 -24.5t-5 -24.5t-6 -24t-6.5 -24t-7 -24t-8 -23l-8 -24q-4 -11 -8.5 -22.5t-9.5 -22.5q-5 -10 -16 -10zM135 -19q-8 0 -13 7q-4 5 -3.5 12t6.5 12q8 6 15 12t14 13t13.5 14t12.5 14.5t12 15.5t11 16t10 16.5t9.5 17.5t7.5 18l8 18q3 9 6 18.5
t5 19.5l4 20q2 10 3 20l2 20v18v4q0 13 1.5 25.5t4 25t6 24.5t8.5 23.5t10.5 22t12.5 21t15 20t16.5 18t18 16t19.5 14.5q6 4 12.5 2.5t10.5 -6.5q3 -5 3 -10q0 -9 -7 -14q-9 -6 -17 -12.5t-15.5 -14t-14.5 -16t-13 -17t-11 -18t-9 -19.5t-7.5 -20t-5.5 -21t-3 -22
q-1 -10 -1 -19v-4q0 -11 -0.5 -22.5t-2 -22.5t-3.5 -22t-4.5 -21.5t-5.5 -21t-6.5 -21t-8 -20t-9 -19.5t-10.5 -19l-10 -18q-6 -9 -12 -17l-14 -18q-6 -8 -13.5 -16t-15 -15t-15.5 -14l-16 -14q-5 -4 -11 -4zM74 87q-7 0 -12 5q-5 6 -4.5 13t5.5 11q4 4 8.5 8t8.5 8.5t7.5 9
t7 9.5t7 9.5t6.5 10t5.5 10.5t4.5 11l6 10q2 6 4 11.5t3.5 11.5t2.5 12l2 12l2 12q1 6 1 13v12v1q0 19 2 38q2 18 6 37q4 18 9 35q6 18 13 34.5t15 32.5q4 6 10.5 8t12.5 -1q9 -5 9 -15q0 -4 -2 -8q-8 -14 -14.5 -29.5t-11 -31.5t-8.5 -32q-3 -17 -5 -34t-2 -34v-1
q0 -7 -0.5 -14.5t-1 -14.5t-1.5 -14t-2.5 -13.5t-3.5 -13.5t-4 -13.5t-5 -13t-5.5 -12.5t-6 -12t-6.5 -12t-7 -11l-8 -12l-8 -10l-10 -10l-8 -10q-5 -5 -10 -9t-12 -4zM747 206h-1q-7 0 -12 5.5t-4 12.5q1 15 1.5 30.5t0.5 31.5v1q0 11 -1 22t-3 22t-5.5 21t-7.5 20t-9 19.5
t-11 18.5q-3 4 -3 9q0 9 7 14q6 4 13 2.5t11 -6.5q7 -11 12.5 -21.5t10.5 -22t8.5 -23.5t6 -24.5t4 -25t1.5 -25.5v-1q0 -16 -0.5 -32t-1.5 -33q-1 -6 -6 -10.5t-11 -4.5zM38 267v0h-2v0q-15 2 -15 17v0v1v0v1v1q0 25 2 50q3 24 8 49q5 23 12 47q7 23 16 45q10 22 21 43
t24.5 40.5t28.5 37.5t32 35q5 5 12 5t12 -5t5 -12t-5 -12q-16 -16 -30 -33t-26.5 -35t-23 -37.5t-19 -40t-15.5 -41.5q-6 -22 -11 -44q-5 -23 -7 -46q-2 -22 -2 -44v-3v-2v0v0v-1v0v-1v0q-1 -6 -5.5 -10.5t-11.5 -4.5zM986 270q-7 0 -12 5t-5 12q0 23 -2 46t-7 46
q-5 22 -11 44q-7 21 -16 42q-8 20 -18.5 39.5t-23 37.5t-26.5 35t-30 33q-5 5 -5 12t5 12t12 5t12 -5q17 -17 32 -35t28.5 -37.5t24.5 -40.5t21 -43q9 -22 16 -45q7 -24 12 -47q5 -25 8 -49q2 -25 2 -50q0 -7 -5 -12t-12 -5zM680 437q-7 0 -12 5q-8 8 -16 14.5t-17 12.5
t-18 11t-19 9.5t-20.5 7.5t-21 5t-21.5 4q-23 2 -46 0q-11 -2 -21.5 -4t-21.5 -5q-6 -2 -12.5 1t-8.5 10v5q0 12 11.5 16t24 6.5t25.5 3.5q26 3 52 0q13 -1 25.5 -3.5t24 -6.5t23 -8.5t22.5 -10.5t21 -13t19.5 -14.5t18.5 -16.5q5 -5 5 -12t-5 -12t-12 -5zM260 521
q-7 0 -11.5 5t-4.5 12t4 12q13 13 27 24t29 21.5t30.5 19t32.5 15.5t34 12q18 6 36 10q7 1 12.5 -3t7.5 -11v-3q0 -14 -13 -17q-17 -3 -33 -8t-31 -11.5t-29.5 -14t-28 -17t-26 -19.5t-24.5 -22q-5 -5 -12 -5zM777 663q-5 0 -9 3q-19 12 -38 22.5t-40 19.5t-42 15
q-7 2 -10 8.5t-1 13t8 10t13 1.5q23 -8 45 -17t43 -20.5t41 -24.5q5 -4 6.5 -11t-2.5 -13q-5 -7 -14 -7zM247 663q-9 0 -14 7q-4 6 -2.5 13t6.5 11q20 13 41 24.5t43 20.5t45 17q23 7 47 12t49 7q25 3 50 3t50 -3q7 -1 11.5 -6t4 -12t-6 -11.5t-12.5 -4.5q-23 3 -47 3
t-47 -3q-23 -2 -45 -6q-22 -5 -44 -12q-21 -6 -42 -15t-40 -19.5t-38 -22.5q-4 -3 -9 -3z" />
    <glyph glyph-name="uniE609" unicode="&#xe609;" 
d="M436 771q-2 -242 -28 -410l4 -1q25 85 56.5 114t62.5 -3.5t55 -120.5h3q-27 171 -29 421h-124zM355 355q3 -21 12.5 -30t23.5 -8.5t28 4.5t32 8.5t30 4.5q15 -1 38.5 -10.5t41 -17t41 -9.5t38.5 13q16 12 17 23.5t-5.5 17.5t-21.5 16t-21 15q-8 7 -13 14.5t-9.5 22
t-6 21.5t-6 31t-6.5 34q-4 21 -38.5 28t-68.5 -4.5t-36 -36.5q-2 -34 -14 -58.5t-25.5 -35t-23 -21.5t-7.5 -22zM605 216l-5 1q-24 -85 -55.5 -114t-62.5 3.5t-55 120.5l-3 1q28 -175 29 -417h125q0 229 27 405zM659 223q-4 20 -13.5 29t-23.5 8.5t-28 -4.5t-32 -8.5
t-30 -3.5q-15 1 -38.5 10t-41 17t-41 9.5t-38.5 -13.5q-16 -12 -17 -23t5.5 -17.5t21.5 -16.5t21 -15q8 -7 13.5 -14.5t9.5 -21.5t5.5 -21t6 -31.5t6.5 -34.5q4 -21 39 -28t68.5 4.5t35.5 36.5q2 34 14.5 58.5t25.5 35t22.5 22t8.5 22.5z" />
    <glyph glyph-name="uniE60A" unicode="&#xe60a;" 
d="M526 743q91 0 171 -32.5t139.5 -89.5t94 -133.5t34.5 -163.5q0 -89 -35.5 -165.5t-96.5 -133.5q-20 -22 -52 -22q-22 0 -42 13q-43 28 -62 58t-27.5 62.5t-12 65.5t-15 66.5t-36.5 67.5t-76 67q-26 17 -48.5 25t-45 15t-44 14.5t-45 23.5t-48.5 42t-53 69q26 37 61.5 65
t75 47.5t81.5 29t82 9.5zM570 266q15 -32 20.5 -61.5t8.5 -57t8.5 -52.5t20.5 -48t42.5 -44t77.5 -40q3 -3 5 -11.5t5 -20t9.5 -26.5t19.5 -30q-92 -22 -170.5 -25.5t-158.5 20.5q9 22 13 40.5t5 34.5t0.5 30.5t-1.5 29.5q-2 30 -21 37t-44 3.5t-50 -12t-41 -11.5
q-17 -3 -36 -4.5t-35.5 1t-26 10t-6.5 22.5q2 12 4.5 28.5t2.5 34t-5.5 33.5t-19.5 27q-7 4 -20.5 10.5t-26 15t-18.5 16.5t3 16q21 16 42.5 35.5t32.5 41.5q5 10 6 21.5t-0.5 21t-3.5 17.5t-2 13t-4 13t-8 22.5t-6.5 36t2.5 54.5q-27 -7 -38.5 -30.5t-7.5 -58.5
q-16 24 -17 45t6.5 38t22.5 30.5t31 22.5q27 -57 58.5 -86t65.5 -43.5t69 -21.5t68 -20t63.5 -39.5t54.5 -78.5z" />
    <glyph glyph-name="uniE60B" unicode="&#xe60b;" horiz-adv-x="1226" 
d="M1211 250l-78 50l-119 158q-11 12 -18 12h-192v165q0 22 -16 22h-342q-24 66 -84 110.5t-134 44.5q-95 0 -161.5 -67t-66.5 -162q0 -59 28 -109.5t78 -81.5v-430v-105q0 -17 18 -17h173q12 -30 34 -41t53.5 -11t53.5 11t33 41h412q12 -30 33.5 -41t53.5 -11t53.5 11
t33.5 41h134q11 0 22.5 4.5t11.5 12.5v105v270q0 8 -14 18zM986 423l123 -148q1 -1 3 -2t4 -3l3 -1l60 -48v-218h-375v380v40h182zM42 583.5q0 76.5 54.5 131t131.5 54.5t132 -54.5t55 -131t-55 -131t-132 -54.5t-131.5 54.5t-54.5 131zM230 355q95 0 162 65.5t67 159.5
q0 31 -3 31h304v-172v-51v-385h-611v367q34 -15 81 -15zM149 -114v70h154q-18 -34 -18 -64v-6h-136zM384.5 -173q-23.5 0 -40 17.5t-16.5 41.5t17 43t39.5 19t39.5 -19t17 -43t-16.5 -41.5t-40 -17.5zM484 -114v6q0 30 -18 64h322h100q-18 -34 -18 -64l1 -6h-387zM970 -173
q-23 0 -40 17.5t-17 41.5t17 43t40 19t39.5 -19t16.5 -43t-16.5 -41.5t-39.5 -17.5zM1069 -114v6q0 30 -17 64h127v-70h-110zM239 564h-112q-9 0 -15 6.5t-6 15.5t6 16.5t15 7.5h94v73q0 9 7 15.5t16 6.5t16 -6.5t7 -15.5v-106q0 -13 -28 -13z" />
    <glyph glyph-name="uniE60C" unicode="&#xe60c;" 
d="M512 107q-198 0 -348 94q-70 44 -109 99t-39 111t39 111t110 99q149 94 347.5 94t347.5 -94q71 -44 110 -99t39 -111t-39 -111t-110 -99q-150 -94 -348 -94zM512.5 681q-188.5 0 -330.5 -88q-62 -39 -97 -87.5t-35 -94.5t35 -94.5t97 -87.5q142 -88 330.5 -88t330.5 88
q62 39 97 87.5t35 94.5t-35 94.5t-97 87.5q-142 88 -330.5 88zM512.5 246q-68.5 0 -117 48.5t-48.5 116.5t48.5 116.5t117 48.5t116.5 -48.5t48 -116.5t-48 -116.5t-116.5 -48.5zM512 541q-54 0 -92 -38t-38 -92t38 -92.5t92 -38.5t92.5 38.5t38.5 92.5t-38.5 92t-92.5 38z
M428 390q-7 0 -12 5t-6 12q-1 46 35 77q5 5 12 4t12 -6t4.5 -12.5t-6.5 -11.5q-23 -20 -22 -51q0 -7 -5 -12t-12 -5z" />
    <glyph glyph-name="uniE60D" unicode="&#xe60d;" 
d="M615 -14q-13 -1 -36.5 3t-28.5 4q-9 1 -12 9q-7 18 -17 1.5t-26 -5.5q-18 11 -25 -7q-11 -24 7 -33q6 -2 11 -2.5t13 1.5t10 2q11 1 15.5 -3t0.5 -14q-6 -14 10 -21q8 -3 27 -6.5t28 -8.5q26 -7 31 18q4 22 10 28q10 12 5 28q-9 8 -23 6zM645 68q-13 8 -34 7.5t-34 0.5
q-7 0 -13 -0.5t-11.5 2.5t-9.5 10q-2 5 -6 5t-7 -6q-6 -19 -27 -8q-18 11 -22 -11q-2 -15 6.5 -24t23.5 -7q3 0 9.5 1.5t9.5 1.5q21 3 18 -16q-2 -18 17 -20q33 -5 57 -13q5 -2 11.5 -0.5t6.5 5.5q-1 14 3.5 37.5t4.5 28.5q0 1 -3 6zM552 154q-17 -8 -28 5q-5 5 -9 5t-4 -8
q0 -12 -5.5 -15t-15.5 2q-15 4 -17 -7q-3 -15 8 -26.5t26 -8.5q1 0 16 8q22 10 27 -11q3 -11 13 -16q32 -7 65 -4q7 1 10.5 2t6.5 5t0 12q-1 3 -6.5 11.5t-7.5 15.5t-1 15q2 13 -3.5 18.5t-20.5 6.5q-40 -5 -54 -10zM439 347q7 -13 22 -11q23 3 45 0q13 -1 16.5 5.5
t-3.5 17.5q-14 22 -10 39q2 11 -10 20q-15 9 -32 -7q-5 -1 -18 -2t-20 -3q-8 -3 -13 4q-10 9 -12.5 6.5t-3.5 -13.5t-14 -9q-15 4 -19 -1t0 -20q6 -19 28 -19q1 0 4 0.5t4 2.5q17 10 21.5 8.5t14.5 -18.5zM546 239q-2 -1 -4 -3l-1 -1q-3 -3 -18 -2q-1 -1 -3 -2q-1 -1 -2 -1
h-1q-4 2 -8 1h-2q-4 3 -12 1q0 1 -2 2q-11 6 -12 -5q1 -2 4 -7q-1 -9 -7 -11t-13 0q-17 2 -12 -16q5 -19 20 -23.5t30 8.5q11 9 16.5 8t13.5 -13q10 -15 19 -14q12 -2 31.5 3.5t25.5 5.5q18 2 11 20q-2 3 -10.5 12t-11.5 16q-1 2 -1 5.5t-1 5.5l-1 1q1 7 -4 12q1 0 1 1
q-14 18 -33 4q0 -1 -13 -8zM378 449q7 0 16 4q18 8 20 -9q3 -25 32 -27q7 -2 18.5 1t15.5 3q14 1 16 3.5t-1 17.5q-7 10 -1 25q6 16 -2 26q-2 2 -4 3q10 2 10 15q-7 30 5 48q8 12 -1 18q0 1 -1 3q-3 3 1 5q9 4 8 15q-2 21 15 43q8 10 5 16q-5 8 -16 3q-9 -4 -25.5 -3.5
t-25.5 -1.5q-8 -2 -10 5q-2 14 -11 4l-1 -2q-1 -1 -4 -5t-4 -5t-4 -3t-5 -2t-5.5 1t-7.5 4q-5 4 -11 -3q0 -1 -2.5 -4t-3 -3.5t-2.5 -3t-2.5 -4t-1.5 -4t-1.5 -4t-0.5 -3.5t0.5 -4t2.5 -5t4.5 -5t6 -1.5t5.5 1t7 2.5t6 3h2q11 5 14 2.5t1 -14.5q-1 -10 1.5 -15t12.5 -4
q5 -4 14.5 -3.5t15.5 -0.5q-26 0 -34 -3q-1 0 -4 -0.5t-5 -0.5t-4.5 0.5t-4 2t-2.5 4.5q-5 16 -14 0q-10 -19 -24 -7q-7 5 -12 -1q-14 -18 -8 -33q5 -12 25 -8q2 0 10 4q10 3 14 -0.5t3 -12.5q-2 -14 12 -21q7 -1 21.5 -3t21.5 -4q0 -1 1 -1q-4 -1 -8 -5q-5 -3 -20.5 -1
t-20.5 1q-12 -2 -17 8q-9 15 -14 -2q-6 -18 -21 -8q-11 7 -16 -1q-9 -15 -2.5 -28.5t22.5 -11.5zM564 -92q-11 -1 -29.5 4.5t-21.5 5.5q-10 2 -11 9q-3 16 -14 3q-13 -15 -28 -2q-8 9 -17 -1q0 -1 -3 -4t-3.5 -4t-2.5 -4t-2.5 -4.5t-0.5 -4.5t1 -5q4 -12 26 -10q1 0 3.5 0.5
t3.5 0.5q12 0 14 -3.5t-4 -12.5q-10 -16 10 -21q21 -5 35 -15q17 -2 22.5 0.5t12.5 17.5q6 12 19 22q13 11 7 21q-8 9 -17 7zM438 257q5 -6 17 -1q17 17 31 6h1q-1 -5 3 -5q1 -4 5 -7q12 -7 21 -1q4 -3 8 -1q4 1 5 5q2 1 6 2.5t6 2.5h3q5 -4 16 -1q12 4 14 9.5t-6 15.5
l-15 15v6q-1 2 -2 6t-2 6v1q2 3 0 5q-3 5 -4 7q-7 16 -24 7q-2 -1 -18 -11q-3 -1 -12 -2t-14 -4q-8 -2 -17 -3q-9 5 -10 6q-7 4 -9 0q-5 -5 1 -10q-2 -10 -4 -14q-5 -3 -10 -0.5t-10.5 1.5t-6.5 -7q-5 -20 19 -33l5 -1h1h2z" />
    <glyph glyph-name="uniE60E" unicode="&#xe60e;" 
d="M1019 -181l-289 288q53 58 82 131t29 153q0 114 -56.5 211t-153 153.5t-210.5 56.5t-211 -56.5t-153.5 -153.5t-56.5 -211t56.5 -210.5t153.5 -153t211 -56.5q80 0 153 29t131 82l288 -289q5 -5 12.5 -5t13 5.5t5.5 13t-5 12.5zM37 391.5q0 104.5 51.5 193t139.5 139.5
t192.5 51t193 -51t140 -139.5t51.5 -193t-51.5 -193t-140 -140t-193 -51.5t-192.5 51.5t-139.5 140t-51.5 193zM343 692q-82 -21 -142 -81t-81 -142q-2 -7 1.5 -13.5t11.5 -8.5q2 -1 4 -1q14 0 18 14q19 72 71.5 125t125.5 72q7 2 11 8.5t2 14t-8.5 11t-13.5 1.5z" />
    <glyph glyph-name="uniE60F" unicode="&#xe60f;" 
d="M62 29zM885 454q-30 73 -87 130t-130 87q-74 30 -154 30t-154 -30q-72 -30 -129 -87t-87 -130t-30 -153t30 -153.5t87 -130t129 -86.5q74 -31 154 -31t154 31q73 30 130 86.5t87 129.5q30 74 30 154t-30 153zM839 167q-27 -64 -77 -114t-113 -76q-64 -27 -134 -26.5
t-135 26.5q-64 25 -113 76t-73.5 113.5t-28 133.5t24.5 135q26 64 77.5 113.5t114 74.5t133 28t134.5 -26q64 -28 113.5 -77t76.5 -113q26 -64 26 -134.5t-26 -133.5zM687 273h-166v248q0 15 -12.5 21t-25 0t-12.5 -21v-276q0 -15 11 -21q8 -7 18 -7h187q12 0 20 8t8 20
q0 11 -8 19.5t-20 8.5zM957 29z" />
    <glyph glyph-name="uniE610" unicode="&#xe610;" 
d="M910 388l-265 38l-119 241l-119 -241l-265 -38l192 -188l-45 -264l237 124l237 -124l-45 264zM526 119l-168 -89l31 188l-136 133l189 27l84 171l84 -171l188 -27l-136 -133l32 -188z" />
    <glyph glyph-name="uniE611" unicode="&#xe611;" 
d="M511.5 734q-90.5 0 -173 -35.5t-142 -95t-94.5 -142t-35 -172.5t35 -172.5t94.5 -142t142 -95t173 -35.5t173 35.5t142 95t94.5 142t35 172.5t-35 172.5t-94.5 142t-142 95t-173 35.5zM511.5 -100q-105.5 0 -195.5 52t-142 141.5t-52 195t52 195.5t142 142t195.5 52
t195 -52t142 -142t52.5 -195.5t-52.5 -195t-142 -141.5t-195 -52zM678 317h-139v139q0 11 -8 19.5t-19.5 8.5t-19.5 -8.5t-8 -19.5v-139h-139q-12 0 -20 -8.5t-8 -20t8 -19.5t20 -8h139v-139q0 -11 8 -19.5t19.5 -8.5t19.5 8.5t8 19.5v139h139q12 0 20 8t8 19.5t-8 20
t-20 8.5z" />
    <glyph glyph-name="uniE612" unicode="&#xe612;" horiz-adv-x="1394" 
d="M1322 661h-976q-21 0 -36.5 16.5t-15.5 40t15.5 40t36.5 16.5h976q22 0 37.5 -16.5t15.5 -40t-15.5 -40t-37.5 -16.5zM1322 244h-976q-21 0 -36.5 16.5t-15.5 39.5t15.5 39.5t36.5 16.5h976q22 0 37.5 -16.5t15.5 -39.5t-15.5 -39.5t-37.5 -16.5zM1322 -174h-976
q-21 0 -36.5 16.5t-15.5 40t15.5 40t36.5 16.5h976q22 0 37.5 -16.5t15.5 -40t-15.5 -40t-37.5 -16.5zM0 -118q0 39 27.5 67t66.5 28t67 -28t28 -67t-28 -66.5t-67 -27.5t-66.5 27.5t-27.5 66.5zM0 296q0 39 27.5 66.5t66.5 27.5t67 -27.5t28 -67t-28 -67t-67 -27.5
t-66.5 27.5t-27.5 67.5zM0 718q0 39 27.5 66.5t66.5 27.5t67 -27.5t28 -66.5t-28 -67t-67 -28t-66.5 28t-27.5 67z" />
    <glyph glyph-name="uniE613" unicode="&#xe613;" 
d="M214 54h219l-19 36h-200v-36zM760 -55v-19q0 -15 -10.5 -25.5t-25.5 -10.5h-565q-15 0 -26 10.5t-11 25.5v748q0 15 11 25.5t26 10.5h383v-164q0 -30 21 -51.5t52 -21.5h54v0h91v-83l37 -16v117l-7 7l1 6l-224 243h-80h-328q-30 0 -51.5 -21.5t-21.5 -51.5v-748
q0 -30 21.5 -51.5t51.5 -21.5h565q30 0 51.5 21.5t21.5 51.5v27q-1 22 -37 -8zM578 680l160 -170h-123q-16 0 -26.5 10.5t-10.5 25.5v134zM487 346h-273v-37h273v37zM487 473h-273v-36h273v36zM214 218v-36h183l18 36h-201zM937 312l-28 28q-10 10 -20 0l-272 -269l-113 113
q-10 9 -19 0l-29 -28q-10 -10 0 -19l123 -122l20 -20l4 -5l5 -4q9 -9 19 0l310 307q10 10 0 19z" />
    <glyph glyph-name="uniE614" unicode="&#xe614;" 
d="M597 589zM816 302q-3 3 -10 27.5t-9 27.5q-15 30 -17.5 58t0 41.5t-8.5 36.5q-4 7 -14 24t-15 26.5t-12.5 24t-13 27t-9.5 25.5q-5 17 -19 32.5t-23.5 29t-7.5 32.5q2 36 2 50t-6 49l-15 2q-21 5 -44 8l-1 -22q-1 -19 8.5 -33t7 -27t-10 -16t-16 0.5t-21.5 6t-23 0.5
q-9 -3 -19 -2t-20.5 2.5t-11.5 1.5q-19 -5 -22.5 2t8.5 17q15 24 19.5 38.5t2.5 39.5q-23 0 -45 -1q-9 -28 -7 -40.5t7 -16.5t11 -3.5t6 -3t-10 -13.5q-10 -12 -28.5 -8t-21.5 -1q-10 -16 -17 0q-3 7 -1 14q2 10 6 20t5 14t1 12.5t-2 22.5q-39 -4 -74 -10l15 -9
q-2 -30 3 -61q14 -73 -14 -107q-68 -80 -80 -189q-4 -40 -19 -91t-16 -57q-2 -13 -12.5 -49t-8.5 -62q1 -23 13 -33t26 -8t24 12q3 2 5.5 5t4.5 8l5 9q2 4 4.5 11.5t4 11.5t5 13t4.5 13t4.5 14.5t3.5 12.5q10 30 31 74q11 12 15 4q1 -2 0 -5q-5 -17 -14 -43t-14 -44t-7 -41
q-3 -24 -6 -45.5t-4 -30.5t-2 -16q-8 -100 27 -104q21 -3 35 11.5t18.5 32t9.5 43.5t7 34q10 30 17.5 79.5t12.5 70.5q2 11 4 10t1 -10q-1 -25 -5 -65.5t-5 -68.5q0 -22 -3.5 -60.5t-4.5 -60.5t2 -61q2 -11 14 -19.5t26.5 -11t28 5t17.5 26.5q19 86 28 215q1 31 7 89
q1 12 4 13q6 2 6 -21v-18v-19q0 -24 -1 -69.5t-1 -69.5q2 -120 51 -120q8 0 15 2.5t12 8.5t9.5 12t7.5 15.5t5 16t4 18t3 17t2 16t2 12.5q2 25 1.5 64.5t1.5 64.5q1 25 -1.5 82t1.5 90q2 15 7 14q6 -1 9 -18q1 -7 4.5 -26.5t5 -26t5 -20.5t7 -20t9.5 -15.5t13.5 -15.5
t17.5 -12q41 -23 76 -3q31 16 18 44q-4 8 -11 16zM778 258l-12 5q-11 4 -12 22.5t-15 21.5q-8 2 -11.5 13t2.5 15q-8 -1 -12 3.5t-4 13.5v18q0 10 -1.5 22.5t-6.5 22.5q-2 2 -6.5 9.5t-7 12t-4 11t0.5 11.5t9 9q-10 1 -18 4q-1 -1 -0.5 -6t-4.5 -2q-5 0 -5.5 4t3.5 8
q-11 7 -8.5 20.5t-0.5 22.5l-19 33q-4 6 -21.5 17.5t-20.5 24.5q2 -10 -4 -27.5t-4 -26.5q3 -11 4.5 -49t5.5 -68t14 -37q3 -1 3 -6.5t-5 -7.5q2 -14 -7 -24q5 -2 7.5 -6.5t2.5 -10.5t-1 -10l-3 -10q-1 -6 -1 -7q-6 -25 -1.5 -47t7.5 -31t-9 -33q6 0 8.5 -1.5t2 -5t-2 -7
t-3.5 -8t-2 -5.5q-5 -19 -5 -31t2.5 -16t5 -7t1.5 -9t-7 -18q11 -6 2 -21q-1 -2 -2 -3q-9 -13 -5.5 -28.5t1.5 -20.5q-6 -11 -10.5 -13.5t-7 -0.5t-5.5 6l-1 2q-10 14 -3 31.5t0 25.5q-11 12 5 21q-10 7 -10 19.5t4 23.5t0 24q-1 1 -3.5 6.5t-3.5 8t-2 7t0 8t3 6.5
q-6 8 -1 19t4 26l-5 49q-1 9 -7 23.5t-6 24t11 16.5q-9 7 -5 15q-5 1 -7.5 3t-2.5 7v10q0 5 1.5 13.5t1.5 13.5q4 57 1 109q1 14 -10 29.5t-13 23.5q-2 -13 -14 -28.5t-13 -28.5q0 -7 -5 -34.5t-3.5 -46t10.5 -32.5q1 -1 3 -3.5t3 -3.5t1.5 -3.5t0 -4t-2.5 -4t-5 -4.5
q7 -10 5 -19.5t-11 -17.5q6 -6 7 -12t0.5 -9t-5 -10.5t-4.5 -9.5q-8 -15 -9.5 -54t7.5 -50q5 -6 -2 -15t-15 -7q25 -7 4 -50q-8 -17 -6.5 -44.5t-1.5 -42.5q10 -1 8.5 -8.5t-9.5 -8.5q-3 0 -7.5 -9t-5 -17t3.5 -10q5 -5 1 -11t-11 -12q-9 -7 -12 -5.5t-9 11.5q-6 11 2 24
t2 25q0 1 -2 3.5t-2.5 4t0.5 4.5t5 6q-5 2 -6 6t0.5 10.5t3.5 12.5t5.5 15t4.5 16q4 16 2 33t-3.5 24t6.5 20q-11 -3 -11.5 11t2.5 27q5 40 3 83q0 9 -4 21t-4 19q0 9 4 10t14 -3q-6 6 -9 14l-5 2q-6 28 15 85q1 3 5 14t5 14.5t4 13t3.5 14t1.5 13t0 14.5t-3.5 14t-5.5 15
q-22 -1 -38.5 -51.5t-13.5 -73.5q2 -14 -6 -25q8 -12 -2 -21q7 -2 9 -8t-1 -14.5t-7 -17t-9.5 -21.5t-8.5 -23l-9 -29q-4 -13 -1.5 -23t1.5 -16t-8 -6q4 -1 5.5 -3t0.5 -4.5t-3 -5t-5 -6.5l-5 -8q-11 -23 -12 -43.5t-0.5 -29.5t-7.5 -12q16 -8 -5 -25q-4 -3 -4 -14t3 -15
t-4.5 -11t-13.5 -7q-7 1 -10.5 14.5t2.5 15.5q2 1 5 16q1 9 -2.5 13.5t-4.5 5.5t7 11q-3 4 -3.5 9t1 11t2.5 9.5t4.5 11.5t4.5 9q4 12 4 21.5t-2 16t-1 12t8 9.5q-4 1 -5.5 2.5t-0.5 3t3 4t3 4.5q9 14 7 44.5t5 44.5q8 15 6 26t-1.5 18.5t9.5 10.5q-4 5 -4 18q-7 6 0 24
t18.5 35t22 47.5t8.5 60.5q-27 -14 -43 -44.5t-21 -54t-7 -24.5q4 -23 -15 -25q4 -6 1.5 -13.5t-5.5 -11t-8.5 -10t-8.5 -10.5q-8 -11 -15.5 -41t-18.5 -42q8 -8 -2.5 -24t-9.5 -23q4 -21 -12 -25l-1 -1q0 1 1 1q-5 -1 -7 -6q-1 -3 -1 -10t-2 -12t-7 -9q-14 -13 -13 6
q0 11 5 25q2 6 -2 8h10q-5 0 -7 2.5t-1 6.5t3 8.5t4.5 11t2.5 11.5q1 3 1.5 10t1.5 11t2.5 8t4.5 6t8 1q-4 4 -4 8.5t4 14.5t8 18.5t9.5 19.5t8.5 18q3 9 5 22.5t5 21.5t11 11q-10 9 -5 17q-4 14 -1 20.5t12 16.5t10 17q4 17 23 40.5t23 39.5q1 3 2.5 13t3 14t8.5 8.5
t19 4.5q-3 2 -0.5 6t3.5 5t5 4t6 4q-9 3 -10 10q-13 -7 -14 7q0 19 14 30q11 10 21 -3q1 0 4.5 5.5t6.5 8.5t8 4.5t9 -6.5q11 20 34 29.5t45 1.5q29 6 45 0.5t21 -19.5q1 -8 7.5 -13t11 -7t3.5 -9t-11 -19h5q10 0 14 -0.5t10.5 -1.5t8.5 -3t4 -6t1.5 -10.5t-1.5 -15.5
q35 5 38 -35q2 -20 21.5 -52t19.5 -53q13 1 16 -10.5t-1 -21.5q-3 -8 4 -32t13 -44.5t2 -23.5q10 -3 10 -16.5t2 -22.5l11 -19q8 -16 6 -30q-1 -7 -8 -4z" />
    <glyph glyph-name="uniE615" unicode="&#xe615;" 
d="M778 703q1 -1 1.5 -2.5t1.5 -2.5q49 -74 77 -152q17 -45 20 -83q5 -44 -7 -77q-9 -25 -29 -43q-22 -22 -50 -29q-30 -8 -62 0q-33 8 -69 32q-1 1 -21 15q-45 -48 -109 -49t-109 46q-5 -4 -7 -6q-41 -35 -96 -42q-47 -7 -86.5 19t-54.5 69q-8 22 -10 47v4v16v2v3
q1 2 1.5 10.5t1.5 13.5q8 48 36 102q26 48 69 103q0 1 2 3q167 1 500 1zM527 652h-220q-4 0 -6 -3q-3 -4 -14 -19.5t-16 -24.5q-31 -47 -44 -91t-7 -79q5 -33 27 -53q25 -25 56 -23q55 2 93 44q2 3 2 6v129v8q2 13 13.5 19t22.5 0q14 -8 14 -25v-132q0 -3 2 -6
q10 -14 26 -24q31 -21 68 -15.5t61 34.5q2 4 2 8v136l2 10q4 12 16.5 15.5t22.5 -4.5t10 -23q-1 -22 -1 -63v-61q0 -4 3 -6q35 -25 38 -27q25 -16 53 -21q25 -4 45 9t28 34q8 22 5 56q-5 37 -23 83q-20 51 -53 106q-2 3 -7 3h-219zM524 48h-202q-38 0 -62 28q-19 21 -20 47
v62v85q0 16 10 23q12 9 25 3q14 -6 15 -21v-6v-133q0 -11 4 -18q9 -18 30 -19h2h395q19 0 30 14q6 8 6 21v136q0 15 10 23q12 9 25.5 3t15.5 -21v-1v-2v-68q0 -51 -1 -80q0 -24 -16.5 -45.5t-41.5 -26.5q-12 -3 -24 -3q-34 -1 -201 -1z" />
    <glyph glyph-name="uniE616" unicode="&#xe616;" 
d="M915 373l-356 -352q-15 -21 -47 -21q-14 0 -26 5.5t-16 10.5l-5 5l-356 352q-66 70 -66 162q0 96 68 164.5t162 68.5q96 0 162 -66l75 -85l75 85q69 66 162 66q95 0 162.5 -68t67.5 -165q6 -90 -62 -162z" />
    <glyph glyph-name="uniE617" unicode="&#xe617;" 
d="M910 724zM512 292q-68 0 -116 48t-48 115.5t48 116t116 48.5t116 -48.5t48 -116t-48 -115.5t-116 -48zM512 564q-45 0 -77 -32t-32 -76q0 -45 32 -77t77 -32t77 32t32 76.5t-32 76.5t-77 32zM823 696l-15 22l-1 1l-3 3q-3 4 -10 10l-9 10l-8 9q-2 2 -7.5 6.5t-7.5 7.5
q-3 1 -3 3q-9 7 -20 5.5t-18 -10.5q-10 -13 -3 -28q3 -6 8 -10q2 -2 4 -3q1 -1 4 -3.5t5 -4.5l13 -13q1 -1 2.5 -3t3.5 -3.5t4 -3.5q1 -1 3.5 -4t3.5 -5q73 -91 73 -205q0 -44 -27.5 -106t-66 -118t-87 -116t-83 -97.5t-61.5 -64.5q-47 48 -97.5 105.5t-106 130.5t-91 144.5
t-35.5 121.5q-1 89 42.5 164.5t118.5 119.5t164 44q5 0 15 -0.5t15 -0.5h5q25 -3 54 -11q2 -1 5 -2t5 -2t5 -2h2q11 -3 21 1.5t13 14.5q4 11 0 21t-15 14q-4 1 -11.5 3.5t-11.5 4.5q-23 8 -60 11q-4 0 -6 1h-9q-10 1 -27 1q-103 0 -191 -51t-139.5 -139t-51.5 -192
q0 -41 19 -92.5t46.5 -99t67.5 -102t72.5 -93.5t71.5 -81t54.5 -58t31.5 -31q1 -2 2 -2q7 -7 18 -7q6 0 12.5 3t44 41t92 101.5t106.5 134t88.5 149.5t36.5 137q1 120 -70 219z" />
    <glyph glyph-name="uniE618" unicode="&#xe618;" 
d="M869 616q-78 -63 -180.5 -119.5t-132.5 -62.5q-42 -10 -101 -40q-10 -6 -12.5 -11t-0.5 -8l3 -3q33 -56 111 -206q6 -41 21 -81.5t33.5 -68.5t35.5 -50t29 -33l11 -11q-40 0 -75 6q-161 261 -202 319l10 -6q-6 4 -12 9q-8 11 -10 11q-7 1 10 -11q1 -2 2 -3q-9 6 -16.5 14
t-14 20t-6 28.5t10.5 34.5q48 41 17 42q-11 0 -26 -6q-16 -5 -34.5 4.5t-45 32.5t-33.5 28q-18 12 -43.5 10.5t-36 -17.5t10.5 -49q21 -30 51.5 -62t50 -49.5t20.5 -17.5q205 -318 214 -344q2 -6 2 -12v-14v-9q-23 -5 -53 -9q-57 41 -107.5 86.5t-84 84t-62.5 76.5t-44 63
t-26.5 45t-12.5 22q-5 7 -9 56.5t-10 67.5q-18 51 19 73q7 4 25.5 23.5t44.5 49.5t50 57.5t51 59.5t37 43q23 15 51 57t56 83.5t50 54.5q39 26 83 21.5t57 -43.5q8 -25 58 -58q-32 -27 -56 -46q-4 -3 -44.5 -36.5t-75.5 -60.5t-79 -59t-77 -48.5t-48 -12.5q-27 7 -47 -2.5
t-14.5 -34t44.5 -53.5q18 -12 32.5 -19.5t25.5 -7t19 1.5t15 9t9.5 11t7.5 13l5 10q6 12 1 19t-3.5 19t18.5 25q33 26 366 221l9 -4q3 0 9 -1.5t22 -6.5t28.5 -11t24 -16t14 -22t-6.5 -29.5t-33 -36.5z" />
    <glyph glyph-name="uniE619" unicode="&#xe619;" 
d="M381 68q8 -9 20.5 -9t20.5 8l326 323q8 9 8 21t-8 21h-1q0 1 -1 1l-322 326q-9 9 -21 9t-20.5 -9t-9 -21t8.5 -21l303 -306l-304 -302q-9 -8 -9 -20.5t9 -20.5zM381 68z" />
    <glyph glyph-name="uniE61A" unicode="&#xe61a;" 
d="M978 449h-43v129q0 44 -31.5 75.5t-76.5 31.5h-43v42q0 45 -26.5 76.5t-63.5 31.5h-597q-38 0 -64.5 -31.5t-26.5 -76.5v-116h6q-6 -16 -6 -33v-514q0 -44 31.5 -75.5t76.5 -31.5h713q45 0 76.5 31.5t31.5 75.5v128h43q17 0 30 14t13 33v164q0 19 -12.5 32.5t-30.5 13.5z
M154 782h503q69 0 69 -97h-612h-50q0 43 26 70t64 27zM872 107q0 -87 -88 -87h-626q-89 0 -89 87v428q0 87 89 87h626q89 0 89 -87v-86h-132q-18 0 -30.5 -13.5t-12.5 -33.5v-163q0 -19 12.5 -33t30.5 -14h132v-85h-1zM957 238h-173q-16 0 -23 0.5t-13.5 6.5t-6.5 18v116
q0 12 6.5 18t13.5 7t23 1h173q17 0 19 -3t2 -23v-117q0 -19 -2 -21.5t-19 -2.5zM827.5 364q-17.5 0 -30.5 -13t-13 -30t13 -30t30.5 -13t30 13t12.5 30t-12.5 30t-30 13z" />
    <glyph glyph-name="uniE61B" unicode="&#xe61b;" 
d="M200 58l280 99l489 489l-169 169l-489 -489zM800 740l94 -94l-75 -75l-94 94zM687 627l94 -94l-301 -300l-94 93zM444 193l-174 -68l74 169zM870 464v-404q0 -24 -17 -41t-41 -17h-627q-24 0 -41 17t-17 41v626q0 24 17 41t41 17h408v49h-428q-36 0 -61.5 -25.5
t-25.5 -61.5v-667q0 -36 25.5 -61.5t61.5 -25.5h667q36 0 61.5 25.5t25.5 61.5v425h-49z" />
    <glyph glyph-name="uniE61C" unicode="&#xe61c;" 
d="M891 169q-43 142 -27 298q16 150 85 260q9 14 9 29v3v2q-1 4 -2 7q-8 34 -43 39q-4 1 -8 1q-29 0 -45 -27q-92 -148 -104 -350q-5 -96 11 -191q24 -143 92 -252q18 -28 47 -28q14 0 27 8q19 11 24 32q5 22 -9 43q-36 57 -57 126zM164 782q-17 26 -45 26q-4 0 -8 -1
q-28 -3 -40 -28q-12 -27 4 -53q35 -57 56 -122q46 -144 29 -303q-17 -150 -86 -260q-12 -20 -7 -41t24 -32q13 -8 28 -8q28 0 44 25q17 27 26 45q78 154 80 339q0 150 -39 269q-25 78 -66 144zM487 165q0 23 7.5 39t17.5 16t17.5 -16t7.5 -39t-7.5 -39t-17.5 -16t-17.5 16
t-7.5 39z" />
    <glyph glyph-name="uniE61D" unicode="&#xe61d;" horiz-adv-x="1025" 
d="M871 455q-11 0 -19 -8t-8 -19v-253q0 -11 8 -19v0q8 -8 19 -8h73q11 0 19 8v0q8 8 8 19v253q0 11 -7 18l-1 1q-8 8 -19 8h-73zM583 69q-2 0 -3 1q-15 8 -31 4q-18 -5 -27 -21q-5 -9 -6 -20v-2q0 -6 2 -11q4 -16 18 -25l4 -2q15 -8 31 -4q17 5 26 20l2 2q7 15 3 32
q-4 16 -19 26zM609 116q35 -20 45 -59t-10 -74v0q-20 -35 -59 -45.5t-74 9.5v1q-34 19 -45 57h-173h-3q-50 1 -106 16t-99 42q-85 55 -85 140v225q0 34 24 57.5t57 23.5h11q14 153 123 263q59 58 136.5 91t164 33t164.5 -33t136 -91q110 -109 123 -263h5q33 0 57 -24
q1 0 2 -2q22 -23 22 -55v-253q0 -33 -24 -57t-57 -24h-73q-33 0 -57 24t-24 57v253q0 34 23.5 57.5t57.5 23.5h14q-13 131 -107 225q-51 51 -119 79.5t-143.5 28.5t-143 -28.5t-119.5 -79.5q-93 -94 -107 -225h8q34 0 57 -24l2 -2q22 -23 22 -55v-228q0 -12 -8 -19.5
t-19 -7.5t-19 7.5t-8 19.5v228q0 10 -7 18l-1 1q-8 8 -19 8h-73q-11 0 -19 -8t-8 -19v-225q0 -56 60 -94q36 -24 85 -36.5t93 -14.5h1h173q4 12 10 22v0q20 35 59 45.5t74 -9.5v0z" />
    <glyph glyph-name="uniE61E" unicode="&#xe61e;" 
d="M160 133q-13 0 -22 -9.5t-9 -23t9.5 -22.5t22.5 -9q6 0 16.5 -1t38 -6t53.5 -14t57.5 -28t55.5 -45q9 -11 24 -11q12 0 21 8q10 9 10.5 22t-8.5 23q-29 33 -67 56.5t-70 34.5t-64 17t-47 7t-21 1zM833 305q51 88 62 192t-23 186q-8 19 -29 19h-10q-94 0 -173 -36
q-56 105 -127 156l-4 4q-15 9 -31 2q-4 -2 -8 -5q-71 -52 -128 -155q-78 34 -169 34h-10q-21 0 -29 -19q-34 -82 -23 -186t62 -191q45 -76 112 -121.5t148 -56.5q4 -1 9 -1h19v-159q0 -13 9.5 -22.5t22.5 -9.5t22.5 9.5t9.5 22.5v159h19q4 0 9 1q81 10 148 56t112 121z
M560 191h-2h-90h-2q-140 16 -217 147q-41 69 -52.5 151.5t9.5 148.5q85 -2 155 -40q12 -7 25 -3t19 17q48 96 106 146q57 -49 106 -148q6 -13 19 -17t25 3q71 39 159 42q21 -66 9.5 -148.5t-52.5 -151.5q-77 -131 -217 -147zM866 133q-7 0 -21 -1t-46 -7t-63.5 -16.5
t-70 -34.5t-68.5 -56q-9 -10 -8.5 -23.5t9.5 -22.5q10 -8 22 -8q14 0 24 10q24 26 56 45.5t58 28.5t53.5 14.5t37.5 6t16 0.5q13 0 22.5 9t9.5 22.5t-9 23t-22 9.5z" />
    <glyph glyph-name="uniE61F" unicode="&#xe61f;" 
d="M455 680h93v-62h-93v62zM326 677h-164q-7 0 -12.5 -5t-5.5 -13v-646q0 -8 5.5 -13t12.5 -5h164q8 0 13 5t5 13v646q0 8 -5 13t-13 5zM309 642v-470h-129v470h129zM180 30v123h129v-123h-129zM214 569h65v-52h-65v52zM880 29l-59 644q-1 7 -6.5 12t-12.5 4l-164 -15
q-6 0 -10 -4v85q0 8 -5.5 13t-12.5 5h-217q-7 0 -12 -5t-5 -13v-742q0 -8 5 -13t12 -5h217q7 0 12.5 5t5.5 13v581l53 -583q0 -7 5.5 -11.5t11.5 -4.5h2l164 15q7 1 11.5 6.5t4.5 12.5zM592 738v-597h-181v597h181zM411 30v92h181v-92h-181zM659 641l128 11l43 -467
l-128 -12zM714 32l-11 122l129 12l11 -122zM764 577l5 -52l-65 -6l-5 52z" />
    <glyph glyph-name="uniE620" unicode="&#xe620;" 
d="M841 298q-12 49 -21 69q13 12 13 13q-3 6 -48.5 17t-131 21.5t-172.5 10.5q-187 0 -330 -49q6 -7 18 -18q-23 -36 -25 -64q-29 -10 -46.5 -25t-21.5 -28.5t-6 -27.5t0 -21q2 -29 16.5 -52t32.5 -34.5t38.5 -18.5t31 -9t13.5 -2q4 -7 12.5 -18t37 -40t60 -51t81.5 -40
t101 -18t99 17.5t80 42.5t57 49.5t37 42.5l11 17q3 0 8 1t19 4t27 7.5t29 13.5t27.5 20.5t20 29.5t9.5 40q1 26 -6.5 45.5t-19 29t-23 16t-19.5 8.5zM773 156l-38 -3l-20 -33q-4 -6 -10.5 -15t-28.5 -32t-45.5 -40.5t-61 -31.5t-75.5 -14q-39 0 -77.5 14t-64 32t-48.5 40.5
t-30 32t-11 14.5l-19 30l-36 4q-1 0 -6.5 0.5t-15.5 4t-19 8t-16 13.5t-7 20l-1 5v10l2 1q2 2 8.5 5.5t15.5 7.5l45 16l4 48q1 9 13 29l5 6v0l22 -10q6 -4 33.5 -22.5t41.5 -25.5t41.5 -19.5t56 -18t61.5 -6.5q34 0 64 5t58 18t44 21.5t44.5 27.5t35.5 23l15 7h2h1
q7 -20 14 -48l13 -49l49 -6q13 -1 12 -24q0 -11 -8 -19.5t-17.5 -13t-20.5 -7.5t-17 -4t-8 -1zM420 652q0 -9 3.5 -20t18.5 -26.5t38 -24.5l15 -5l13 5q22 9 36 26.5t17 27.5t4 19l1 34h-146v-36zM972 645q-5 20 -26 29q-1 0 -26 11q-161 73 -256 112.5t-122.5 48t-41.5 8.5
q-54 -1 -422 -181q-17 -9 -24 -26t2 -37q4 -7 25 -37q26 -39 31 -48q10 -16 21 -53v-2q1 -3 2 -4l8 -34l36 10h2q3 1 4 1h1q140 34 308 34q164 0 308 -37l40 -10l5 37q1 4 2 9l1 1v1q2 6 3 8q1 1 1 2q15 29 44 56l62 63q17 16 12 38zM846 596q-39 -36 -58 -77
q-139 31 -294 31q-119 0 -235 -18q-35 -5 -64 -11q-9 25 -19 42q-7 11 -26 39q-1 1 -1 2q-2 3 -7 11l-4 5q136 66 241 112.5t121 47.5q2 0 8 -2q19 -5 55 -19q96 -37 311 -134zM846 596z" />
    <glyph glyph-name="uniE621" unicode="&#xe621;" 
d="M700 687h-376q-9 0 -17.5 7.5t-8.5 18.5v157q0 11 8.5 18.5t17.5 7.5h371q12 0 19 -7t7 -19v-157q4 -11 -4 -18.5t-17 -7.5zM350 739h319v105h-319v-105zM904 -128h-784q-12 0 -19 7t-7 19v867q0 12 7 19.5t19 7.5h99q12 0 19.5 -7.5t7.5 -19t-7.5 -19t-19.5 -7.5h-73
v-820h732v820h-73q-12 0 -19.5 7.5t-7.5 19t7.5 19t19.5 7.5h99q12 0 19 -7.5t7 -19.5v-872q0 -8 -7.5 -14.5t-18.5 -6.5zM752 478h-480q-12 0 -19 7t-7 19t7 19t19 7h480q12 0 19 -7t7 -19t-7 -19t-19 -7zM752 280h-480q-12 0 -19 7t-7 18.5t7 19t19 7.5h480q12 0 19 -7.5
t7 -19t-7 -18.5t-19 -7zM648 81h-376q-12 0 -19 7t-7 19t7 19t19 7h376q12 0 19 -7t7 -19t-7 -19t-19 -7z" />
    <glyph glyph-name="uniE622" unicode="&#xe622;" 
d="M301 509h423v-50h-423v50zM301 509zM301 359h94v-49h-94v49zM301 359zM301 210h188v-50h-188v50zM301 210zM587 196l331 331l35 -36l-331 -331zM587 196zM483 368l172 -173l-35 -35l-172 173zM483 368zM898 351v-327q0 -16 -11 -27t-26 -11h-697q-16 0 -26.5 11t-10.5 27
v647q0 15 10.5 26t26.5 11h139h-2v-44v-31h423v30v45h137q15 0 26 -11t11 -26v-88h50v100q0 31 -22 53t-53 22h-149v39v10v25h-423v-38v-36h-150q-30 0 -52 -22t-22 -53v-672q0 -31 22 -53t52 -22h722q31 0 53 22t22 53v340h-50zM352 783h322v-100h-322v100zM352 783z" />
    <glyph glyph-name="uniE623" unicode="&#xe623;" 
d="M370 692h26v-15q0 -4 2 -8q2 -12 14 -12q7 0 12 6q7 6 7 14v15h20q7 0 12.5 5t5.5 12t-5.5 12.5t-12.5 5.5h-20v21q0 8 -5 13t-12.5 5t-12.5 -5t-5 -13v-21h-26q-7 0 -12.5 -5.5t-5.5 -12.5t5.5 -12t12.5 -5zM769 62l-1 4q-37 89 -108 149.5t-160 80.5q55 39 87.5 116.5
t32.5 173.5q0 129 -57 221l-5 8l-8 2q-67 25 -141.5 25t-142.5 -25l-8 -2l-4 -8q-57 -92 -57 -221q0 -98 34.5 -177.5t90.5 -116.5q-83 -23 -149 -82.5t-101 -143.5l-1 -4q-15 -62 13 -100q21 -30 64 -32q49 -4 272 -7h1q222 3 271 7q42 2 64 32q28 38 13 100zM275 785
q133 45 266 0q46 -79 51 -191q-185 36 -367 0q5 111 50 191zM227 570q36 8 79.5 13.5t125.5 4t158 -17.5q-8 -113 -60.5 -192.5t-121.5 -79.5t-121 79t-60 193zM738 -17q-9 -12 -31 -14q-50 -3 -287 -7l1 -26l-2 26q-236 4 -287 7q-21 2 -30 14q-15 21 -6 62
q42 101 129 161.5t191 60.5h4h2h1q104 0 191 -60.5t129 -161.5q10 -41 -5 -62zM952 71q-11 34 -28.5 64t-34 48.5t-41 37t-38.5 26.5t-37 20q-18 10 -25 14q-10 6 -30 15l-16 8q36 53 60.5 110.5t34 98t13.5 80t3.5 53.5t-1.5 22q-1 34 -17 61t-40 42.5t-46.5 23.5t-43.5 10
l-16 1l-3 -32l16 -1q6 -1 14 -2.5t27.5 -8.5t34.5 -17.5t28 -31.5t14 -47q3 -37 -5 -91q-39 16 -100 19l-1 -33q65 -3 95 -18q-25 -122 -99 -229l-2 -3q-1 -7 -2 -10.5t3 -8.5l6 -8q2 -2 8.5 -6t10 -5.5t10.5 -5.5q19 -9 28 -14q8 -4 25 -14q29 -15 45.5 -26t42.5 -32
t45 -50.5t31 -67.5q7 -45 -3 -57q-3 -4 -9 -4q-33 -2 -50 -2v-33q30 1 52 3q21 1 32 16q19 23 9 85z" />
    <glyph glyph-name="uniE624" unicode="&#xe624;" 
d="M672 -88q-61 0 -104.5 6t-61.5 12t-47 20q-67 31 -154 43v-25h-137q-37 0 -61 35q-20 31 -20 74v336q0 42 20 73q24 36 61 36h137v-19q143 49 242 124q57 44 85 88q27 44 21 84q-4 23 13 42q14 17 34 17q25 0 51.5 -13.5t42.5 -42.5q27 -47 13 -120q-14 -69 -64 -160h125
q41 0 62 -33q16 -26 16 -64q0 -60 -31 -97q1 -1 1 -2q11 -20 11 -51q0 -45 -20 -87q-13 -26 -31 -40v-12q0 -41 -20 -84q-20 -40 -49 -52q-8 -39 -44 -63q-38 -25 -91 -25zM309 42q45 -5 80.5 -14t51 -15.5t39.5 -17.5q26 -12 42 -17.5t55 -10.5t95 -5q35 0 61 15t26 44v25
h25q8 0 18 14q14 19 21 49q6 26 3 35q3 -8 14 -8v50q10 0 22 25q15 31 15 64q0 18 -4 26q-2 3 -5 3v50q7 0 16 17q12 24 12 54q0 24 -8 37q-7 10 -20 10h-212l23 38q35 59 55 107t24 79.5t2 50t-9 30.5q-16 29 -48 31v-2q17 -109 -126 -218q-112 -86 -272 -137zM168 472
q-12 0 -21.5 -17.5t-9.5 -41.5v-336q0 -24 9.5 -41.5t21.5 -17.5h87v454h-87z" />
    <glyph glyph-name="uniE625" unicode="&#xe625;" 
d="M511 790q-98 0 -167 -69t-69 -166q0 -69 37.5 -126.5t98.5 -86.5q-113 -33 -184.5 -127t-71.5 -214q0 -8 5.5 -13.5t13 -5.5t13 5.5t5.5 13.5q0 86 42.5 159.5t116 116.5t160.5 43q97 0 166 69t69 166t-69 166t-166 69zM511 357q-82 0 -140.5 58t-58.5 140t58.5 140
t140.5 58t140 -58t58 -140t-58 -140t-140 -58zM511 357zM726 284q-6 5 -13.5 4t-12 -7.5t-3.5 -14t7 -12.5q60 -45 92.5 -111.5t32.5 -141.5q0 -8 5.5 -13.5t13 -5.5t13 5.5t5.5 13.5q0 84 -36.5 158t-103.5 125zM726 284z" />
    <glyph glyph-name="uniE626" unicode="&#xe626;" 
d="M945 375q0 4 -1 9v2q-4 23 -22 38l-365 374q-18 19 -45 19t-45 -19l-368 -378q-16 -14 -19 -35q-1 -3 -1 -5v-8v-2q1 -24 17 -40q20 -20 49 -19h64q4 0 4 -4v-275q0 -34 23.5 -57.5t56.5 -23.5h105q26 0 44.5 19t18.5 45v97q0 9 6 15.5t15 6.5h60q9 0 15 -6.5t6 -15.5
v-97q0 -26 18.5 -45t44.5 -19h105q33 0 56.5 23.5t23.5 57.5v275q0 4 4 4h64h4q26 0 45 19q13 14 16 33l1 4v8zM886 372q0 -1 -1 -1l-1 -1h-2h-67q-26 0 -44.5 -18.5t-18.5 -44.5v-275q0 -9 -6.5 -15.5t-14.5 -6.5h-105q-4 0 -4 5v97q0 34 -23.5 57.5t-56.5 23.5h-60
q-33 0 -56.5 -23.5t-23.5 -57.5v-97q0 -5 -4 -5h-105q-8 0 -14.5 6.5t-6.5 15.5v275q0 26 -18.5 44.5t-44.5 18.5h-65h-3q-1 0 -2 1t-1 4l371 382q3 3 5 0l367 -376l3 -3q2 -1 2 -3v-3zM621 503h-79v80q0 12 -9 20.5t-21 8.5t-21 -8.5t-9 -20.5v-80h-79q-12 0 -20.5 -8.5
t-8.5 -20.5t8.5 -21t20.5 -9h79v-79q0 -12 9 -20.5t21 -8.5t21 8.5t9 20.5v79h79q12 0 20.5 9t8.5 21t-8.5 20.5t-20.5 8.5z" />
    <glyph glyph-name="uniE627" unicode="&#xe627;" 
d="M959 542h-14v101q0 27 -18.5 45.5t-45.5 18.5h-399v58q0 27 -19 45.5t-45 18.5h-352q-26 0 -45 -18.5t-19 -45.5v-761q0 -26 19 -45t45 -19h815q27 0 45.5 19t18.5 45l78 474q0 26 -18.5 45t-45.5 19zM50 733q0 27 11 37.5t37 10.5h288q26 0 37 -10.5t11 -37.5v-74h2h46
h367q27 0 37.5 -10.5t10.5 -37.5v-69h-753q-26 0 -45 -19t-19 -45l-30 -195v450zM897 36q0 -26 -10.5 -37t-37.5 -11h-751q-26 0 -37 11t-11 37l78 410q0 26 11 37t37 11h751q27 0 37.5 -11t10.5 -37zM897 36z" />
    <glyph glyph-name="uniE628" unicode="&#xe628;" 
d="M223 443q-27 0 -46 19.5t-19 46.5t19 46t46 19t46.5 -19t19.5 -46t-19.5 -46.5t-46.5 -19.5zM223 530q-9 0 -15.5 -6t-6.5 -15t6.5 -15.5t15.5 -6.5t15.5 6.5t6.5 15.5t-6.5 15t-15.5 6zM223 203q-27 0 -46 19.5t-19 46.5t19 46t46 19t46.5 -19t19.5 -46t-19.5 -46.5
t-46.5 -19.5zM223 291q-9 0 -15.5 -6.5t-6.5 -15.5t6.5 -15.5t15.5 -6.5t15.5 6.5t6.5 15.5t-6.5 15.5t-15.5 6.5zM401 446q36 42 83 71q-3 24 -21.5 40.5t-42.5 16.5q-28 0 -47 -19t-19 -46q0 -22 13.5 -39.5t33.5 -23.5zM420 530q9 0 15 -6t6 -15t-6 -15.5t-15 -6.5
t-15.5 6.5t-6.5 15.5t6.5 15t15.5 6zM354 29h-262q-18 0 -30.5 12.5t-12.5 30.5v655q0 18 12.5 30.5t30.5 12.5h44q0 -27 19 -46t46.5 -19t46.5 19t19 46h87q0 -27 19 -46t46.5 -19t46.5 19t19 46h87q0 -27 19.5 -46t46.5 -19t46 19t19 46h44q18 0 30.5 -12.5t12.5 -30.5
v-169q20 -6 44 -17v186q0 36 -25.5 61.5t-61.5 25.5h-44q0 27 -19 46t-46 19t-46.5 -19t-19.5 -46h-87q0 27 -19 46t-46.5 19t-46.5 -19t-19 -46h-87q0 27 -19 46t-46.5 19t-46.5 -19t-19 -46h-44q-36 0 -61.5 -25.5t-25.5 -61.5v-655q0 -36 25.5 -61.5t61.5 -25.5h290
q-17 23 -28 44zM616 814q0 9 6.5 15.5t15.5 6.5t15 -6.5t6 -15.5v-44q0 -9 -6 -15t-15 -6t-15.5 6t-6.5 15v44zM398 814q0 9 6.5 15.5t15.5 6.5t15 -6.5t6 -15.5v-44q0 -9 -6 -15t-15 -6t-15.5 6t-6.5 15v44zM180 814q0 9 6 15.5t15 6.5t15.5 -6.5t6.5 -15.5v-44
q0 -9 -6.5 -15t-15.5 -6t-15 6t-6 15v44zM681 530q-89 0 -164 -43.5t-119 -119t-44 -164.5t44 -164t119 -119t164 -44t164.5 44t119 119t43.5 164t-43.5 164.5t-119 119t-164.5 43.5zM681.5 -80q-117.5 0 -200.5 83t-83 200.5t83 200.5t200.5 83t200.5 -83t83 -200.5
t-83 -200.5t-200.5 -83zM681 421q-9 0 -15.5 -6t-6.5 -15v-175q0 -5 4 -11q6 11 18 11t19 -11q3 6 3 11v175q0 9 -6.5 15t-15.5 6zM878 225h-135q-7 19 -24 31.5t-38 12.5q-27 0 -46 -19.5t-19 -46.5t19 -46t46 -19q21 0 38 12t24 31h135q9 0 15 6.5t6 15.5t-6 15.5t-15 6.5
zM681 181q-9 0 -15.5 6.5t-6.5 15.5t6.5 15.5t15.5 6.5t15.5 -6.5t6.5 -15.5t-6.5 -15.5t-15.5 -6.5z" />
    <glyph glyph-name="uniE629" unicode="&#xe629;" 
d="M512 -128q-44 0 -101.5 25t-114 69.5t-104.5 99t-78 121t-30 128.5v429l43 1q9 0 29 1.5t70.5 12t94.5 27.5q44 18 87 41t57.5 32.5t20.5 14.5l26 18l25 -18q64 -46 166 -88q44 -17 94.5 -27.5t71 -12t28.5 -1.5l43 -1v-429q0 -62 -30 -128.5t-78 -121t-104.5 -99
t-114 -69.5t-101.5 -25zM171 662v-347q0 -59 39 -125.5t94 -116t113 -82.5t95 -33t95 33t113 82.5t94 116t39 125.5v347q-97 10 -182 45q-86 34 -159 80q-72 -45 -159 -80q-85 -35 -182 -45zM489 154l-182 154l56 65l117 -99l221 254l65 -56z" />
    <glyph glyph-name="uniE62A" unicode="&#xe62a;" 
d="M527.5 356q-36.5 0 -61.5 -10t-37 -28.5t-17 -38t-5 -44.5q0 -49 13 -131t27 -111q20 -38 40 -40h81q2 0 6 1t14.5 11t19.5 28q14 29 27 111t13 131q0 25 -5 44.5t-17 38t-37 28.5t-61.5 10zM572 11q-6 -12 -12 -18h-65q-6 6 -12 18q-11 22 -23.5 99.5t-12.5 124.5
q0 44 18 62t62.5 18t62.5 -18t18 -62q0 -47 -12.5 -124.5t-23.5 -99.5zM527.5 839q-98.5 0 -182 -48.5t-132 -132t-48.5 -182.5q0 -106 57 -194.5t150 -132.5q-2 26 -4 48q-74 42 -118.5 116.5t-44.5 162.5t43.5 162t117.5 117.5t161.5 43.5t162 -43.5t117.5 -117.5t43 -162
t-44.5 -162.5t-118.5 -116.5q-1 -22 -4 -48q93 45 150 133t57 194q0 99 -48.5 182.5t-132 132t-182 48.5zM749 476q0 92 -65 157t-156.5 65t-156.5 -65t-65 -157q0 -98 74 -165q8 21 21 36q-55 53 -55 129q0 75 53 128.5t128.5 53.5t128.5 -53.5t53 -128.5q0 -77 -56 -131
q12 -15 21 -35q75 67 75 166zM608 476.5q0 33.5 -23.5 57t-57 23.5t-57 -23.5t-23.5 -57t23.5 -57t57 -23.5t57 23.5t23.5 57zM487 476q0 17 12 29t28.5 12t28.5 -12t12 -28.5t-12 -28.5t-28.5 -12t-28.5 12t-12 28z" />
    <glyph glyph-name="uniE62B" unicode="&#xe62b;" 
d="M289.5 786q-12.5 0 -22 -9.5t-9.5 -22.5v-31q0 -13 9.5 -22t22 -9t22 9t9.5 22v31q0 13 -9.5 22.5t-22 9.5zM477 786q-13 0 -22 -9.5t-9 -22.5v-31q0 -13 9 -22t22 -9t22 9t9 22v31q0 13 -9 22.5t-22 9.5zM960 469q0 49 -34.5 83.5t-83 34.5t-83 -34.5t-34.5 -83.5
q0 -40 24 -71.5t61 -42.5v-235q0 -31 -18.5 -54t-43.5 -23h-267q-18 0 -33 11t-21 29q-9 27 -8 85h119q52 0 89.5 36.5t49.5 97.5v3l32 315v4q0 59 -37 99.5t-92 40.5q-13 0 -22 -9.5t-9 -22t9 -22t22 -9.5q32 0 49 -22.5t18 -53.5l-32 -312q-6 -33 -26 -57.5t-51 -24.5
h-303q-29 0 -50.5 24.5t-25.5 56.5l-32 313q1 31 18 53.5t48 22.5q13 0 22.5 9.5t9.5 22t-9.5 22t-22.5 9.5q-55 0 -91.5 -40.5t-36.5 -99.5v-4l32 -315v-1q8 -55 45.5 -95.5t92.5 -40.5h121q-1 -68 12 -105q12 -37 43 -60t70 -23h267q51 0 87.5 41t36.5 99v234q38 10 63 42
t25 73zM842.5 413q-22.5 0 -38.5 16t-16 39.5t16 40t38.5 16.5t39 -16.5t16.5 -40t-16.5 -39.5t-39 -16zM352 348v-52q0 -13 9 -22t22 -9t22 9t9 22v52q0 13 -9 22.5t-22 9.5t-22 -9.5t-9 -22.5zM297 605q11 -18 33.5 -33.5t52 -15.5t52.5 15.5t35 33.5q6 10 3.5 22.5
t-13 19.5t-23.5 4.5t-20 -12.5q-13 -20 -34 -20q-20 0 -33 19q-7 11 -19.5 14t-23.5 -4t-14 -19.5t4 -23.5z" />
    <glyph glyph-name="uniE62C" unicode="&#xe62c;" 
d="M949 190q-12 12 -33 18t-49 9t-38 5q-19 5 -39.5 13.5t-34.5 15.5t-37.5 20.5t-34.5 18.5q-57 30 -132 52q-6 2 -24.5 6.5t-25 7t-19 8.5t-21.5 13.5t-18 18.5q-14 18 -23.5 45.5t-13.5 70t-5.5 63.5t-1.5 73v53h-256q8 -55 -0.5 -138.5t-26.5 -141.5q-4 -14 -20.5 -56.5
t-21.5 -67.5q-8 -35 -10 -59t6.5 -54t30.5 -53q33 -32 112 -26q32 3 61.5 20t47.5 19q54 3 129 -20q86 -25 148 -22q23 2 64.5 16t63.5 15q34 3 113 -13q52 -11 82 3q13 6 23 17t13 24.5t-9 25.5zM241 465q29 67 39 148h35q-1 -5 -0.5 -34.5t1.5 -66t2 -41.5q4 -15 6 -26
t3.5 -24t0 -22t-6.5 -17t-13 -11.5t-21.5 -3.5t-31.5 6q-17 5 -25 13.5t-6.5 22t4.5 22.5t10 26q2 5 3 8zM312 251q-14 -1 -32 4q19 -23 3 -48t-50 -44.5t-59 -19.5q-22 -1 -34 17t-13 42q-2 32 23 52t60 23q13 1 27 -1q-7 5 -11 12q-29 47 30 60q47 9 86 -5q4 -1 6 -3
q19 -10 23.5 -25t-3 -28.5t-23 -23.5t-33.5 -12zM426 272q-13 -10 -27.5 -9t-20.5 18q-10 27 12.5 48t46.5 0q14 -14 9.5 -30t-20.5 -27zM442 251q-7 11 -2 28t16 28.5t25.5 15.5t28.5 -10q21 -23 0 -56q-19 -30 -44 -25q-15 2 -24 19zM727 179q-14 -6 -20 -5t-18 13
q-33 30 -102 43q-7 1 -21 -1.5t-23 -3t-19 5.5q-10 9 -5 34t19 29l9 2q3 0 7 -3.5t6 -5.5t5.5 -6.5t4.5 -7.5q10 -11 32 -18q3 -1 9 -4q60 -19 69 -21q2 0 18.5 -1.5t26 -4.5t15.5 -9q18 -21 -13 -36zM757 209q31 -9 47 -14q47 -18 44 -27q-3 -10 -45 -1q-52 10 -51 32
q1 5 5 10zM857 170q22 3 34 3q37 2 37 -6q-1 -9 -32 -14q-40 -7 -39 14v3z" />
    <glyph glyph-name="uniE62D" unicode="&#xe62d;" 
d="M830 627q-15 14 -46.5 42.5t-45.5 42.5q-1 1 -9 9.5t-11.5 10.5t-12 5.5t-17.5 3.5q-2 -1 -6.5 -1.5t-6.5 -1.5t-6 -3.5t-6 -3.5q-60 -56 -79 -74q66 -62 179 -166q11 10 33 30.5t29 26.5q0 1 7 7t9 8.5t5.5 7.5t4.5 11v9q0 4 -0.5 7.5t-2.5 6.5l-2 5q-1 2 -3.5 5t-3.5 4
t-4.5 4t-4.5 4zM810 590q-9 -8 -24.5 -22t-22.5 -22l-1 1l-1 1l-1 1l-1 1l-1 1l-1 1l-1 1l-1 1l-1 1l-1 1l-1 1h-1l-1 1l-1 1l-1 1l-1 1l-1 1l-1 1l-1 1l-1 1l-1 1l-1 1l-1 1l-1 1l-1 1h-1l-1 1l-1 1l-1 1l-1 1l-1 1l-1 1l-1 1l-1 1l-1 1l-1 1l-1 1l-1 1l-1 1l-1 1h-1l-1 1
l-1 1l-1 1l-1 1l-1 1l-1 1l-1 1l-1 1l-1 1l-1 1l-1 1l-1 1l-1 1l-1 1h-1l-1 1l-1 1l-1 1l-1 1l-1 1l-2 1l-1 1l-1 1l-1 1l-1 1l-1 1l-1 1l-1 1l-1 1l-1 1l-1 1l-1 1h-1l-1 1l-1 1l-1 1l-1 1l-1 1l-1 1l-1 1l-1 1l-1 1l-1 1l-1 1l-1 1l-1 1h-1l-1 1l-1 1l-1 1l-1 1l-1 1l-1 1
l-1 1l-1 1l-1 1l-1 1l-1 1l-1 1l-1 1l-1 1h-1l-1 1l-1 1l-1 1l-1 1l-1 1l-1 1l-1 1l-1 1l-1 1l-1 1l-1 1l-1 1l-1 1l-1 1h-1l-1 1q8 8 24 22.5t23 21.5q47 -42 120 -111zM693 491q-18 16 -59 55l-1 1l-1 1l-1 1l-1 1l-1 1h-1l-1 1l-1 1l-1 1l-1 1l-1 1l-1 1l-1 1l-1 1l-1 1
l-1 1l-1 1l-1 1l-1 1h-1l-1 1l-1 1l-1 1l-1 1l-1 1l-1 2h-1l-1 1l-1 1l-1 1l-1 1l-1 1l-1 1l-1 1l-1 1l-1 1l-1 1l-1 1l-1 1l-1 1l-1 1h-1l-1 1l-1 1l-1 1l-1 1l-1 1l-1 1l-1 1l-1 1l-1 1l-1 1l-1 1l-1 1l-1 1h-1l-1 1l-1 1l-1 1l-1 1l-6 6l-6 6q-3 3 -8 5t-10 2
q-2 -1 -5 -1.5t-5 -1.5q-4 -2 -12 -12q-11 -10 -16 -16l-42 -41q-33 -33 -137.5 -137t-137.5 -137v-109v-10v-10q0 -4 0.5 -9t2.5 -8.5t5 -5.5t7 -3.5t9.5 -1.5t9.5 -0.5t11 0t11 0.5h113q36 33 146.5 138.5t146.5 138.5q9 8 26 23.5t25 22.5l4 4l6 5q1 2 2.5 6t1.5 8
q-1 4 -4 8.5t-5.5 7t-7 6.5t-6.5 5zM337 157h-105v99q233 236 311 315q0 1 2 2q45 -43 119 -111q-41 -38 -163 -152.5t-164 -152.5zM208 79h503h81q31 0 35 -3q13 -7 10 -19q0 -4 -1 -6.5t-3 -4t-3.5 -3t-4.5 -2.5t-5 -1t-6 -0.5t-6 -0.5h-7h-8h-244h-212h-90h-29
q-11 0 -13 1q-9 2 -13.5 10.5t0.5 18.5q3 5 16 10z" />
    <glyph glyph-name="uniE62E" unicode="&#xe62e;" 
d="M515 710v-828v828zM764 509l1 -551q0 -44 -41 -44l-421 1q-42 0 -42 42v552h-65v-552q0 -44 31 -74.5t74 -30.5h420q44 0 74.5 30.5t30.5 74.5v552h-62zM349 391v-391q0 -4 1 -8h58q1 4 1 8v391h-60zM613 389v-389q0 -3 1 -6h58q1 3 1 6v389h-60zM936 615h-234v66
q2 65 -86 65h-209q-85 0 -85 -64l-1 -67h-237v-65h852v65zM643 615h-263v46q0 11 7 19t18 8l210 -1q11 0 19 -7t8 -18zM483 389v-389q0 -3 1 -6h58v6v389h-59z" />
    <glyph glyph-name="uniE62F" unicode="&#xe62f;" 
d="M937 434v-565l29 29h-885l29 -29v885l-29 -29h615q11 0 19.5 8.5t8.5 20.5t-8.5 20t-19.5 8h-615q-11 0 -19.5 -8t-8.5 -20v-885q0 -11 8.5 -19.5t19.5 -8.5h885q12 0 20 8.5t8 19.5v565q0 12 -8 20.5t-20 8.5t-20.5 -8.5t-8.5 -20.5z" />
    <glyph glyph-name="uniE630" unicode="&#xe630;" 
d="M491 299l-122 121q-10 11 -25 11t-26 -11q-10 -10 -10 -25t10 -26l163 -163q8 -7 18.5 -7t17.5 7l416 416q11 11 11 26t-11 25q-10 11 -25 11t-26 -11l-375 -374q-8 -9 -16 0zM838 22h-678q-9 0 -16 7t-7 16v678q0 9 7 16t16 7h690q2 0 4 1l63 63q2 2 0.5 5t-4.5 3h-794
q-22 0 -38 -15.5t-16 -38.5v-760q0 -23 16 -38.5t38 -15.5h760q23 0 38.5 15.5t15.5 38.5v504q0 3 -3 4.5t-5 -0.5l-62 -62q-2 -2 -2 -6v-399q0 -9 -6.5 -16t-16.5 -7z" />
    <glyph glyph-name="uniE631" unicode="&#xe631;" 
d="M825 203l146 333q5 13 -2.5 24.5t-21.5 11.5h-619l-23 104q-1 9 -8 14.5t-17 5.5h-203q-11 0 -18.5 -7.5t-7.5 -18t7.5 -18t18.5 -7.5h183l116 -540q-31 -9 -51.5 -35.5t-20.5 -59.5q0 -42 29.5 -71t70.5 -29t70 29t29 71q0 25 -13 48h198q-13 -23 -13 -48q0 -42 29 -71
t70.5 -29t70.5 29t29 70.5t-29 70.5t-70 29h-4h-3h-341v1v2l-16 76h391q17 0 23 15zM403.5 -52q-25.5 0 -43 18t-17.5 43.5t17.5 43.5t43 18t43.5 -18t18 -43.5t-18 -43.5t-43.5 -18zM836 9.5q0 -25.5 -18 -43.5t-43.5 -18t-43.5 18t-18 43.5t18 43.5t43.5 18t43.5 -18
t18 -43.5zM405 239l-65 282h568l-123 -282h-380z" />
    <glyph glyph-name="uniE632" unicode="&#xe632;" horiz-adv-x="1029" 
d="M135 656.5q0 34.5 24.5 58.5t59.5 24h726q11 0 19 8t8 19.5t-8 19.5t-19 8h-726q-57 0 -97.5 -40.5t-40.5 -97.5v-736q0 -57 40.5 -97.5t97.5 -40.5h753v791h-753q-35 0 -59.5 24.5t-24.5 59zM918 -163h-699q-35 0 -59.5 24t-24.5 59v627q37 -28 84 -28h699v-682z
M945 685h-720q-12 0 -20 -8t-8 -19t8 -19t20 -8h720q11 0 19 8t8 19t-8 19t-19 8zM377 116q10 -9 7 -21l-20 -117q-3 -21 9 -35q11 -13 28 -13q11 0 22 6l105 55q4 2 11.5 2t10.5 -2l105 -55q11 -6 22 -6q18 0 29 13q12 14 8 35l-20 117q-2 12 7 21l85 83q20 19 12.5 42
t-35.5 27l-117 17q-4 1 -10 5t-8 8l-52 106q-13 25 -37 25t-36 -25l-53 -106q-1 -4 -7 -8t-11 -5l-117 -17q-27 -4 -34.5 -27t12.5 -42zM440 231q18 3 34.5 15t24.5 28l40 81l40 -81q8 -16 24.5 -28t34.5 -15l89 -13l-64 -63q-13 -12 -19.5 -32t-3.5 -37l15 -89l-79 42
q-16 8 -37 8t-36 -8l-80 -42l15 89q3 17 -3.5 37t-19.5 32l-64 63z" />
    <glyph glyph-name="uniE633" unicode="&#xe633;" 
d="M947 402q0 -65 -46 -111.5t-111 -46.5q-41 0 -75.5 19.5t-56.5 51.5q-2 4 -7 4t-8 -4q-21 -32 -56 -51.5t-75 -19.5t-75 19.5t-56 51.5q-3 4 -8 4t-7 -4q-22 -32 -56.5 -51.5t-75.5 -19.5q-65 0 -111 46.5t-46 111.5v9l89 250q7 19 22 32q17 14 37 14h574q18 0 34 -13
q18 -13 26 -35l88 -248v-9zM910 411l-71 212q-6 20 -21 33q-17 14 -38 14h-536q-19 0 -35 -13q-18 -14 -25 -36l-70 -210h1q0 -1 -0.5 -4t-0.5 -5q0 -50 35 -85.5t85 -35.5t85.5 35.5t35.5 85.5q0 9 9 9h19q9 0 9 -9q0 -50 35 -85.5t85 -35.5t85 35.5t35 85.5q0 9 9 9h19
q9 0 9 -9q0 -50 35.5 -85.5t85.5 -35.5t85 35.5t35 85.5q0 2 -0.5 5t-0.5 4h1zM817 430h-611q-2 0 -5 0.5t-8 5t-5 12.5t4.5 12.5t9.5 5.5l4 1h611q3 0 6 -1t8 -5.5t5 -12.5t-4.5 -12.5t-9.5 -5.5h-5zM169 226q8 0 13 -4.5t5 -9.5l1 -5v-240v-5q0 -2 2 -8.5t5.5 -11t11 -8.5
t18.5 -4h574q17 0 26 9t10 18l1 10v240q0 2 0.5 5.5t5.5 8.5t12.5 5t12.5 -4.5t5 -9.5l1 -5v-240q0 -21 -5.5 -36t-14 -22t-16.5 -11t-14 -5h-6h-611h-6q-3 0 -12.5 3.5t-17 8.5t-13.5 16.5t-6 26.5v259q1 19 18 19z" />
    <glyph glyph-name="uniE634" unicode="&#xe634;" 
d="M905 120v52l-47 8q-2 5 -4 9l28 39l-37 37l-39 -28q-4 2 -9 4l-8 47h-52l-8 -47q-4 -2 -9 -4l-39 28l-37 -37l29 -38q-3 -5 -5 -10l-46 -8v-52l46 -8q2 -5 4 -9l-27 -39l37 -37l38 28q4 -2 9 -4l8 -46h52l8 46l10 4l38 -27l37 37l-28 38q2 5 4 9zM866 66l-23 -22l-33 24
l-3 1l-2 -2l-16 -6l-3 -1l-7 -43h-32l-7 40v3l-4 1l-14 6l-3 2l-36 -26l-23 23l25 33l1 3l-2 3q-3 7 -6 15l-1 3l-44 7v32l42 7l3 1v3q3 7 7 15l1 3l-26 36l23 23l33 -24l3 -3l3 2l14 6l4 1l7 45h32l7 -42l1 -3l3 -1l14 -6l4 -2l36 26l22 -23l-23 -32l-3 -3l2 -4q4 -7 6 -14
l1 -4h5l39 -7v-32l-39 -7h-5l-1 -4q-2 -7 -6 -14l-2 -4zM763 207q-25 0 -43 -17.5t-18 -43t18 -43.5t43 -18t43 18t18 43.5t-18 43t-43 17.5zM763 97q-20 0 -34.5 14.5t-14.5 35t14.5 35t34.5 14.5t34.5 -14.5t14.5 -35t-14.5 -35t-34.5 -14.5zM587 373q61 26 98 81t37 123
q0 92 -65 157.5t-158 65.5q-42 0 -82 -16q-19 -8 -37 -20q-48 -30 -75.5 -79.5t-27.5 -107.5t27.5 -107.5t75.5 -79.5q15 -10 31 -17q-20 -5 -38 -12q-7 -2 -19 -8q-89 -39 -142.5 -122.5t-53.5 -182.5v-20h30v30q5 101 68.5 179.5t160.5 105.5q29 8 59 10q15 1 23 1
q111 0 197 -70q12 8 27 16q-60 52 -136 73zM454 390q-19 4 -37 13q-50 24 -80.5 70.5t-30.5 103.5t30.5 104t80.5 70q18 9 37 13q23 6 45 6q80 0 136.5 -56.5t56.5 -136.5t-56.5 -136.5t-136.5 -56.5q-22 0 -45 6z" />
    <glyph glyph-name="uniE635" unicode="&#xe635;" 
d="M302 597q0 81 60 136.5t147 55.5v21v21h-2v-21v-21q85 0 142 -55t57 -137v-100h42v100q0 100 -69.5 167t-171.5 67v-42h2v42q-104 0 -177 -67.5t-73 -166.5v-107h43v107zM640 256q0 53 -37 90.5t-89.5 37.5t-90 -37.5t-37.5 -90.5t37.5 -90.5t90 -37.5t89.5 37.5t37 90.5
zM429 256q0 35 24.5 60t59.5 25t60 -25t25 -60t-25 -60t-60 -25t-59.5 25t-24.5 60zM492 65h42v85h-42v-85zM280 -21q-43 0 -74 31.5t-31 75.5v277q0 44 31 75t74 31h466q43 0 74.5 -31t31.5 -75v-277q0 -44 -31.5 -75.5t-74.5 -31.5h-466zM894 86v277q0 61 -43.5 105
t-104.5 44h-466q-61 0 -104.5 -44t-43.5 -105v-277q0 -62 43.5 -105.5t104.5 -43.5h466q61 0 104.5 43.5t43.5 105.5zM894 86z" />
    <glyph glyph-name="uniE636" unicode="&#xe636;" 
d="M851 77h-681q-13 0 -18 12.5t6 22.5q29 25 49.5 76t24.5 106v111q0 143 68 220q72 80 211.5 80t211.5 -80q69 -77 69 -220v-111q3 -56 23 -106.5t49 -75.5q10 -9 5.5 -22t-18.5 -13zM214 116h593q-21 30 -39 97t-16 81v111q0 130 -60.5 195t-180.5 65q-240 0 -240 -260
v-113q-3 -61 -26 -118q-12 -31 -31 -58zM521 -15q-33 0 -56.5 23.5t-23.5 56.5q0 14 5 27q3 8 10.5 11.5t15 0.5t11 -10.5t1.5 -14.5q-3 -7 -3 -14q0 -16 12 -28t28.5 -12t28 12t11.5 28q0 7 -2 14q-3 7 0.5 14.5t11.5 10.5t15.5 -0.5t10.5 -11.5q4 -13 4 -27
q0 -33 -23.5 -56.5t-56.5 -23.5zM552 674q-8 0 -14 5.5t-6 14.5v31q0 9 -6 14.5t-14.5 5.5t-14 -5.5t-5.5 -14.5v-31q0 -9 -6 -14.5t-14.5 -5.5t-14.5 5.5t-6 14.5v31q0 25 18 42.5t43 17.5t43 -17.5t18 -42.5v-31q0 -9 -6.5 -14.5t-14.5 -5.5z" />
    <glyph glyph-name="uniE637" unicode="&#xe637;" 
d="M512 710h-245h-28q-61 0 -99 -38t-38 -99v-568q0 -11 2 -22.5t10.5 -29t22.5 -30.5t41 -23t64 -10h680v820h-410zM478 675v-326l-84 76l-93 -78v328h177zM239 675h28v-401l126 106l119 -108v403h375v-563h-648q-65 0 -102 -35v496q0 47 27.5 74.5t74.5 27.5zM242 -76
q-97 0 -105 70q0 39 27 61.5t75 22.5h648v-154h-645z" />
    <glyph glyph-name="uniE638" unicode="&#xe638;" 
d="M950 -128h-876q-31 0 -52.5 22t-21.5 52v876q0 31 21.5 52.5t52.5 21.5h572v-45h-557q-18 0 -31 -13t-13 -31v-846q0 -18 13 -31t31 -13h846q18 0 31 13t13 31v557h45v-572q0 -30 -22 -52t-52 -22zM97 -31l131 325l53 -53l-132 -219l220 131l53 -52zM422 101l-194 193
l545 544q15 15 35.5 15t34.5 -15l123 -123q15 -14 15 -34.5t-15 -35.5zM299 294l123 -123l369 369l-123 123zM791 786l-88 -88l123 -123l88 88z" />
    <glyph glyph-name="uniE639" unicode="&#xe639;" 
d="M812 67q0 -10 -7.5 -17.5t-18 -7.5t-18 7.5t-7.5 17.5q0 90 -55.5 158.5t-140.5 87.5v1q-11 4 -18.5 13.5t-7.5 21.5q0 13 8.5 23t21.5 12q41 18 66 55.5t25 82.5q0 63 -44.5 107.5t-107.5 44.5q-10 1 -16.5 8t-6.5 17t6.5 17.5t16.5 7.5v0h1h1v0h1q83 -1 141 -60
t58 -142q0 -53 -26 -98.5t-70 -72.5q88 -33 143 -110t55 -174v0zM412 351q87 -33 142 -110t55 -174q0 -10 -7 -17.5t-17.5 -7.5t-18 7.5t-7.5 17.5q0 105 -74 179t-179 74t-179 -74t-74 -179q0 -10 -7.5 -17.5t-17.5 -7.5t-17.5 7.5t-7.5 17.5q0 97 55 174t142 110
q-44 27 -70 72.5t-26 98.5q0 84 59 143.5t143 59.5t143 -59.5t59 -143.5q0 -53 -26 -98.5t-70 -72.5v0zM306 674q-63 0 -107.5 -44.5t-44.5 -107t44.5 -107t107.5 -44.5t107.5 44.5t44.5 107t-44.5 107t-107.5 44.5v0zM999 364h-171q-10 0 -16.5 6.5t-6.5 15.5t6.5 15.5
t16.5 6.5h171q9 0 15.5 -6.5t6.5 -15.5t-6.5 -15.5t-15.5 -6.5zM917 280q-9 0 -15.5 6.5t-6.5 16.5v171q0 9 6.5 15.5t15.5 6.5t15.5 -6.5t6.5 -15.5v-171q0 -10 -6.5 -16.5t-15.5 -6.5zM917 280z" />
    <glyph glyph-name="uniE63A" unicode="&#xe63a;" 
d="M513 800q77 0 137 -55q10 -10 31 -27t25 -21q87 -74 161 -169q3 -4 12.5 -15t14.5 -18q43 -63 32 -141q-9 -59 -53 -107q-9 -10 -25.5 -29.5t-20.5 -24.5q-60 -69 -106 -110q-10 -9 -62 -52q-31 -25 -36 -29q-50 -34 -109 -34q-16 0 -33 2q-60 9 -106 53q-3 3 -25 20
q-74 59 -145 141q-29 34 -50 59q-23 28 -29 36q-30 46 -30 109q1 75 55 133q2 3 22 27q68 85 167 168q4 3 23.5 19.5t29.5 24.5q41 32 93 38q14 2 27 2zM513 833v-33v33q-16 0 -31 -1q-61 -8 -109 -45q-12 -10 -35 -29q-13 -11 -19 -16q-102 -85 -172 -173q-3 -3 -7 -8
q-9 -12 -14 -17q-62 -67 -64 -155v-1q1 -73 36 -127q8 -12 25 -32q4 -5 6 -7q21 -26 50 -60q73 -85 150 -145q3 -2 8 -6q11 -8 15 -12q54 -51 124 -62q19 -2 38 -2q69 0 128 40q10 7 29 23q6 5 9 7q5 5 16 13q31 26 47 40q48 42 109 113q7 7 18 21q18 22 27 32q52 55 62 125
q13 91 -38 165q-6 9 -18 23q-7 8 -9 11q-76 98 -167 175l-21 18q-23 18 -34 28q-69 64 -159 64zM512 648h12h15h12q31 0 31 -31v-157v-6h5h158q17 0 25 -11q6 -7 6 -17v-87q-1 -10 -8 -17t-17 -7q-4 -1 -8 -1h-39h-40q-44 0 -77 1q-6 0 -6 -6q1 -31 1 -144q0 -24 -16 -39
q-5 -6 -13 -6h-25h-24h-33q-13 0 -21 8t-8 22v158v6h-6h-38h-39h-80q-17 0 -25 11q-6 8 -6 19v40v40q0 14 8 21.5t22 8.5h29h28h29h72h6v5v50v59v50q0 20 16 27q6 3 15 3h39zM512 681h-39q-16 0 -29 -6q-35 -16 -35 -57v-106v-25h-45h-29h-28h-29q-28 0 -45.5 -17.5
t-17.5 -45.5v-44v-36q0 -23 12 -39q18 -24 52 -24h80h39h11v-14v-117q0 -28 17.5 -45.5t44.5 -17.5h33h25h24q22 0 37 15q25 26 25 63v30v86h49h39h40h10v0q24 2 40 18.5t16 39.5v67v20q0 21 -13 38q-18 23 -51 23h-130v12v118q0 29 -17.5 46.5t-46.5 17.5h-13h-26z" />
    <glyph glyph-name="uniE63B" unicode="&#xe63b;" horiz-adv-x="1025" 
d="M511 895q-104 0 -198.5 -40.5t-163 -109t-109 -163.5t-40.5 -199t40.5 -198.5t109 -163t163 -109t198.5 -40.5t199 40.5t163.5 109t109 163t40.5 198.5t-40.5 199t-109 163.5t-163.5 109t-199 40.5zM511.5 -82q-96.5 0 -184.5 37t-151.5 100t-101 150.5t-37.5 183
t37.5 183t101 150.5t151.5 100t184.5 37t184.5 -37t151.5 -100t101 -150.5t37.5 -183t-37.5 -183t-101 -150.5t-151.5 -100t-184.5 -37zM616 579h-69l25 45q5 9 -4.5 14t-14.5 -4l-14 -26l7 31q2 11 -8.5 13t-12.5 -8l-10 -41l-8 41q-2 10 -12.5 8t-8.5 -12l6 -28l-10 22
q-4 10 -14 5.5t-6 -13.5l21 -47h-61v-210h194v210zM467 255l-95 166q-6 11 -17 5l-16 -9q-11 -6 -5 -16l82 -144h-9l-88 123v193q0 11 -12 11h-18q-11 0 -11 -11v-200v-2v-2q0 -3 2 -6l90 -128v-114q0 -12 11 -12h82q5 0 10 3.5t5 8.5v122q0 10 -11 12zM745 584h-18
q-14 0 -14 -11v-193l-86 -123h-9l82 144q7 10 -4 16l-16 9q-11 6 -17 -5l-94 -166q-9 -2 -9 -12v-122q0 -12 11 -12h82q5 0 9.5 3.5t4.5 8.5v114l89 128q2 3 2 6q1 3 1 4v200q0 11 -14 11z" />
    <glyph glyph-name="uniE63C" unicode="&#xe63c;" 
d="M509 649q-106 0 -180.5 -74t-74.5 -178.5t74.5 -178.5t180 -74t180.5 74t75 178.5t-75 178.5t-180 74v0zM509 198q-83 0 -142 58t-59 140.5t59 141t142 58.5t142 -58.5t59 -141t-59 -140.5t-142 -58v0zM512 714q11 0 19 8t8 19v64q0 11 -8 19t-19 8t-19 -8t-8 -19v-64
q0 -11 8 -19t19 -8v0zM286 624q11 0 19 8t8 19t-8 19l-46 45q-8 8 -19 8t-19 -8t-8 -19t8 -19l46 -45q8 -8 19 -8v0zM190 455h-65q-11 0 -19 -7.5t-8 -18.5t8 -19t19 -8h65q12 0 19.5 8t7.5 19t-7.5 18.5t-19.5 7.5v0zM892 450h-65q-11 0 -19 -8t-8 -19t8 -19t19 -8h65
q11 0 19 8t8 19t-8 19t-19 8v0zM736 620q11 0 19 8l46 45q8 8 8 19t-8 19t-19 8t-19 -8l-46 -46q-8 -7 -8 -18t8 -19t19 -8v0zM608 91h-199q-11 0 -18.5 -7.5t-7.5 -18.5t7.5 -19t18.5 -8h199q11 0 19 8t8 19t-8 18.5t-19 7.5v0zM572 -10h-127q-11 0 -19 -7.5t-8 -18.5
t8 -19t19 -8h127q11 0 19 8t8 19t-8 18.5t-19 7.5v0zM572 -10zM509 649q-106 0 -180.5 -74t-74.5 -178.5t74.5 -178.5t180 -74t180.5 74t75 178.5t-75 178.5t-180 74v0zM509 198q-83 0 -142 58t-59 140.5t59 141t142 58.5t142 -58.5t59 -141t-59 -140.5t-142 -58v0zM512 714
q11 0 19 8t8 19v64q0 11 -8 19t-19 8t-19 -8t-8 -19v-64q0 -11 8 -19t19 -8v0zM286 624q11 0 19 8t8 19t-8 19l-46 45q-8 8 -19 8t-19 -8t-8 -19t8 -19l46 -45q8 -8 19 -8v0zM190 455h-65q-11 0 -19 -7.5t-8 -18.5t8 -19t19 -8h65q12 0 19.5 8t7.5 19t-7.5 18.5t-19.5 7.5v0
zM892 450h-65q-11 0 -19 -8t-8 -19t8 -19t19 -8h65q11 0 19 8t8 19t-8 19t-19 8v0zM736 620q11 0 19 8l46 45q8 8 8 19t-8 19t-19 8t-19 -8l-46 -46q-8 -7 -8 -18t8 -19t19 -8v0zM608 91h-199q-11 0 -18.5 -7.5t-7.5 -18.5t7.5 -19t18.5 -8h199q11 0 19 8t8 19t-8 18.5
t-19 7.5v0zM572 -10h-127q-11 0 -19 -7.5t-8 -18.5t8 -19t19 -8h127q11 0 19 8t8 19t-8 18.5t-19 7.5v0zM572 -10z" />
    <glyph glyph-name="uniE63D" unicode="&#xe63d;" 
d="M778 540q-68 14 -105.5 72t-23.5 125.5t72 105t125 23.5q25 -5 48 -18q7 -4 9.5 -12t-2 -15t-12.5 -9.5t-15 1.5q-17 10 -36 14q-51 11 -95 -18t-54.5 -80t18 -94.5t79.5 -54.5t95 17.5t54 79.5q3 12 3 23q0 9 6 14.5t14.5 5.5t14.5 -6t5 -15q0 -15 -3 -30
q-14 -67 -72 -105t-125 -24v0zM212 217q-69 0 -117.5 48.5t-48.5 117.5t48.5 118t117.5 49t118 -49t49 -118t-49 -117.5t-118 -48.5v0zM212 510q-52 0 -89 -37t-37 -89.5t37 -89.5t89 -37t89 37t37 89.5t-37 89.5t-89 37v0zM812 -103q-69 0 -118 48.5t-49 117.5t49 118
t118 49t117.5 -49t48.5 -118t-48.5 -117.5t-117.5 -48.5v0zM812 190q-52 0 -89 -37t-37 -89.5t37 -89.5t89 -37t89 37t37 89.5t-37 89.5t-89 37v0zM703 622l-361 -171l351 167zM351 433l-18 36l349 185l17 -37zM336 298l347 -189l-347 189v0zM674 92l-348 189l19 35
l348 -189zM674 92zM812 -115q-74 0 -126 52.5t-52 125.5q0 18 3 35l-297 162q-52 -55 -128 -55q-74 0 -126 52.5t-52 126t52 126t126 52.5q41 0 78 -18.5t63 -50.5l290 153q-16 46 -6 94q13 61 62.5 101.5t112.5 40.5q18 0 36 -4q28 -6 52 -20q11 -6 14.5 -18.5t-2.5 -24.5
q-7 -11 -20 -14.5t-24 2.5q-15 9 -33 12q-11 3 -23 3q-41 0 -72.5 -26t-39.5 -65q-10 -47 16 -86.5t72 -49.5q12 -2 24 -2q40 0 72 25.5t40 65.5q2 10 2 21q1 12 10 21.5t22 9.5q14 -1 23 -10.5t9 -22.5q0 -16 -4 -32q-13 -62 -62 -102t-112 -40q-19 0 -37 4q-61 13 -101 61
l-292 -154q8 -25 8 -53q0 -37 -14 -70l285 -155q24 39 64.5 61.5t86.5 22.5q74 0 126 -52.5t52 -126t-52 -126t-126 -52.5zM812 178q-48 0 -81.5 -33.5t-33.5 -81t33.5 -81t81 -33.5t81 33.5t33.5 81t-33.5 81t-80.5 33.5zM212 498q-47 0 -80.5 -33.5t-33.5 -81t33.5 -81
t81 -33.5t81 33.5t33.5 81t-33.5 81t-81.5 33.5zM212 498z" />
    <glyph glyph-name="uniE63E" unicode="&#xe63e;" 
d="M752 -128h-477q-43 0 -73.5 30.5t-30.5 74.5v813q0 44 30.5 74.5t73.5 30.5h477q44 0 74.5 -30.5t30.5 -74.5v-813q0 -44 -30.5 -74.5t-74.5 -30.5zM275 860q-29 0 -49 -20.5t-20 -49.5v-813q0 -29 20 -49.5t49 -20.5h477q29 0 49.5 20.5t20.5 49.5v813q0 29 -20.5 49.5
t-49.5 20.5h-477zM514 -17zM470 -17.5q0 18.5 13 31t31 12.5t30.5 -12.5t12.5 -31t-12.5 -31t-30.5 -12.5t-31 12.5t-13 31zM780 57h-534q-9 0 -9 9v706q0 10 9 10h534q8 0 8 -10v-706q0 -9 -8 -9zM254 75h517v688h-517v-688zM570 808h-118q-8 0 -8 8.5t8 8.5h118
q9 0 9 -8.5t-9 -8.5zM416 808q-9 0 -9 8.5t8 8.5h1q8 0 8 -8.5t-8 -8.5z" />
    <glyph glyph-name="uniE63F" unicode="&#xe63f;" 
d="M960 587l-36 36l-574 -573l-250 250l-36 -37l286 -286l37 36z" />
    <glyph glyph-name="uniE640" unicode="&#xe640;" 
d="M901 32h-53v-80q-1 -9 -7.5 -15.5t-12.5 -8.5l-6 -3h-666q-8 1 -14.5 8t-9.5 12.5t-3 6.5v852q-1 8 6 14.5t13.5 9t7.5 2.5h666q9 0 15.5 -7t8.5 -13l2 -6v-346h53v399q-2 11 -9 17.5t-12 7.5l-5 1h-772q-9 0 -16 -7t-9 -13l-2 -6v-958q1 -9 8 -15.5t12.5 -9t6.5 -2.5
h772q12 3 18.5 9.5t7.5 11.5v6v133zM768 458v79h-559v-79h559zM928 404l-240 -239l-106 133q-27 8 -40.5 6t-17.5 -11.5t-3 -20t5 -19.5l3 -8l106 -133q14 -16 30 -22t29 -3t24 8t17 11l7 6l239 239q5 25 2 38t-12 17t-18.5 3.5t-17.5 -2.5zM928 404z" />
    <glyph glyph-name="uniE641" unicode="&#xe641;" 
d="M795 446q-10 14 -27 14h-32q-13 0 -22.5 -9.5t-9.5 -22.5v-192q0 -13 9.5 -22.5t22.5 -9.5h128q13 0 22.5 9.5t9.5 22.5v48q0 10 -5 18zM864 236h-128v192h32l96 -144v-48zM1008 321l-128 192q-29 43 -80 43h-128v64q0 40 -28 68t-68 28h-480q-40 0 -68 -28t-28 -68v-352
q0 -40 28 -68t68 -28v-96q0 -40 28 -68t68 -28h37q10 -42 44.5 -69t78.5 -27t78.5 27t44.5 69h170q10 -42 44.5 -69t78.5 -27t78.5 27t44.5 69h37q40 0 68 28t28 68v192q0 29 -16 53zM96 236q-13 0 -22.5 9.5t-9.5 22.5v352q0 13 9.5 22.5t22.5 9.5h480q13 0 22.5 -9.5
t9.5 -22.5v-352q0 -13 -9.5 -22.5t-22.5 -9.5h-480zM352.5 -52q-26.5 0 -45.5 18.5t-19 45.5t19 45.5t45.5 18.5t45 -19t18.5 -45t-18.5 -45t-45 -19zM768 -52q-27 0 -45.5 18.5t-18.5 45.5t18.5 45.5t45.5 18.5q26 0 45 -19t19 -45t-19 -45t-45 -19zM960 76
q0 -13 -9.5 -22.5t-22.5 -9.5h-37q-10 42 -44.5 69t-78.5 27t-78.5 -27t-44.5 -69h-170q-10 42 -44.5 69t-78.5 27t-78.5 -27t-44.5 -69h-37q-13 0 -22.5 9.5t-9.5 22.5v96h416q40 0 68 28t28 68v224h128q17 0 27 -14l128 -192q5 -8 5 -18v-192zM219 513h256h-256zM128 417
h427h-427z" />
    <glyph glyph-name="uniE642" unicode="&#xe642;" 
d="M922 -33h-820q-21 0 -36 15t-15 36v103v25v26q0 11 7.5 18.5t18.5 7.5l-1 2v1q34 8 56 35.5t22 63.5t-22 63.5t-56 35.5v1l1 2q-11 0 -18.5 7.5t-7.5 18.5v26v25v103q0 21 15 36t36 15h820q21 0 36 -15t15 -36v-103v-25v-26q0 -11 -7.5 -18.5t-18.5 -7.5l1 -2v-1
q-34 -8 -56 -35.5t-22 -63.5t22 -63.5t56 -35.5v-1l-1 -2q11 0 18.5 -7.5t7.5 -18.5v-26v-25v-103q0 -21 -15 -36t-36 -15zM922 155q-46 16 -74.5 56t-28.5 89t28.5 89t74.5 56v111q0 11 -7.5 18.5t-18.5 7.5h-768q-11 0 -18.5 -7.5t-7.5 -18.5v-111q46 -16 74.5 -56
t28.5 -89t-28.5 -89t-74.5 -56v-111q0 -11 7.5 -18.5t18.5 -7.5h768q11 0 18.5 7.5t7.5 18.5v111zM627 198h-89v-64q0 -6 -4 -9.5t-9 -3.5h-26q-5 0 -9 3.5t-4 9.5v64h-89q-5 0 -9 3.5t-4 8.5v26q0 5 4 9t9 4h89v51h-89q-5 0 -9 4t-4 9v25q0 6 4 9.5t9 3.5h70l-78 86
q-9 9 0 18l16 18q8 9 16 0l90 -99l92 100q8 9 16 0l16 -18q9 -9 0 -18l-79 -87h71q5 0 9 -3.5t4 -9.5v-25q0 -5 -4 -9t-9 -4h-89v-51h89q5 0 9 -4t4 -9v-26q0 -5 -4 -8.5t-9 -3.5zM627 198z" />
    <glyph glyph-name="uniE643" unicode="&#xe643;" 
d="M511.5 -126q-234.5 0 -343.5 83.5t-109 263.5q0 93 45 188t122.5 168t168.5 105h235q91 -32 167.5 -105t121.5 -168t45 -188q0 -180 -109 -263.5t-343.5 -83.5zM405 617q-52 -20 -100 -58q-54 -41 -95 -97t-64 -118q-22 -63 -22 -123q0 -76 21 -129q20 -49 60 -81
q44 -35 116 -53q78 -19 190.5 -19t191.5 19q72 18 115 53q41 32 61 81q21 53 21 129q0 60 -23 123q-22 62 -64 118q-41 56 -94 97q-48 38 -100 58h-213h-1zM502 50q-18 0 -30.5 12.5t-12.5 29.5q0 5 1 9l2 7h-2v39h-85q-13 0 -23 10t-10 23.5t10 23t23 9.5h6h79v51h-82l-3 1
q-13 0 -23 9.5t-10 23t10 23t23 9.5h6h70l2 5q0 2 2 5l3 4l-91 91q-7 7 -4.5 18t12.5 21q12 12 26 12q7 0 12 -5l90 -90l84 89q6 7 16 7q16 0 27 -12q12 -11 14 -19t-6 -19l-93 -94l-1 -5l-1 -6l6 -2h78h2q13 0 23 -9.5t10 -23t-10 -23t-23 -9.5l-4 -1h-81v-51h83h2
q13 0 23 -9.5t10 -23t-10 -23t-23 -10.5h-85v-41v-1v-4q1 -5 1 -9q0 -17 -12.5 -29.5t-30.5 -12.5zM398 721l-74 112v1v4q-1 4 -1 6q0 20 15 27l3 2q94 23 171 23h2q77 0 169 -23l1 -1l2 -1q15 -7 15 -27q0 -2 -1 -5l-1 -2l1 -5l-74 -111h-228zM512 832q-40 -1 -94 -9
l-10 -2l24 -36h159l24 37l-9 1q-52 9 -92 9h-2z" />
    <glyph glyph-name="uniE644" unicode="&#xe644;" 
d="M509 395q128 0 232 25.5t163 70t59 99t-59 99t-163 70t-232 25.5t-232 -25.5t-163 -70t-59 -99t59 -99t163 -70t232 -25.5zM509 735q86 0 163.5 -13t129.5 -34t82 -47t30 -51.5t-30 -51.5t-82 -47t-129.5 -34t-163.5 -13t-163 13t-129 34t-82.5 47t-30.5 51.5t30.5 51.5
t82.5 47t129 34t163 13zM509 189q127 0 231 25t163 69.5t59 98.5q0 43 -39 81v0l-1 1v0q-7 6 -15 6q-9 0 -15.5 -6.5t-6.5 -16.5q0 -9 7 -16q23 -24 23 -49q0 -26 -30 -52t-82.5 -47t-129.5 -34t-163.5 -13t-164 13t-129.5 34t-82.5 47t-30.5 52q0 28 24 49v1h1v0q6 7 6 15
q0 10 -6.5 16.5t-16 6.5t-15.5 -7h-1q-39 -38 -39 -81q0 -54 59 -98.5t163 -69.5t231 -25zM923 258h-1v1q-6 6 -15 6t-15.5 -7t-6.5 -16t7 -16q24 -24 24 -49q0 -26 -30.5 -52t-82.5 -47t-129.5 -34t-164 -13t-164 13t-129.5 34t-82.5 47t-30.5 52q0 28 24 49h1v1v0
q6 7 6 15q0 10 -6.5 16.5t-16 6.5t-15.5 -7q-39 -38 -39 -81q0 -54 58.5 -98.5t162.5 -69.5t231.5 -25t231 25t162.5 69.5t59 98.5q0 43 -39 81v0z" />
    <glyph glyph-name="uniE645" unicode="&#xe645;" 
d="M929 455l60 27l-563 314h-64v-622q-142 -7 -239 -63.5t-97 -133.5q0 -53 50 -98.5t135.5 -72t186.5 -26.5t187 26.5t135.5 72t49.5 98.5q0 78 -99.5 135t-244.5 63v33zM426 715l439 -228l-439 -215v443zM713 -23q0 -58 -92 -99.5t-222.5 -41.5t-223 41.5t-92.5 99.5
q0 55 80.5 95t198.5 46v-86q-36 -4 -59 -15t-23 -25q0 -18 33.5 -30.5t81 -12.5t81 12.5t33.5 30.5q0 14 -23.5 25.5t-59.5 14.5v86q121 -5 204 -45t83 -96z" />
    <glyph glyph-name="uniE646" unicode="&#xe646;" 
d="M446 62l-376 190l67 180l376 -180zM585 64l-64 188l378 180l76 -178zM137 432l-129 152l383 196l122 -156zM899 432l-379 192l127 156l375 -200zM113 22l1 183l339 -172l57 148v-343zM524 -162v343l52 -148l344 170v-181z" />
  </font>
</defs>
</svg>
